<svg width="13" height="13" viewBox="0 0 13 13" fill="none" xmlns="http://www.w3.org/2000/svg">
<path d="M2.5321 5.14893L0.988598 6.69243C0.355609 7.32542 0 8.18394 0 9.07912C0 9.9743 0.355609 10.8328 0.988598 11.4658C1.62159 12.0988 2.4801 12.4544 3.37529 12.4544C4.27047 12.4544 5.12898 12.0988 5.76197 11.4658L7.81847 9.40818C8.20018 9.02642 8.48474 8.55867 8.64826 8.04418C8.81179 7.52968 8.84951 6.98347 8.75825 6.45139C8.667 5.9193 8.44944 5.41687 8.12383 4.98626C7.79822 4.55566 7.37407 4.20945 6.88697 3.97668L6.22772 4.63593C6.16079 4.70298 6.10258 4.77819 6.05447 4.85981C6.43082 4.968 6.77241 5.17254 7.04548 5.4532C7.31855 5.73386 7.51364 6.08093 7.61147 6.4601C7.7093 6.83927 7.70649 7.2374 7.6033 7.61515C7.5001 7.99289 7.30011 8.33717 7.0231 8.61393L4.96772 10.6704C4.54553 11.0926 3.97292 11.3298 3.37585 11.3298C2.77878 11.3298 2.20616 11.0926 1.78397 10.6704C1.36178 10.2482 1.1246 9.67563 1.1246 9.07856C1.1246 8.48149 1.36178 7.90888 1.78397 7.48668L2.6761 6.59568C2.55023 6.124 2.5016 5.63504 2.5321 5.14781V5.14893Z" fill="#4D4DFF"/>
<path d="M3.65371 5.61917L3.84159 5.43129C4.12031 5.15154 4.46807 4.95049 4.84959 4.84854C4.95153 4.46703 5.15258 4.11927 5.43234 3.84054L5.62021 3.65267C5.0543 3.62085 4.48947 3.73188 3.97771 3.97554C3.73021 4.49304 3.62221 5.05892 3.65371 5.61804V5.61917Z" fill="#4D4DFF"/>
<path d="M4.63697 3.0451C4.25526 3.42686 3.9707 3.89462 3.80718 4.40911C3.64365 4.9236 3.60593 5.46981 3.69719 6.0019C3.78844 6.53398 4.006 7.03641 4.33161 7.46702C4.65721 7.89762 5.08137 8.24384 5.56847 8.4766L6.44034 7.6036C6.05891 7.50129 5.71112 7.30038 5.43193 7.02108C5.15274 6.74177 4.95198 6.3939 4.84983 6.01242C4.74768 5.63095 4.74773 5.2293 4.84998 4.84785C4.95223 4.4664 5.15308 4.11858 5.43234 3.83935L7.48772 1.78285C7.90991 1.36066 8.48252 1.12347 9.07959 1.12347C9.67666 1.12347 10.2493 1.36066 10.6715 1.78285C11.0937 2.20504 11.3308 2.77765 11.3308 3.37472C11.3308 3.97179 11.0937 4.54441 10.6715 4.9666L9.77934 5.8576C9.90534 6.3301 9.95372 6.81947 9.92334 7.30547L11.4668 5.76197C12.0998 5.12898 12.4554 4.27047 12.4554 3.37529C12.4554 2.4801 12.0998 1.62159 11.4668 0.988598C10.8339 0.35561 9.97533 0 9.08015 0C8.18497 0 7.32645 0.35561 6.69347 0.988598L4.63697 3.0451Z" fill="#4D4DFF"/>
<path d="M8.47774 8.4766C8.72243 7.96516 8.83388 7.40016 8.80174 6.83411L8.61386 7.02198C8.33514 7.30173 7.98738 7.50278 7.60586 7.60473C7.50391 7.98625 7.30286 8.33401 7.02311 8.61273L6.83524 8.8006C7.40115 8.83242 7.96597 8.72139 8.47774 8.47773V8.4766Z" fill="#4D4DFF"/>
</svg>
