<svg width="18" height="14" viewBox="0 0 18 14" fill="none" xmlns="http://www.w3.org/2000/svg">
<path d="M15.8202 0.000204588C15.3336 -0.00656201 14.2033 0.148725 12.3161 1.3361C11.2875 1.09445 10.1931 0.9752 9.09686 0.9752C7.89066 0.9752 6.67173 1.11919 5.53499 1.41233C2.82548 -0.325308 1.62953 0.0307852 1.62953 0.0307852C0.848771 1.86621 1.33125 3.22511 1.47789 3.5626C0.560218 4.49364 0 5.68253 0 7.13965C0 8.2397 0.133186 9.22635 0.45858 10.0841C0.476626 10.1502 0.470777 10.1355 0.501182 10.1922C0.572869 10.3697 0.652576 10.5421 0.742163 10.7085C0.772861 10.7684 0.800803 10.8127 0.800803 10.8127C1.71551 12.4156 3.51871 13.451 6.72702 13.7761L11.5794 13.7813C15.0009 13.4623 16.6428 12.4238 17.3993 10.8101L17.4474 10.7051C17.5191 10.5421 17.5816 10.3725 17.7526 9.80154C17.9235 9.23062 18 8.24189 18 7.13921C18 5.55774 17.3681 4.29232 16.342 3.3296C16.5213 2.78552 16.7609 1.57721 16.1029 0.0303442C16.1029 0.0303442 16.0106 0.00285059 15.8202 0.000190807L15.8202 0.000204588ZM11.9963 5.80374C12.7864 5.80212 13.4631 5.92964 13.9712 6.43077V6.4312C14.607 7.05881 14.9791 7.81656 14.9791 8.63314C14.9791 12.4458 12.3706 12.5495 9.15321 12.5495C5.93525 12.5495 3.32732 12.0212 3.32732 8.63314C3.32732 7.82196 3.69396 7.06874 4.3219 6.44368C5.36938 5.40196 7.14198 5.95359 9.15323 5.95359C10.1856 5.95344 11.1553 5.80545 11.9963 5.80372L11.9963 5.80374ZM6.00317 6.92647C5.33371 6.92647 4.79098 7.77733 4.79098 8.8274C4.79098 9.87761 5.33368 10.7288 6.00317 10.7288C6.67264 10.7288 7.21536 9.87761 7.21536 8.8274C7.21536 7.77749 6.67266 6.92723 6.00317 6.92647ZM12.5071 6.92647C11.8376 6.92647 11.2949 7.77733 11.2949 8.8274C11.2949 9.87761 11.8376 10.7288 12.5071 10.7288C13.1765 10.7288 13.7193 9.87761 13.7193 8.8274C13.7193 7.77749 13.1766 6.92723 12.5071 6.92647Z" fill="#4D4DFF"/>
</svg>
