<svg width="982" height="605" viewBox="0 0 982 605" fill="none" xmlns="http://www.w3.org/2000/svg">
<path d="M818.553 564.036H883.605V563.625H818.553V564.036Z" fill="#EEEEEE"/>
<path d="M633.442 568.076H650.515V568.486H633.442V568.076Z" fill="#EEEEEE"/>
<path d="M778.894 548.799H816.588V548.389H778.894V548.799Z" fill="#EEEEEE"/>
<path d="M103.03 551.556H187.861V551.146H103.03V551.556Z" fill="#EEEEEE"/>
<path d="M205.347 551.146H217.785V551.556H205.347V551.146Z" fill="#EEEEEE"/>
<path d="M258.208 558.073H442.188V558.484H258.208V558.073Z" fill="#EEEEEE"/>
<path d="M86.3667 145.414C80.4519 145.414 75.6401 148.175 75.6401 151.569V457.65C75.6401 461.044 80.4519 463.805 86.3667 463.805H465.852C471.766 463.805 476.577 461.044 476.577 457.65V151.569C476.577 148.175 471.766 145.414 465.852 145.414H86.3667ZM465.852 464.086H86.3667C80.1817 464.086 75.1487 461.199 75.1487 457.65V151.569C75.1487 148.019 80.1817 145.133 86.3667 145.133H465.852C472.035 145.133 477.068 148.019 477.068 151.569V457.65C477.068 461.199 472.035 464.086 465.852 464.086Z" fill="#EEEEEE"/>
<path d="M511.081 145.414C505.168 145.414 500.357 148.175 500.357 151.569V457.65C500.357 461.044 505.168 463.805 511.081 463.805H890.567C896.481 463.805 901.294 461.044 901.294 457.65V151.569C901.294 148.175 896.481 145.414 890.567 145.414H511.081ZM890.567 464.086H511.081C504.899 464.086 499.866 461.199 499.866 457.65V151.569C499.866 148.019 504.899 145.133 511.081 145.133H890.567C896.752 145.133 901.785 148.019 901.785 151.569V457.65C901.785 461.199 896.752 464.086 890.567 464.086Z" fill="#EEEEEE"/>
<path d="M0 537.628H982V537.218H0V537.628Z" fill="#EEEEEE"/>
<path d="M424.278 538.771H421.902C420.613 538.771 419.572 537.9 419.572 536.825V452.339H426.608V536.825C426.608 537.9 425.563 538.771 424.278 538.771Z" fill="#F4F4F4"/>
<path d="M576.37 452.339H637.346V444.656H576.37V452.339Z" fill="#E9E9E8"/>
<path d="M467.861 538.771H465.485C464.199 538.771 463.156 537.9 463.156 536.825V452.339H470.191V536.825C470.191 537.9 469.148 538.771 467.861 538.771Z" fill="#E9E9E8"/>
<path d="M630.952 538.771H628.575C627.289 538.771 626.246 537.9 626.246 536.825V452.339H633.281V536.825C633.281 537.9 632.238 538.771 630.952 538.771Z" fill="#E9E9E8"/>
<path d="M415.505 452.339H593.763V444.656H415.505V452.339Z" fill="#F8F8F9"/>
<path d="M587.369 538.771H584.99C583.704 538.771 582.663 537.9 582.663 536.825V452.339H589.696V536.825C589.696 537.9 588.653 538.771 587.369 538.771Z" fill="#F4F4F4"/>
<path d="M624.139 444.657H607.965V443.454C607.965 441.1 610.332 439.224 613.15 439.351L619.484 439.638C622.094 439.754 624.139 441.557 624.139 443.741V444.657Z" fill="#F4F4F4"/>
<path d="M580.475 416.728C580.414 415.665 579.364 414.828 578.087 414.828H561.744C560.468 414.828 559.417 415.665 559.356 416.728L563.235 445.181H587.632L580.475 416.728Z" fill="#E3E3E2"/>
<path d="M624.864 372.982H618.775L611.931 426.72H618.021C619.028 426.72 619.934 426.037 620.042 425.195L626.498 374.51C626.606 373.667 625.873 372.982 624.864 372.982Z" fill="#E3E3E2"/>
<path d="M615.444 426.721H524.171C523.164 426.721 522.431 426.037 522.539 425.195L528.995 374.51C529.103 373.667 530.006 372.982 531.018 372.982H622.289C623.298 372.982 624.029 373.667 623.921 374.51L617.467 425.195C617.359 426.037 616.454 426.721 615.444 426.721Z" fill="#EEEEEE"/>
<path d="M613.739 421.758H527.669C526.789 421.758 526.151 421.163 526.245 420.424L531.878 376.205C531.97 375.47 532.76 374.874 533.642 374.874H619.712C620.592 374.874 621.23 375.47 621.136 376.205L615.503 420.424C615.409 421.163 614.621 421.758 613.739 421.758Z" fill="#FCFDFD"/>
<path d="M588.547 442.972H558.543C557.813 442.972 557.219 443.465 557.219 444.076C557.219 444.686 557.813 445.181 558.543 445.181H588.547C589.278 445.181 589.869 444.686 589.869 444.076C589.869 443.465 589.278 442.972 588.547 442.972Z" fill="#E3E3E2"/>
<path d="M528.598 444.657H579.491V441.49H528.598V444.657Z" fill="#EEEEEE"/>
<path d="M558.926 411.271L544.893 399.551L558.926 387.828L572.959 399.551L558.926 411.271Z" fill="#F4F4F4"/>
<path d="M571.922 410.591L579.599 404.176L587.28 410.591H571.922Z" fill="#EEEEEE"/>
<path d="M602.095 393.285C602.095 397.662 597.847 401.211 592.607 401.211C587.367 401.211 583.119 397.662 583.119 393.285C583.119 388.908 587.367 385.359 592.607 385.359C597.847 385.359 602.095 388.908 602.095 393.285Z" fill="#E9E9E8"/>
<path d="M505.097 539.095H430.188V455.83H505.097V539.095Z" fill="#F8F8F9"/>
<path d="M519.389 539.095H505.097V455.83H519.389V539.095Z" fill="#E9E9E8"/>
<path d="M500.236 482.228H435.436V462.008H500.236V482.228Z" fill="#FCFDFD"/>
<path d="M500.236 504.658H435.436V484.437H500.236V504.658Z" fill="#FCFDFD"/>
<path d="M500.236 527.087H435.436V506.868H500.236V527.087Z" fill="#FCFDFD"/>
<path d="M470.534 472.117C470.534 473.364 469.327 474.373 467.836 474.373C466.343 474.373 465.135 473.364 465.135 472.117C465.135 470.872 466.343 469.863 467.836 469.863C469.327 469.863 470.534 470.872 470.534 472.117Z" fill="#EEEEEE"/>
<path d="M470.534 494.549C470.534 495.794 469.327 496.802 467.836 496.802C466.343 496.802 465.135 495.794 465.135 494.549C465.135 493.301 466.343 492.293 467.836 492.293C469.327 492.293 470.534 493.301 470.534 494.549Z" fill="#EEEEEE"/>
<path d="M470.534 516.977C470.534 518.222 469.327 519.232 467.836 519.232C466.343 519.232 465.135 518.222 465.135 516.977C465.135 515.732 466.343 514.721 467.836 514.721C469.327 514.721 470.534 515.732 470.534 516.977Z" fill="#EEEEEE"/>
<path d="M214.629 534.214H337.73V436.424H214.629V534.214Z" fill="#F4F4F4"/>
<path d="M337.731 534.214H354.513V436.424H337.731V534.214Z" fill="#E9E9E8"/>
<path d="M220.792 467.429H332.021V443.681H220.792V467.429Z" fill="#FCFDFD"/>
<path d="M220.792 493.769H332.021V470.022H220.792V493.769Z" fill="#FCFDFD"/>
<path d="M220.792 520.111H332.021V496.363H220.792V520.111Z" fill="#FCFDFD"/>
<path d="M332.021 539.095H221.715L220.792 534.206H332.021V539.095Z" fill="#E9E9E8"/>
<path d="M347.735 539.095H332.021V534.206H348.66L347.735 539.095Z" fill="#E3E3E2"/>
<path d="M266.257 443.681L266.589 446.847C266.699 447.891 267.745 448.691 269 448.691H283.359C284.614 448.691 285.661 447.891 285.771 446.847L286.103 443.681H266.257Z" fill="#EEEEEE"/>
<path d="M266.257 470.022L266.589 473.187C266.699 474.23 267.745 475.033 269 475.033H283.361C284.614 475.033 285.661 474.23 285.771 473.187L286.105 470.022H266.257Z" fill="#EEEEEE"/>
<path d="M266.257 496.363L266.589 499.529C266.699 500.574 267.745 501.375 269 501.375H283.361C284.614 501.375 285.661 500.574 285.771 499.529L286.105 496.363H266.257Z" fill="#EEEEEE"/>
<path d="M757.722 415.165C750.589 413.324 745.893 412.111 740.317 410.671C739.047 410.343 739.384 408.768 740.714 408.825C747.217 409.112 752.543 409.347 760.77 409.714C756.033 402.832 753.236 398.537 750.045 393.147C749.46 392.161 751.027 391.277 751.903 392.102C756.186 396.125 759.769 399.393 765.51 404.541C766.88 397.877 768.467 391.748 770.455 385.584C770.812 384.473 772.796 384.762 772.674 385.907C772.144 390.908 771.949 395.953 772.095 400.827C772.362 400.906 772.374 400.909 772.641 400.99C777.462 396.399 782.522 391.986 787.793 387.759C788.808 386.946 790.325 388.114 789.453 389.036C784.336 394.455 779.601 400.123 775.292 406.016C782.176 403.848 789.099 401.743 796.048 399.705C797.344 399.326 798.177 400.853 796.981 401.419C789.773 404.83 782.645 408.323 775.526 411.939C783.036 413.937 787.934 415.24 793.868 416.82C795.136 417.156 794.787 418.73 793.457 418.662C787.377 418.356 782.327 418.1 774.609 417.712C778.334 421.358 780.925 423.857 783.938 426.685C784.816 427.512 783.57 428.711 782.467 428.099C778.678 425.999 775.343 424.136 770.494 421.414C770.985 424.654 771.413 427.158 771.926 429.615C772.16 430.739 770.256 431.184 769.76 430.121C768.501 427.428 767.348 424.749 765.885 421.196C760.407 443.092 761.827 464.315 767.122 486.079C764.498 485.682 763.184 485.485 760.558 485.089C756.723 462.774 757.714 442.793 763.636 420.858C760.346 423.691 757.928 425.834 755.623 427.988C754.711 428.841 753.105 427.852 753.812 426.872C755.36 424.726 757.045 422.542 759.291 419.726C753.431 420.797 749.415 421.54 744.992 422.372C743.687 422.616 743.043 421.102 744.239 420.605C748.362 418.89 752.146 417.368 757.722 415.165Z" fill="#EEEEEE"/>
<path d="M748.464 422.73C753.869 420.336 757.76 418.612 761.829 416.81C763.404 416.111 762.489 414.11 760.755 414.464C755.68 415.504 750.956 416.472 744.249 417.849C746.94 411.376 748.641 407.021 750.296 402.227C750.787 400.807 748.458 399.959 747.543 401.224C744.829 404.981 742.246 408.459 738.438 413.506C736.13 408.353 733.761 403.567 731.163 398.867C730.393 397.47 727.877 398.228 728.331 399.716C729.47 403.444 730.415 407.198 731.14 410.884C730.894 411.002 730.884 411.009 730.639 411.127C726.318 408.31 721.887 405.611 717.36 403.032C715.801 402.146 714.086 403.941 715.479 405.004C720.247 408.65 724.815 412.479 729.158 416.48C723.309 415.627 717.445 414.818 711.572 414.057C709.75 413.819 709.111 415.996 710.855 416.502C717.338 418.374 723.788 420.313 730.252 422.336C724.489 424.941 720.396 426.792 716.032 428.764C714.463 429.474 715.396 431.471 717.124 431.105C721.812 430.112 726.241 429.176 732.442 427.865C730.222 431.112 728.525 433.566 726.781 436.03C725.882 437.302 727.881 438.609 729.146 437.576C731.613 435.556 734.068 433.536 737.312 430.86C737.456 432.785 737.562 434.457 737.634 436.017C737.705 437.538 740.341 437.674 740.641 436.173C741.016 434.298 741.382 432.296 741.792 429.927C752.066 450.583 755.413 471.655 755.073 493.862C757.563 493.065 758.808 492.665 761.299 491.866C760.083 469.346 754.643 449.872 743.923 429.243C746.286 430.631 748.268 431.815 750.078 432.926C751.565 433.838 753.346 432.165 752.082 431.043C750.85 429.952 749.501 428.783 747.942 427.451C752.508 427.56 755.982 427.646 759.38 427.735C761.173 427.784 761.558 425.65 759.83 425.253C756.477 424.482 753.028 423.719 748.464 422.73Z" fill="#F4F4F4"/>
<path d="M772.069 434.728C768.029 432.938 765.148 431.663 762.1 430.313C760.984 429.819 761.631 428.401 762.858 428.652C766.654 429.43 770.143 430.144 775.141 431.171C773.144 426.364 771.894 423.161 770.667 419.591C770.319 418.582 771.967 417.982 772.615 418.879C774.64 421.685 776.543 424.247 779.377 428.003C781.102 424.154 782.875 420.584 784.823 417.074C785.371 416.09 787.155 416.626 786.829 417.68C785.955 420.505 785.236 423.355 784.686 426.152L785.006 426.308C788.288 424.167 791.656 422.119 795.101 420.165C796.207 419.54 797.409 420.822 796.421 421.573C792.833 424.301 789.4 427.169 786.143 430.173C790.521 429.533 794.913 428.93 799.31 428.36C800.596 428.195 801.052 429.735 799.821 430.091C794.983 431.486 790.168 432.931 785.346 434.44C789.643 436.385 792.67 437.753 795.936 439.229C797.047 439.731 796.386 441.144 795.162 440.885C791.652 440.143 788.378 439.451 783.749 438.471C785.419 440.914 786.681 442.742 787.997 444.596C788.636 445.497 787.222 446.425 786.324 445.693C784.466 444.173 782.64 442.67 780.198 440.653C780.086 442.166 780.006 443.461 779.953 444.673C779.904 445.749 778.04 445.849 777.824 444.789C777.531 443.346 777.25 441.812 776.932 439.974C769.443 455.032 767.004 470.393 767.251 486.581C765.437 486.001 764.527 485.708 762.713 485.128C763.599 468.71 767.566 454.515 775.379 439.477C773.534 440.56 772.006 441.474 770.61 442.336C769.561 442.98 768.3 441.797 769.19 441.001C770.152 440.145 771.209 439.228 772.45 438.171C769.001 438.253 766.407 438.317 763.844 438.386C762.573 438.419 762.3 436.908 763.524 436.626C766.052 436.045 768.624 435.476 772.069 434.728" fill="#F8F8F9"/>
<path d="M774.664 539.095H740.702C738.328 539.095 736.364 537.552 736.218 535.572L732.618 486.642C732.459 484.483 734.512 482.658 737.102 482.658H778.264C780.854 482.658 782.906 484.483 782.749 486.642L779.149 535.572C779.002 537.552 777.038 539.095 774.664 539.095Z" fill="#EEEEEE"/>
<path d="M782.321 485.57H732.624C730.342 485.57 728.423 484.141 728.162 482.248C727.852 480.021 729.938 478.063 732.624 478.063H782.321C785.008 478.063 787.094 480.021 786.785 482.248C786.524 484.141 784.603 485.57 782.321 485.57Z" fill="#F8F8F9"/>
<path d="M862.327 586.424C862.327 596.684 691.838 605 481.529 605C271.22 605 100.73 596.684 100.73 586.424C100.73 576.165 271.22 567.847 481.529 567.847C691.838 567.847 862.327 576.165 862.327 586.424Z" fill="#F8F8F9"/>
<path d="M774.485 169.348L342.77 169.42L339.518 171.881L337.725 217.585L336.988 224.615L335.242 241.292L333.85 254.58L333.072 262.014H232.095H227.969H222.764L219.486 264.475L204.232 438.96C203.756 443.512 207.787 447.202 213.235 447.202H314.214L315.031 439.408H314.493L316.468 420.539L317.861 407.252L318.953 396.832L320.343 383.543L321.457 372.904L322.828 359.836L323.376 354.607H434.218L432.301 372.904L432.28 373.122L425.337 439.408L425.046 442.196L424.946 443.134L424.522 447.202L532.084 449.684L535.348 447.569L538.157 420.539L539.547 407.252L543.145 372.904L544.514 359.836L545.062 354.607H655.906L658.933 325.706H658.934L660.042 315.114L661.417 301.997L662.807 288.71L665.604 262.014H767.119L773.196 264.475L776.446 262.014L784.988 178.924C785.465 174.374 780.634 169.348 774.484 169.348" fill="#4870C0"/>
<path d="M647.361 449.662H748.342C753.79 449.662 758.592 445.972 759.068 441.421L767.633 355.201L656.005 354.881L652.658 357.068L647.361 449.662Z" fill="#4870C0"/>
<path d="M769.585 264.474L777.957 184.548H338.19L329.82 264.474H224.716L205.746 445.595H310.851L320.121 357.068H430.966L421.696 445.595H532.538L541.81 357.068H652.658L643.382 445.595H750.617L759.888 357.068H652.658L662.352 264.474H769.585Z" fill="#4870C0"/>
<path d="M319.573 445.595H665.347V264.474H319.573V445.595Z" fill="#DBE8F7"/>
<path d="M532.538 445.595L532.929 441.87H422.084L421.696 445.595L424.06 423H439.963C442.166 423 444.113 421.507 444.305 419.663L444.999 413.048C445.009 412.948 445.014 412.848 445.014 412.75C445.01 411.047 443.439 409.713 441.353 409.713H425.453L425.015 413.89L429.027 375.583H479.369C481.574 375.583 483.518 374.09 483.711 372.247L484.404 365.632C484.415 365.531 484.42 365.432 484.42 365.334C484.419 363.631 482.845 362.297 480.761 362.297H430.418L430.966 357.068H323.117H320.122L319.574 362.297H312.132C313.739 355.334 312.287 345.028 303.82 342.004C302.204 341.427 300.521 341.153 298.867 341.153C293.963 341.153 289.299 343.554 287.252 347.561C286.48 349.065 286.142 350.701 286.26 352.335C286.516 356.812 286.62 359.797 287.56 362.297H248.113C245.908 362.297 243.964 363.79 243.771 365.632L243.078 372.247C243.067 372.347 243.062 372.448 243.062 372.546C243.066 374.249 244.637 375.583 246.721 375.583H278.33C272.929 376.595 262.248 379.407 260.455 386.004H245.631C243.425 386.004 241.481 387.497 241.288 389.34L240.595 395.956C240.585 396.058 240.579 396.156 240.579 396.255C240.581 397.956 242.153 399.292 244.238 399.292H260.985C261.95 403.155 263.497 406.899 265.432 409.713H243.146C240.941 409.713 238.998 411.206 238.804 413.048L238.111 419.663C238.1 419.765 238.097 419.865 238.097 419.964C238.099 421.665 239.671 423 241.756 423H268.94C269.019 431.582 269.237 438.194 269.386 441.87H216.796C213.384 441.87 210.814 439.686 210.81 436.901C210.81 436.739 210.817 436.577 210.835 436.412L228.843 264.474H224.717H329.82L338.191 184.548L337.093 195.03H764.609C768.02 195.03 770.589 197.212 770.595 199.996C770.595 200.157 770.588 200.321 770.569 200.485L764.84 255.182L682.904 254.626L678.568 256.819L677.682 264.474H665.348H662.353L652.916 354.607L652.659 357.068H759.889H754.17L745.86 436.412C745.544 439.425 742.364 441.87 738.757 441.87H672.964C670.812 437.302 668.624 434.065 666.908 431.914L667.235 428.77C667.237 428.77 667.237 428.769 667.237 428.769C667.237 428.768 667.237 428.765 667.235 428.764L673.874 364.993L651.836 364.914L652.659 357.069H648.041C647.91 356.68 647.749 356.298 647.558 355.924C645.741 352.368 641.601 350.237 637.249 350.237C635.782 350.237 634.289 350.48 632.856 350.992C629.709 352.116 627.655 354.372 626.433 357.069H544.806H541.81L532.538 445.595L532.538 445.595ZM248.029 325.131C248.031 326.834 249.603 328.167 251.688 328.167H655.681L657.073 314.88H253.078C250.875 314.88 248.93 316.373 248.738 318.215L248.045 324.832C248.033 324.932 248.029 325.032 248.029 325.131H248.029ZM250.511 301.422C250.513 303.123 252.086 304.459 254.17 304.459H477.243C479.449 304.459 481.393 302.966 481.586 301.122L482.279 294.507C482.289 294.407 482.295 294.306 482.295 294.208C482.29 292.505 480.72 291.171 478.634 291.171H255.563C253.357 291.171 251.413 292.664 251.22 294.507L250.527 301.122C250.515 301.223 250.511 301.323 250.511 301.422H250.511ZM490.987 277.713C490.992 279.416 492.563 280.75 494.646 280.75H602.191C604.395 280.75 606.339 279.257 606.532 277.414L607.225 270.798C607.237 270.698 607.241 270.598 607.241 270.499C607.239 268.798 605.667 267.462 603.582 267.462H496.039C493.833 267.462 491.889 268.957 491.697 270.798L491.003 277.414C490.993 277.515 490.987 277.615 490.987 277.713ZM252.994 277.713C252.998 279.416 254.569 280.75 256.653 280.75H479.726C481.931 280.75 483.876 279.257 484.068 277.414L484.762 270.798C484.772 270.698 484.777 270.598 484.777 270.499C484.773 268.798 483.202 267.462 481.118 267.462H258.045C255.84 267.462 253.895 268.957 253.703 270.798L253.01 277.414C252.999 277.515 252.994 277.615 252.994 277.713ZM333.082 233.332H459.827C462.032 233.332 463.977 231.839 464.169 229.998L464.862 223.382C464.873 223.28 464.878 223.181 464.878 223.083C464.874 221.38 463.303 220.046 461.219 220.046H334.472L333.082 233.332" fill="#DBE8F7"/>
<path d="M479.726 280.75H256.653C254.449 280.75 252.817 279.257 253.01 277.414L253.703 270.798C253.895 268.957 255.84 267.462 258.045 267.462H481.118C483.322 267.462 484.954 268.957 484.762 270.798L484.068 277.414C483.876 279.257 481.931 280.75 479.726 280.75Z" fill="#4870C0"/>
<path d="M479.726 280.75H256.653C254.569 280.75 252.998 279.416 252.994 277.713C252.994 277.614 253 277.514 253.01 277.414L253.703 270.798C253.895 268.957 255.84 267.462 258.045 267.462H481.118C483.202 267.462 484.773 268.798 484.777 270.499C484.777 270.597 484.771 270.697 484.762 270.798L484.068 277.414C483.876 279.257 481.931 280.75 479.726 280.75" fill="#A1BCE6"/>
<path d="M602.191 280.75H494.646C492.443 280.75 490.811 279.257 491.003 277.414L491.697 270.798C491.889 268.957 493.833 267.462 496.039 267.462H603.582C605.787 267.462 607.419 268.957 607.225 270.798L606.532 277.414C606.339 279.257 604.395 280.75 602.191 280.75Z" fill="#4870C0"/>
<path d="M602.191 280.75H494.646C492.563 280.75 490.991 279.416 490.988 277.713C490.988 277.614 490.993 277.514 491.003 277.414L491.697 270.798C491.889 268.957 493.833 267.462 496.039 267.462H603.582C605.667 267.462 607.239 268.798 607.241 270.499C607.241 270.597 607.236 270.697 607.225 270.798L606.532 277.414C606.339 279.257 604.395 280.75 602.191 280.75Z" fill="#A1BCE6"/>
<path d="M477.243 304.458H254.17C251.965 304.458 250.335 302.965 250.527 301.121L251.22 294.506C251.413 292.664 253.357 291.171 255.563 291.171H478.634C480.839 291.171 482.471 292.664 482.279 294.506L481.586 301.121C481.393 302.965 479.449 304.458 477.243 304.458Z" fill="#4870C0"/>
<path d="M477.243 304.458H254.17C252.086 304.458 250.513 303.123 250.511 301.421C250.511 301.323 250.516 301.223 250.527 301.121L251.22 294.506C251.413 292.664 253.357 291.171 255.563 291.171H478.634C480.72 291.171 482.291 292.505 482.295 294.208C482.295 294.306 482.289 294.406 482.279 294.506L481.586 301.121C481.393 302.965 479.449 304.458 477.243 304.458Z" fill="#A1BCE6"/>
<path d="M426.945 351.874H249.203C247 351.874 245.368 350.381 245.56 348.539L246.253 341.924C246.448 340.081 248.39 338.587 250.596 338.587H428.338C430.541 338.587 432.174 340.081 431.981 341.924L431.288 348.539C431.095 350.381 429.151 351.874 426.945 351.874Z" fill="#4870C0"/>
<path d="M342.377 243.753H331.99L330.597 257.041H340.987C343.191 257.041 345.137 255.548 345.329 253.705L346.021 247.089C346.213 245.248 344.583 243.753 342.377 243.753Z" fill="#4870C0"/>
<path d="M461.219 220.046H334.472L333.082 233.332H459.827C462.032 233.332 463.977 231.839 464.169 229.998L464.862 223.382C465.055 221.539 463.423 220.046 461.219 220.046Z" fill="#4870C0"/>
<path d="M459.827 233.332H333.082L334.472 220.046H461.219C463.303 220.046 464.874 221.38 464.878 223.083C464.878 223.181 464.872 223.28 464.862 223.382L464.169 229.998C463.977 231.839 462.032 233.332 459.827 233.332" fill="#A1BCE6"/>
<path d="M657.073 314.88H253.078C250.875 314.88 248.93 316.372 248.738 318.215L248.045 324.832C247.85 326.674 249.482 328.167 251.688 328.167H655.681L657.073 314.88Z" fill="#4870C0"/>
<path d="M655.681 328.167H251.688C249.602 328.167 248.031 326.833 248.029 325.13C248.029 325.032 248.033 324.932 248.045 324.832L248.738 318.215C248.93 316.372 250.875 314.88 253.078 314.88H657.073L655.681 328.167" fill="#A1BCE6"/>
<path d="M659.556 291.171H493.554C491.351 291.171 489.407 292.664 489.214 294.506L488.521 301.123C488.328 302.965 489.958 304.458 492.164 304.458H658.165L659.556 291.171Z" fill="#4870C0"/>
<path d="M480.761 362.297H430.418L429.027 375.583H479.368C481.574 375.583 483.518 374.09 483.711 372.247L484.404 365.632C484.597 363.79 482.965 362.297 480.761 362.297Z" fill="#4870C0"/>
<path d="M319.573 362.297H248.113C245.908 362.297 243.963 363.79 243.771 365.632L243.078 372.247C242.885 374.09 244.515 375.583 246.721 375.583H318.183L319.573 362.297Z" fill="#4870C0"/>
<path d="M479.368 375.583H429.027L430.418 362.297H480.761C482.845 362.297 484.418 363.631 484.42 365.334C484.42 365.432 484.414 365.531 484.404 365.632L483.711 372.247C483.518 374.09 481.574 375.583 479.368 375.583" fill="#A1BCE6"/>
<path d="M278.329 375.583H246.721C244.637 375.583 243.066 374.249 243.062 372.546C243.062 372.448 243.068 372.347 243.078 372.247L243.771 365.632C243.963 363.79 245.908 362.297 248.113 362.297H287.56C288.242 364.105 289.359 365.659 291.29 367.342C291.312 367.353 291.331 367.365 291.353 367.378C291.261 368.959 290.972 370.241 290.567 371.279C285.907 371.404 283.587 373.345 282.46 374.956C282.057 375.004 281.661 375.058 281.274 375.117C280.865 375.168 279.791 375.309 278.33 375.583L278.329 375.583ZM301.501 372.879C301.236 372.779 300.955 372.682 300.662 372.587C300.741 372.334 300.819 372.082 300.896 371.829C301.086 371.206 301.267 370.589 301.375 369.996C301.522 369.996 301.67 369.993 301.817 369.988L301.632 371.674L301.501 372.879L301.501 372.879ZM319.36 364.349L311.527 364.319C311.627 364.073 311.718 363.819 311.798 363.555C311.92 363.15 312.032 362.73 312.132 362.297H319.574L319.36 364.349Z" fill="#A1BCE6"/>
<path d="M317.091 386.004H245.631C243.425 386.004 241.481 387.497 241.288 389.339L240.595 395.956C240.401 397.797 242.033 399.292 244.238 399.292H315.7L317.091 386.004Z" fill="#4870C0"/>
<path d="M260.985 399.292H244.238C242.153 399.292 240.581 397.956 240.579 396.255C240.579 396.156 240.585 396.058 240.595 395.956L241.288 389.339C241.481 387.497 243.425 386.004 245.631 386.004H260.455C260.449 386.029 260.442 386.053 260.436 386.079C259.503 389.668 259.807 394.568 260.985 399.291" fill="#A1BCE6"/>
<path d="M314.608 409.713H243.146C240.941 409.713 238.998 411.206 238.804 413.048L238.111 419.663C237.918 421.507 239.55 423 241.756 423H313.216L314.608 409.713Z" fill="#4870C0"/>
<path d="M441.353 409.713H425.453L424.06 423H439.963C442.166 423 444.113 421.507 444.305 419.663L444.998 413.048C445.191 411.206 443.559 409.713 441.353 409.713Z" fill="#4870C0"/>
<path d="M268.94 423H241.756C239.67 423 238.099 421.665 238.097 419.964C238.097 419.865 238.101 419.765 238.11 419.663L238.803 413.048C238.998 411.206 240.94 409.713 243.146 409.713H265.431C266.488 411.249 267.663 412.509 268.918 413.357C268.902 416.784 268.912 420.011 268.939 423" fill="#A1BCE6"/>
<path d="M439.963 423H424.06L425.453 409.713H441.353C443.439 409.713 445.01 411.047 445.014 412.75C445.014 412.848 445.008 412.948 444.998 413.048L444.305 419.663C444.113 421.507 442.166 423 439.963 423" fill="#A1BCE6"/>
<path d="M782.031 180.12C782.506 175.569 778.478 171.881 773.03 171.881H339.518L337.092 195.03H764.608C768.216 195.03 770.885 197.471 770.569 200.485L763.868 264.475H773.197L782.031 180.12Z" fill="#4870C0"/>
<path d="M774.163 255.246L764.84 255.182L770.569 200.485C770.586 200.321 770.594 200.157 770.594 199.996C770.588 197.212 768.019 195.03 764.608 195.03H337.092L339.518 171.881H773.03C778.179 171.881 782.062 175.177 782.068 179.382C782.068 179.624 782.056 179.87 782.031 180.12L774.163 255.246" fill="#799BD7"/>
<path d="M754.169 357.068L745.86 436.412C745.543 439.425 742.364 441.87 738.756 441.87H643.773L642.956 449.663H743.937C749.385 449.663 754.187 445.972 754.664 441.422L763.498 357.068H754.169Z" fill="#4870C0"/>
<path d="M743.937 449.663H676.073C675.087 446.719 674.028 444.13 672.964 441.87H738.756C742.364 441.87 745.543 439.425 745.86 436.412L754.169 357.068H763.498L754.664 441.422C754.187 445.972 749.385 449.663 743.937 449.663Z" fill="#799BD7"/>
<path d="M228.843 264.474L210.835 436.412C210.518 439.425 213.188 441.869 216.795 441.869H311.778L310.961 449.662H209.982C204.534 449.662 200.504 445.972 200.981 441.421L219.486 264.474H228.843Z" fill="#4870C0"/>
<path d="M271.139 449.662H209.982C204.831 449.662 200.95 446.364 200.942 442.16C200.942 441.917 200.954 441.671 200.981 441.421L219.486 264.474H228.843L210.835 436.412C210.817 436.576 210.809 436.739 210.809 436.901C210.814 439.685 213.384 441.869 216.795 441.869H269.385C269.47 443.971 269.533 445.111 269.533 445.111C269.533 445.111 270.126 445.249 271.283 445.453C271.206 446.535 271.143 447.944 271.139 449.662" fill="#799BD7"/>
<path d="M532.929 441.869H422.084L421.269 449.662H532.112L532.929 441.869Z" fill="#4870C0"/>
<path d="M532.538 445.595L532.929 441.869L532.538 445.595Z" fill="#E6F0FA"/>
<path d="M532.112 449.662H421.269L422.084 441.869H532.929L532.538 445.595L532.112 449.662Z" fill="#799BD7"/>
<path d="M536.297 409.713H456.276C454.068 409.713 452.126 411.206 451.933 413.048L451.24 419.663C451.046 421.507 452.678 423 454.883 423H534.905L536.297 409.713Z" fill="#4870C0"/>
<path d="M654.481 409.713H647.141L645.749 423H653.09C655.296 423 657.24 421.507 657.433 419.663L658.126 413.048C658.318 411.206 656.686 409.713 654.481 409.713Z" fill="#4870C0"/>
<path d="M541.262 362.297H495.679C493.476 362.297 491.532 363.79 491.339 365.632L490.646 372.247C490.453 374.09 492.083 375.583 494.289 375.583H539.871L541.262 362.297Z" fill="#4870C0"/>
<path d="M790.91 208.207L790.824 208.204C790.283 208.164 789.885 207.767 789.932 207.316L793.536 172.896C793.797 170.404 792.884 168.068 790.963 166.317C789.052 164.577 786.369 163.618 783.405 163.618H750.037C749.493 163.618 749.055 163.251 749.055 162.798C749.055 162.345 749.493 161.978 750.037 161.978H783.405C786.925 161.978 790.124 163.125 792.41 165.208C794.706 167.303 795.802 170.084 795.492 173.039L791.888 207.459C791.843 207.886 791.415 208.207 790.91 208.207Z" fill="#4870C0"/>
<path d="M742.57 163.618H734.148C733.606 163.618 733.166 163.251 733.166 162.798C733.166 162.345 733.606 161.978 734.148 161.978H742.57C743.112 161.978 743.552 162.345 743.552 162.798C743.552 163.251 743.112 163.618 742.57 163.618Z" fill="#4870C0"/>
<path d="M533.942 464.863H521.353C520.809 464.863 520.371 464.497 520.371 464.042C520.371 463.589 520.809 463.222 521.353 463.222H533.942C534.486 463.222 534.924 463.589 534.924 464.042C534.924 464.497 534.486 464.863 533.942 464.863Z" fill="#4870C0"/>
<path d="M510.932 464.863H420.34C419.796 464.863 419.358 464.497 419.358 464.042C419.358 463.589 419.796 463.222 420.34 463.222H510.932C511.474 463.222 511.914 463.589 511.914 464.042C511.914 464.497 511.474 464.863 510.932 464.863Z" fill="#4870C0"/>
<path d="M460.379 186.262C461.005 185.979 461.516 185.588 461.914 185.089C462.309 184.591 462.541 184.033 462.606 183.418C462.669 182.801 462.557 182.244 462.264 181.746C461.971 181.247 461.541 180.857 460.976 180.573C460.408 180.289 459.75 180.148 459.004 180.148C458.257 180.148 457.564 180.289 456.93 180.573C456.293 180.857 455.777 181.247 455.38 181.746C454.983 182.244 454.754 182.801 454.687 183.418C454.624 184.033 454.738 184.591 455.031 185.089C455.321 185.588 455.755 185.979 456.333 186.262C456.91 186.546 457.572 186.687 458.318 186.687C459.065 186.687 459.754 186.546 460.379 186.262ZM455.484 187.206C454.699 186.828 454.107 186.307 453.705 185.642C453.304 184.978 453.147 184.236 453.234 183.418C453.318 182.599 453.632 181.857 454.172 181.193C454.712 180.528 455.414 180.008 456.278 179.631C457.142 179.254 458.089 179.065 459.116 179.065C460.135 179.065 461.037 179.254 461.822 179.631C462.608 180.008 463.199 180.527 463.596 181.188C463.992 181.847 464.147 182.591 464.059 183.418C463.973 184.244 463.662 184.988 463.128 185.649C462.594 186.31 461.893 186.828 461.029 187.206C460.164 187.581 459.224 187.77 458.204 187.77C457.177 187.77 456.27 187.581 455.484 187.206Z" fill="white"/>
<path d="M471.071 186.44C471.485 186.248 471.823 185.98 472.086 185.636C472.351 185.291 472.506 184.897 472.553 184.451C472.601 184.005 472.526 183.611 472.335 183.265C472.143 182.922 471.86 182.656 471.487 182.469C471.114 182.284 470.68 182.189 470.185 182.189C469.7 182.189 469.25 182.284 468.839 182.476C468.425 182.666 468.087 182.932 467.824 183.272C467.561 183.613 467.406 184.005 467.359 184.451C467.311 184.897 467.38 185.291 467.569 185.636C467.755 185.98 468.038 186.248 468.415 186.44C468.794 186.628 469.224 186.725 469.709 186.725C470.204 186.725 470.658 186.628 471.071 186.44ZM472.373 181.582C472.936 181.857 473.359 182.243 473.641 182.737C473.924 183.232 474.034 183.803 473.965 184.451C473.897 185.099 473.669 185.672 473.282 186.172C472.895 186.669 472.392 187.056 471.772 187.332C471.151 187.608 470.468 187.746 469.719 187.746C469.165 187.746 468.669 187.655 468.227 187.478C467.785 187.301 467.421 187.04 467.137 186.7L466.789 190.031H465.391L466.312 181.229H467.651L467.543 182.249C467.893 181.893 468.313 181.624 468.808 181.442C469.303 181.258 469.835 181.168 470.409 181.168C471.155 181.168 471.811 181.306 472.373 181.582" fill="white"/>
<path d="M477.565 182.664C477.078 183.004 476.766 183.45 476.631 184.002H481.58C481.558 183.459 481.34 183.014 480.926 182.669C480.511 182.325 479.967 182.153 479.3 182.153C478.63 182.153 478.051 182.323 477.565 182.664ZM482.801 184.84H476.544C476.572 185.408 476.821 185.864 477.296 186.208C477.768 186.553 478.382 186.725 479.141 186.725C480.062 186.725 480.832 186.464 481.448 185.946L482.142 186.7C481.757 187.04 481.295 187.301 480.757 187.478C480.219 187.655 479.632 187.745 478.989 187.745C478.174 187.745 477.467 187.606 476.866 187.325C476.263 187.047 475.818 186.656 475.527 186.152C475.234 185.65 475.12 185.083 475.187 184.451C475.254 183.826 475.48 183.263 475.867 182.761C476.254 182.259 476.754 181.867 477.373 181.588C477.988 181.308 478.665 181.168 479.402 181.168C480.138 181.168 480.782 181.308 481.33 181.588C481.878 181.867 482.289 182.259 482.56 182.761C482.833 183.263 482.935 183.839 482.868 184.487L482.802 184.84" fill="white"/>
<path d="M491.531 181.88C492.058 182.353 492.274 183.048 492.178 183.964L491.791 187.673H490.394L490.767 184.098C490.832 183.475 490.703 183.004 490.377 182.689C490.051 182.372 489.554 182.215 488.884 182.215C488.128 182.215 487.511 182.399 487.036 182.768C486.561 183.137 486.288 183.665 486.215 184.354L485.867 187.673H484.469L485.145 181.229H486.484L486.382 182.202C486.698 181.87 487.107 181.614 487.606 181.436C488.104 181.258 488.658 181.168 489.269 181.168C490.249 181.168 491.003 181.406 491.532 181.88" fill="white"/>
<path d="M499.27 187.472C498.578 187.273 498.044 187.015 497.669 186.7L498.307 185.752C498.665 186.043 499.138 186.28 499.725 186.463C500.313 186.645 500.925 186.737 501.566 186.737C502.41 186.737 503.052 186.617 503.494 186.379C503.938 186.139 504.18 185.821 504.221 185.424C504.252 185.132 504.162 184.894 503.954 184.712C503.744 184.53 503.479 184.39 503.154 184.294C502.828 184.195 502.367 184.087 501.77 183.964C501.018 183.811 500.417 183.657 499.961 183.503C499.507 183.349 499.13 183.111 498.83 182.792C498.527 182.471 498.405 182.039 498.462 181.496C498.51 181.044 498.696 180.633 499.02 180.269C499.344 179.903 499.81 179.613 500.415 179.393C501.02 179.175 501.752 179.065 502.616 179.065C503.217 179.065 503.803 179.131 504.372 179.26C504.94 179.39 505.421 179.575 505.812 179.82L505.23 180.791C504.828 180.564 504.39 180.392 503.916 180.276C503.443 180.158 502.974 180.099 502.51 180.099C501.683 180.099 501.053 180.225 500.613 180.476C500.175 180.727 499.935 181.052 499.894 181.449C499.863 181.739 499.953 181.977 500.169 182.159C500.383 182.341 500.656 182.484 500.99 182.586C501.324 182.686 501.78 182.794 502.361 182.907C503.111 183.062 503.71 183.214 504.16 183.368C504.61 183.523 504.985 183.757 505.287 184.074C505.588 184.39 505.712 184.815 505.655 185.35C505.609 185.796 505.419 186.203 505.091 186.572C504.761 186.942 504.29 187.234 503.675 187.447C503.06 187.662 502.322 187.77 501.458 187.77C500.692 187.77 499.961 187.67 499.27 187.472Z" fill="white"/>
<path d="M512.096 186.44C512.509 186.248 512.845 185.98 513.106 185.636C513.363 185.291 513.518 184.897 513.564 184.451C513.611 184.005 513.54 183.611 513.353 183.265C513.165 182.922 512.886 182.656 512.513 182.469C512.14 182.284 511.706 182.189 511.211 182.189C510.716 182.189 510.262 182.284 509.85 182.469C509.437 182.656 509.099 182.922 508.834 183.265C508.569 183.611 508.414 184.005 508.369 184.451C508.322 184.897 508.394 185.291 508.587 185.636C508.777 185.98 509.06 186.248 509.433 186.44C509.806 186.628 510.241 186.725 510.735 186.725C511.23 186.725 511.684 186.628 512.096 186.44ZM508.606 187.319C508.025 187.037 507.587 186.645 507.296 186.146C507.004 185.649 506.89 185.083 506.957 184.451C507.023 183.819 507.255 183.253 507.652 182.755C508.047 182.256 508.567 181.867 509.207 181.588C509.848 181.308 510.551 181.168 511.317 181.168C512.085 181.168 512.756 181.308 513.332 181.588C513.909 181.867 514.343 182.256 514.636 182.755C514.929 183.253 515.043 183.819 514.976 184.451C514.909 185.083 514.677 185.649 514.281 186.146C513.886 186.645 513.367 187.037 512.733 187.319C512.097 187.604 511.393 187.745 510.627 187.745C509.861 187.745 509.188 187.604 508.606 187.319Z" fill="white"/>
<path d="M524.438 181.229L523.763 187.673H522.439L522.541 186.7C522.225 187.033 521.826 187.289 521.347 187.471C520.866 187.654 520.355 187.745 519.813 187.745C518.784 187.745 517.998 187.509 517.456 187.035C516.914 186.559 516.692 185.86 516.788 184.937L517.175 181.229H518.574L518.199 184.804C518.134 185.427 518.263 185.9 518.589 186.22C518.914 186.54 519.412 186.7 520.08 186.7C520.819 186.7 521.42 186.513 521.885 186.141C522.352 185.769 522.622 185.242 522.692 184.561L523.042 181.229H524.438" fill="white"/>
<path d="M529.494 181.46C529.989 181.265 530.576 181.168 531.255 181.168L531.137 182.299L530.819 182.288C530.061 182.288 529.447 182.476 528.977 182.854C528.504 183.229 528.233 183.766 528.16 184.463L527.824 187.674H526.426L527.102 181.229H528.441L528.327 182.312C528.608 181.94 528.997 181.656 529.494 181.461" fill="white"/>
<path d="M533.514 187.319C532.929 187.037 532.487 186.645 532.188 186.146C531.892 185.649 531.776 185.083 531.843 184.451C531.909 183.819 532.143 183.253 532.546 182.755C532.946 182.256 533.469 181.867 534.115 181.588C534.759 181.308 535.476 181.168 536.262 181.168C536.961 181.168 537.572 181.286 538.094 181.521C538.618 181.756 539.007 182.097 539.261 182.543L538.139 183.114C537.929 182.806 537.652 182.574 537.308 182.42C536.967 182.267 536.576 182.189 536.14 182.189C535.635 182.189 535.172 182.284 534.751 182.469C534.327 182.656 533.983 182.922 533.722 183.265C533.455 183.611 533.302 184.005 533.255 184.451C533.208 184.906 533.28 185.304 533.471 185.649C533.663 185.993 533.95 186.257 534.333 186.444C534.716 186.631 535.162 186.725 535.665 186.725C536.102 186.725 536.507 186.648 536.882 186.494C537.257 186.339 537.581 186.108 537.858 185.8L538.862 186.359C538.514 186.805 538.053 187.148 537.481 187.386C536.908 187.626 536.271 187.745 535.572 187.745C534.787 187.745 534.099 187.604 533.514 187.319Z" fill="white"/>
<path d="M542.415 182.664C541.928 183.004 541.615 183.45 541.48 184.002H546.429C546.408 183.459 546.19 183.014 545.775 182.669C545.361 182.325 544.819 182.153 544.149 182.153C543.479 182.153 542.9 182.323 542.415 182.664ZM547.651 184.84H541.394C541.421 185.408 541.67 185.864 542.146 186.208C542.617 186.553 543.234 186.725 543.99 186.725C544.911 186.725 545.681 186.464 546.298 185.946L546.991 186.7C546.606 187.04 546.144 187.301 545.606 187.478C545.068 187.655 544.481 187.745 543.839 187.745C543.024 187.745 542.317 187.606 541.716 187.325C541.113 187.047 540.667 186.656 540.376 186.152C540.084 185.65 539.97 185.083 540.036 184.451C540.101 183.826 540.329 183.263 540.716 182.761C541.103 182.259 541.604 181.867 542.22 181.588C542.837 181.308 543.515 181.168 544.251 181.168C544.988 181.168 545.632 181.308 546.18 181.588C546.728 181.867 547.138 182.259 547.409 182.761C547.684 183.263 547.784 183.839 547.718 184.487L547.651 184.84" fill="white"/>
<path d="M342.177 163.221H354.768C355.31 163.221 355.75 162.854 355.75 162.401C355.75 161.947 355.31 161.581 354.768 161.581H342.177C341.635 161.581 341.195 161.947 341.195 162.401C341.195 162.854 341.635 163.221 342.177 163.221Z" fill="#4870C0"/>
<path d="M365.189 163.221H455.781C456.323 163.221 456.763 162.854 456.763 162.401C456.763 161.947 456.323 161.581 455.781 161.581H365.189C364.647 161.581 364.207 161.947 364.207 162.401C364.207 162.854 364.647 163.221 365.189 163.221Z" fill="#4870C0"/>
<path d="M898.172 570.398H819.997L815.154 524.142H893.327L898.172 570.398ZM809.819 473.212H887.993L892.838 519.467H814.663L809.819 473.212ZM804.485 422.28H882.658L887.504 468.538H809.328L804.485 422.28ZM799.151 371.35H877.324L882.169 417.606H803.994L799.151 371.35ZM793.817 320.42H871.99L876.835 366.676H798.662L793.817 320.42ZM788.482 269.49H866.658L871.501 315.746H793.328L788.482 269.49ZM780.903 250.562L816.383 589.326H821.98L820.488 575.073H898.661L900.154 589.326H905.751L870.271 250.562H864.674L866.167 264.814H787.993L786.501 250.562H780.903Z" fill="#1D2A30"/>
<path d="M787.015 589.326H905.751V250.562H787.015V589.326Z" fill="#5D6C72"/>
<path d="M787 255.333L781.398 255.293L780.903 250.562H786.501L787 255.333Z" fill="#5D6C72"/>
<path d="M829.813 269.503L819.844 277.396L800.734 273.71V270.548C800.734 269.577 799.526 268.937 798.475 269.349C798.475 269.349 797.552 269.889 797.203 269.849C795.612 269.672 792.314 266.369 792.314 266.369C791.87 266.056 791.258 265.967 790.716 266.143L789.341 266.588C788.608 266.824 788.194 267.473 788.367 268.113L790.533 276.105C790.674 276.625 791.175 277.024 791.802 277.115L797.827 278.005C797.827 278.005 815.065 286.853 821.297 285.639C827.527 284.423 836.862 277.137 836.862 277.137L829.813 269.503Z" fill="#8E2F33"/>
<path d="M682.904 254.626L678.567 256.819L671.731 347.459L778.59 350.269L782.478 348.319L793.186 255.374L682.904 254.626Z" fill="#4870C0"/>
<path d="M785.709 257.651L678.567 256.819L667.842 349.408L774.982 350.242L785.709 257.651Z" fill="#4870C0"/>
<path d="M774.982 350.242L667.842 349.408L671.188 320.509L673.484 320.527C673.496 320.527 673.51 320.527 673.524 320.527C675.71 320.527 677.646 319.055 677.858 317.222L678.624 310.607C678.637 310.499 678.644 310.392 678.644 310.287C678.648 308.593 677.096 307.256 675.022 307.241L672.728 307.223L678.567 256.819L779.996 257.607L769.269 350.197L774.982 350.242Z" fill="#DBE8F7"/>
<path d="M732.499 283.959L675.474 283.516L673.936 296.801L730.959 297.244C733.162 297.261 735.122 295.783 735.335 293.94L736.102 287.324C736.315 285.483 734.702 283.975 732.499 283.959Z" fill="#4870C0"/>
<path d="M675.022 307.241L672.728 307.223L671.188 320.508L673.484 320.527C675.686 320.543 677.646 319.065 677.858 317.222L678.624 310.607C678.838 308.765 677.226 307.257 675.022 307.241Z" fill="#4870C0"/>
<path d="M673.524 320.526C673.51 320.526 673.496 320.526 673.484 320.526L671.188 320.508L672.728 307.223L675.022 307.241C677.096 307.256 678.648 308.593 678.644 310.287C678.644 310.392 678.638 310.499 678.624 310.607L677.858 317.222C677.646 319.055 675.71 320.526 673.524 320.526Z" fill="#A1BCE6"/>
<path d="M769.269 350.197L778.59 350.27L789.317 257.681L779.996 257.607L769.269 350.197" fill="#4870C0"/>
<path d="M778.59 350.27L774.982 350.242L769.269 350.197L779.996 257.607L789.317 257.681L778.59 350.269" fill="#799BD7"/>
<path d="M814.124 234.233C814.124 234.233 806.903 234.707 806.932 238.871C806.952 241.511 809.417 237.143 812.962 235.803C816.507 234.461 814.124 234.233 814.124 234.233Z" fill="#1D2A30"/>
<path d="M841.774 374.899C841.774 374.899 845.313 384.895 846.909 388.099C855.309 404.97 872.278 429.374 882.996 454.681L891.606 451.893C891.606 451.893 887.435 434.782 878.683 413.923C874.374 403.656 866.83 393.233 862.38 381.991C861.137 378.849 859.915 368.917 859.915 368.917L841.774 374.899Z" fill="#8E2F33"/>
<path d="M849.168 311.298C849.168 311.298 858.678 319.278 860.339 329.516C862.001 339.751 858.332 356.927 864.079 375.494L842.062 380.524C842.062 380.524 824.235 328.479 822.556 315.898L849.168 311.298Z" fill="#1D2A30"/>
<path d="M840.843 376.935C840.267 375.233 839.515 372.994 838.641 370.374C839.401 365.18 841.112 358.046 844.763 348.947C847.031 343.292 847.636 337.998 847.332 333.307L847.404 333.209C847.404 333.209 849.29 347.041 845.533 360.97C843.775 367.481 842.304 372.904 841.233 376.838L840.843 376.935" fill="#16191B"/>
<path d="M820.077 460.409L819.635 460.448C819.441 460.472 819.272 460.566 819.174 460.707C818.995 460.945 819.052 461.061 819.117 461.128C819.551 461.667 822.008 461.731 823.827 461.58C822.676 460.996 821.405 460.598 820.077 460.409V460.409ZM821.58 462.024C820.368 461.998 819.123 461.786 818.734 461.345C818.534 461.087 818.551 460.75 818.777 460.507C818.946 460.287 819.211 460.131 819.518 460.07C821.154 459.731 824.504 461.423 824.65 461.498L824.758 461.701L824.565 461.854C823.579 461.983 822.579 462.041 821.58 462.024" fill="#4870C0"/>
<path d="M822.246 458.506L822.114 458.494C821.698 458.515 821.666 458.654 821.648 458.702C821.572 459.253 823.065 460.666 824.255 461.288C824.166 460.362 823.742 459.481 823.035 458.766C822.819 458.602 822.538 458.51 822.246 458.506ZM824.53 461.851L824.434 461.842C823.283 461.386 820.994 459.575 821.228 458.663C821.258 458.443 821.464 458.178 822.102 458.139C822.566 458.106 823.027 458.234 823.377 458.493C824.593 459.373 824.787 461.57 824.797 461.673L824.689 461.845L824.53 461.85" fill="#4870C0"/>
<path d="M825.594 460.737L836.225 460.955C836.626 460.963 836.966 461.204 837.044 461.532L838.751 468.797C838.908 469.44 838.411 470.066 837.641 470.198L837.341 470.222C833.511 470.088 830.107 469.842 825.337 469.75C819.706 469.635 821.118 470.227 814.496 470.168C810.505 470.129 809.888 466.328 811.585 466.176C819.349 465.522 820.211 463.586 823.265 461.333C823.927 460.902 824.756 460.689 825.594 460.737" fill="#1D2A30"/>
<path d="M877.057 455.423L876.658 455.588C876.487 455.667 876.367 455.806 876.336 455.965C876.267 456.24 876.369 456.333 876.458 456.378C877.092 456.754 879.42 456.095 881.059 455.421C879.736 455.21 878.379 455.21 877.057 455.422L877.057 455.423ZM879.141 456.495C877.998 456.827 876.741 456.993 876.193 456.692C875.896 456.51 875.77 456.188 875.878 455.895C875.947 455.639 876.128 455.416 876.389 455.271C877.78 454.472 881.627 455.075 881.798 455.102L881.98 455.262L881.867 455.462C880.995 455.872 880.085 456.218 879.141 456.495" fill="#4870C0"/>
<path d="M878.29 453.007L878.161 453.033C877.78 453.174 877.809 453.314 877.811 453.365C877.972 453.903 879.964 454.787 881.338 455.02C880.867 454.182 880.099 453.481 879.137 453.019C878.866 452.929 878.565 452.924 878.29 453.008V453.007ZM881.831 455.47L881.737 455.488C880.468 455.4 877.564 454.372 877.403 453.451C877.338 453.234 877.42 452.927 878 452.702C878.422 452.538 878.907 452.523 879.343 452.663C880.849 453.129 881.955 455.132 882.008 455.224L881.977 455.418L881.831 455.47" fill="#4870C0"/>
<path d="M882.36 454.113L892.408 451.206C892.787 451.096 893.207 451.221 893.417 451.504L898.066 457.808C898.484 458.364 898.282 459.099 897.614 459.449L897.343 459.557C893.7 460.553 890.41 461.319 885.901 462.63C880.58 464.171 882.152 464.312 875.926 466.198C872.172 467.33 869.998 463.951 871.524 463.31C878.52 460.425 878.516 458.359 880.429 455.355C880.869 454.758 881.556 454.317 882.36 454.113Z" fill="#1D2A30"/>
<path d="M816.238 374.741C816.238 374.741 815.906 385.162 816.238 388.623C817.99 406.835 825.099 434.426 825.93 461.26H835.07C835.07 461.26 837.82 441.057 836.622 416.485C836.162 407.08 833.193 397.172 833.132 387.233C833.11 383.924 835.624 374.162 835.624 374.162L816.238 374.741Z" fill="#8E2F33"/>
<path d="M839.778 313.206C839.778 313.206 852.856 328.772 844.763 348.947C836.178 370.346 838.323 380.872 838.323 380.872H814.439C814.439 380.872 814.439 352.857 813.4 343.569C812.669 337.033 810.699 329.862 811.322 317.37L839.778 313.206Z" fill="#1D2A30"/>
<path d="M838.586 376.872L839.319 381.645H813.459V376.872H838.586Z" fill="#1D2A30"/>
<path d="M839.319 381.645H813.459V376.872H838.586L839.319 381.645Z" fill="#758288"/>
<path d="M864.079 371.148L840.045 377.135L841.774 381.645L865.695 375.834L864.079 371.148Z" fill="#1D2A30"/>
<path d="M841.774 381.645L840.045 377.135L864.079 371.148L865.695 375.834L861.139 376.94L844.042 381.094L841.774 381.645Z" fill="#758288"/>
<path d="M831.553 264.179C831.553 264.179 826.179 263.718 826.266 255.459C826.266 255.459 821.303 253.564 818.088 256.004C814.871 258.443 820.987 264.146 816.994 266.543C816.994 266.543 820.5 268.517 831.553 264.179Z" fill="#8E2F33"/>
<path d="M808.024 243.868C807.975 243.315 807.584 242.887 807.152 242.915C806.72 242.943 806.408 243.412 806.457 243.965C806.508 244.518 806.897 244.944 807.331 244.918C807.763 244.89 808.075 244.421 808.024 243.868Z" fill="#1D2A30"/>
<path d="M807.572 244.869L804.078 248.726C804.078 248.726 805.595 249.83 807.922 249.307L807.572 244.869Z" fill="#BB2024"/>
<path d="M830.907 243.004C830.506 249.998 830.516 252.972 826.348 256.606C819.948 260.33 809.865 260.135 807.757 253.174C805.86 246.911 806.834 236.549 814.989 233.637C820.802 231.563 827.527 233.819 830.009 238.676C830.706 240.041 831.015 241.522 830.907 243.004Z" fill="#8E2F33"/>
<path d="M809.263 242.231L808.904 242.167C808.179 241.604 807.172 241.369 806.202 241.535C805.997 241.583 805.787 241.483 805.728 241.314C805.673 241.141 805.789 240.963 805.993 240.91C807.215 240.685 808.49 240.969 809.415 241.67L809.483 242.114L809.47 242.128L809.264 242.231" fill="#1D2A30"/>
<path d="M807.313 242.941L805.489 242.72C805.489 242.72 806.579 243.76 807.313 242.941Z" fill="#1D2A30"/>
<path d="M817.948 261.685C817.844 261.333 817.732 260.982 817.626 260.63C817.734 260.982 817.846 261.333 817.952 261.684C817.951 261.684 817.951 261.684 817.948 261.685" fill="#CECDCC"/>
<path d="M817.952 261.684C817.846 261.333 817.734 260.982 817.626 260.63C817.461 260.079 817.308 259.536 817.216 259.013C817.261 259.014 817.308 259.014 817.351 259.014C818.897 259.014 820.488 258.796 822.026 258.382C822.159 258.348 822.293 258.31 822.426 258.271C821.868 259.037 820.484 260.625 817.952 261.683" fill="#702629"/>
<path d="M817.351 259.014C817.308 259.014 817.261 259.014 817.216 259.013C817.216 259.009 817.216 259.007 817.214 259.002C817.263 259.002 817.31 259.003 817.36 259.003C818.901 259.003 820.49 258.793 822.026 258.383C820.488 258.797 818.897 259.015 817.352 259.015" fill="#702629"/>
<path d="M835.624 265.319C835.624 265.319 835.624 259.767 827.87 260.809C820.115 261.849 814.299 264.973 814.022 268.212L835.624 265.319Z" fill="#4870C0"/>
<path d="M814.229 267.345C815.358 264.43 820.81 261.756 827.87 260.809C828.534 260.719 829.143 260.678 829.699 260.678C834.124 260.678 835.243 263.267 835.528 264.578C826.305 264.584 820.162 265.631 814.229 267.345Z" fill="#4168BB"/>
<path d="M840.336 264.709C840.336 264.709 850.729 264.973 850.729 271.913C850.729 278.853 844.763 281.744 844.763 281.744L840.336 264.709Z" fill="#4870C0"/>
<path d="M846.851 280.293C847.62 272.671 847.601 265.575 840.336 264.709C840.336 264.709 850.729 264.973 850.729 271.913C850.729 276.087 848.571 278.796 846.851 280.293Z" fill="#4168BB"/>
<path d="M852.24 312.164C852.24 312.164 847.047 303.663 846.01 293.427C844.971 283.191 852.446 264.973 839.154 264.625C825.861 264.279 818.593 265.841 810.699 268.443C802.808 271.045 804.469 288.917 805.715 295.682C806.962 302.448 810.699 319.626 810.699 319.626C810.699 319.626 833.338 322.054 852.24 312.164Z" fill="#4870C0"/>
<path d="M805.078 291.254C804.684 287.688 804.465 283.274 804.894 279.257L813.904 278.328C813.904 278.328 810.434 286.367 805.078 291.254Z" fill="#4168BB"/>
<path d="M797.615 277.119L787.646 285.012L768.538 281.325V277.932C768.538 277.07 767.462 276.5 766.527 276.866C766.527 276.866 765.233 277.142 764.816 277.094C763.198 276.914 760.038 273.929 760.038 273.929C759.643 273.649 759.099 273.572 758.614 273.728L754.568 276.881C753.961 277.224 753.625 277.757 753.781 278.328L758.123 283.542C758.282 283.996 759.146 284.603 759.712 284.656L765.629 285.619C765.629 285.619 782.869 294.468 789.099 293.254C795.331 292.039 804.664 284.753 804.664 284.753L797.615 277.119Z" fill="#8E2F33"/>
<path d="M810.699 268.443C810.699 268.443 804.469 269.948 795.468 276.54C795.468 276.54 795.814 281.745 803.725 287.466C803.725 287.466 812.223 283.017 814.853 276.423C817.485 269.831 810.699 268.443 810.699 268.443Z" fill="#4870C0"/>
<path d="M813.905 232.868C813.905 232.868 808.054 235.124 809.562 238.68C811.07 242.237 812.005 245.274 810.862 246.401C809.721 247.528 813.667 247.852 813.459 243.916C813.459 243.916 813.983 248.851 816.994 249.448C820.003 250.045 822.055 257.39 819.533 260.875C817.011 264.358 816.436 272.525 818.93 274.335C821.425 276.143 826.178 277.972 825.61 281.188C825.042 284.405 831.321 282.233 830.076 278.328C830.076 278.328 833.503 282.749 837.657 278.759C841.811 274.769 835.165 271.126 835.165 271.126C835.165 271.126 840.21 272.427 840.336 274.681C840.46 276.937 842.121 278.065 844.095 275.549C846.069 273.034 844.818 270.08 842.85 268.443C842.85 268.443 846.195 267.976 846.595 269.926C846.996 271.877 850.845 268.617 847.522 266.054C844.199 263.492 838.384 262.191 838.488 252.299C838.592 242.41 836.306 233.996 827.271 232.261C818.237 230.527 813.905 232.868 813.905 232.868Z" fill="#1D2A30"/>
<path d="M816.018 245.378C814.747 246.337 813.987 247.679 813.906 249.108C813.816 251.007 815.98 251.533 817.854 250.655C819.551 249.861 821.621 247.921 820.82 246.18C820.02 244.441 817.587 244.218 816.018 245.378Z" fill="#8E2F33"/>
<path d="M673.873 364.993L562.342 364.592L559.044 366.758L558.268 419.365L556.791 432.652L554.696 451.518L554.281 455.247L553.83 459.311L659.591 459.782L664.432 455.685L673.873 364.993Z" fill="#4870C0"/>
<path d="M549.253 455.224L660.043 455.714L669.876 367.188L559.044 366.758L549.253 455.224Z" fill="#4870C0"/>
<path d="M549.377 454.108L559.044 366.758L625.131 367.014C625.268 368.116 625.488 369.165 625.777 370.115C626.973 374.07 630.799 375.793 635.025 375.831C635.121 376.362 635.283 376.917 635.455 377.476C635.554 377.799 635.656 378.124 635.752 378.446C635.753 378.446 635.753 378.446 635.753 378.446C635.918 378.994 636.062 379.537 636.138 380.058C634.033 380.985 632.529 381.975 631.472 382.847C629.791 383.451 628.174 384.232 626.682 385.253C624.688 385.515 622.426 386.321 620.14 388.161C613.378 393.612 601.853 406.748 601.853 406.748L600.871 406.651V404.856H595.291V407.393L579.766 405.162L578.801 403.593C578.189 402.599 576.965 401.994 575.661 401.994C575.431 401.994 575.199 402.013 574.97 402.051L573.944 402.223L571.299 400.62C570.678 400.246 569.952 400.059 569.227 400.059C568.429 400.059 567.634 400.284 566.986 400.729C566.169 401.29 565.696 402.126 565.696 403.009V404.942C565.696 405.546 565.918 406.136 566.334 406.632L568.119 408.763C568.734 409.496 569.714 409.957 570.782 410.016L578.43 410.431L595.291 414.005V416.792L600.871 417.826V416.728C601.366 416.767 601.898 416.792 602.46 416.792C604.422 416.792 606.733 416.497 609.029 415.524C611.249 414.584 615.363 411.321 619.617 407.632C620.558 419.96 624.032 433.651 624.032 433.651C624.37 433.722 624.706 433.789 625.044 433.855C624.013 439.595 623.471 445.746 623.245 451.823L549.665 451.497L549.377 454.108H549.377ZM664.497 415.616C663.976 411.946 663.736 408.579 663.658 405.114C664.394 404.929 665.117 404.53 665.803 403.864L664.497 415.616ZM667.16 391.648C665.274 387.797 661.994 384.797 660.781 383.766C658.559 381.71 655.38 380.91 652.086 380.654C650.925 379.437 648.716 377.87 645.025 377.86C644.458 376.812 644.028 375.402 643.918 373.507C643.935 373.496 643.955 373.486 643.973 373.475C646.322 371.427 647.315 369.594 647.81 367.102L669.876 367.188L667.16 391.648" fill="#DBE8F7"/>
<path d="M611.21 372.159L558.506 371.926L557.029 385.212L609.733 385.446C611.938 385.456 613.891 383.971 614.095 382.129L614.829 375.512C615.034 373.67 613.413 372.169 611.21 372.159Z" fill="#4870C0"/>
<path d="M551.763 432.629L662.553 433.12L664.03 419.832L553.238 419.342L551.763 432.629Z" fill="#4870C0"/>
<path d="M549.666 451.497L548.802 459.29L659.591 459.782L660.457 451.989L549.666 451.497Z" fill="#4870C0"/>
<path d="M623.116 459.619L548.802 459.29L549.666 451.497L623.245 451.823C623.147 454.448 623.108 457.061 623.116 459.619Z" fill="#799BD7"/>
<path d="M628 472.677C628 472.677 629.261 494.279 629.844 501.473C631.431 521.077 637.525 579.809 637.525 579.809H647.972C647.972 579.809 651.973 552.847 650.828 529.679C650.356 520.103 646.896 511.599 646.13 505.066C645.354 498.476 649.816 488.078 646.742 478.582C643.848 469.63 628 472.677 628 472.677Z" fill="#F9B1BD"/>
<path d="M652.852 473.205C652.852 473.205 655.062 495.885 656.352 503.393C659.65 522.599 673.755 579.631 673.755 579.631L684.192 579.234C684.192 579.234 683.962 549.765 679.219 526.388C677.638 518.597 675.109 511.876 674.103 506.33C672.846 499.413 675.49 487.758 671.901 478.386C668.517 469.557 652.852 473.205 652.852 473.205Z" fill="#F9B1BD"/>
<path d="M663.619 428.431C663.619 428.431 682.055 442.752 681.409 489.495C681.409 489.495 656.15 498.952 625.327 491.927C625.327 491.927 620.35 457.611 625.327 432.349L663.619 428.431Z" fill="#1D2A30"/>
<path d="M625.903 362.246C625.853 361.705 625.472 361.286 625.048 361.314C624.624 361.342 624.321 361.802 624.369 362.343C624.418 362.883 624.801 363.301 625.223 363.273C625.647 363.249 625.952 362.788 625.903 362.246Z" fill="#1D2A30"/>
<path d="M625.205 361.341L623.42 361.122C623.42 361.122 624.488 362.141 625.205 361.341Z" fill="#1D2A30"/>
<path d="M649.068 380.889C649.068 380.889 643.808 380.436 643.893 372.352C643.893 372.352 639.036 370.497 635.887 372.886C632.739 375.274 638.725 380.856 634.815 383.204C634.815 383.204 638.248 385.135 649.068 380.889Z" fill="#F9B1BD"/>
<path d="M625.853 363.011L622.432 366.786C622.432 366.786 623.917 367.867 626.195 367.355L625.853 363.011Z" fill="#F5782F"/>
<path d="M648.437 360.159C648.045 367.007 648.054 369.918 643.973 373.475C637.708 377.12 627.839 376.93 625.777 370.115C623.919 363.985 624.873 353.841 632.855 350.991C638.545 348.962 645.128 351.169 647.558 355.923C648.241 357.259 648.542 358.709 648.437 360.159Z" fill="#F9B1BD"/>
<path d="M627.381 360.645L627.028 360.581C626.317 360.031 625.333 359.8 624.384 359.964C624.184 360.008 623.978 359.913 623.919 359.746C623.866 359.577 623.98 359.403 624.18 359.35C625.374 359.131 626.621 359.408 627.529 360.095L627.593 360.53L627.582 360.541L627.381 360.645" fill="#1D2A30"/>
<path d="M635.752 378.446C635.656 378.124 635.554 377.799 635.455 377.476C635.556 377.799 635.658 378.122 635.754 378.446C635.754 378.446 635.754 378.446 635.752 378.446" fill="#ADB7D0"/>
<path d="M635.754 378.446C635.658 378.123 635.556 377.799 635.455 377.476C635.286 376.917 635.129 376.362 635.035 375.831C635.08 375.832 635.123 375.832 635.169 375.832C636.652 375.832 638.181 375.625 639.66 375.236C639.819 375.195 639.977 375.151 640.134 375.105C639.59 375.855 638.233 377.408 635.754 378.445" fill="#DD9092"/>
<path d="M635.169 375.832C635.123 375.832 635.08 375.832 635.035 375.831C635.035 375.827 635.034 375.822 635.034 375.82C635.081 375.82 635.128 375.82 635.175 375.82C636.658 375.82 638.184 375.623 639.661 375.237C638.182 375.626 636.652 375.833 635.169 375.833" fill="#DD9092"/>
<path d="M653.137 382.06C653.137 382.06 650.101 375.942 640.701 378.475C631.3 381.008 629.208 385.392 629.208 385.392L653.137 382.06Z" fill="#4870C0"/>
<path d="M631.472 382.848C633.175 381.442 636.041 379.73 640.701 378.475C642.314 378.041 643.738 377.86 644.993 377.86C648.703 377.86 650.922 379.433 652.087 380.654C651.138 380.58 650.179 380.552 649.233 380.552C647.414 380.552 645.637 380.657 644.04 380.746C640.067 380.967 635.581 381.373 631.472 382.847" fill="#395EB4"/>
<path d="M660.31 383.379C660.31 383.379 672.473 392.767 667.237 401.954C662.003 411.139 653.137 398.171 653.137 398.171L660.31 383.379Z" fill="#4870C0"/>
<path d="M663.658 405.114C663.574 401.287 663.684 397.336 663.831 392.718C663.969 388.409 662.755 385.592 660.781 383.766C662.529 385.248 668.553 390.813 668.545 397.116C668.545 398.699 668.162 400.33 667.237 401.954C666.163 403.839 664.933 404.793 663.658 405.114Z" fill="#395EB4"/>
<path d="M637.315 578.873L649.027 579.116C649.469 579.126 649.844 579.388 649.93 579.751L651.812 587.754C651.982 588.461 651.436 589.153 650.588 589.298L650.256 589.326C646.037 589.176 642.288 588.906 637.032 588.803C630.828 588.676 632.384 589.329 625.089 589.263C620.694 589.222 620.014 585.032 621.882 584.866C630.435 584.146 631.386 582.015 634.75 579.533C635.479 579.059 636.392 578.822 637.315 578.873Z" fill="#1D2A30"/>
<path d="M673.773 578.77L685.488 578.854C685.93 578.855 686.309 579.115 686.402 579.475L688.438 587.45C688.627 588.157 688.093 588.855 687.246 589.012L686.916 589.044C682.693 588.952 678.94 588.731 673.683 588.702C667.478 588.658 669.046 589.29 661.751 589.326C657.356 589.342 656.594 585.164 658.46 584.969C666.997 584.135 667.905 581.99 671.22 579.463C671.941 578.978 672.848 578.732 673.773 578.77Z" fill="#1D2A30"/>
<path d="M667.237 428.769C667.237 428.769 650.368 439.131 624.033 433.651C624.033 433.651 615.745 400.99 621.305 391.134C626.26 382.349 636.16 381.186 644.04 380.746C651.922 380.306 664.252 379.493 663.831 392.718C663.411 405.939 663.283 413.682 667.237 428.769Z" fill="#4870C0"/>
<path d="M620.419 414.912C620.085 412.508 619.804 410.044 619.62 407.633C623.029 404.676 626.527 401.447 629.208 398.922H629.209L620.418 414.912" fill="#395EB4"/>
<path d="M602.327 408.404L579.766 405.162L578.802 403.593C578.081 402.423 576.516 401.793 574.97 402.051L573.945 402.223L571.299 400.62C569.999 399.835 568.228 399.879 566.986 400.729C566.169 401.29 565.696 402.126 565.696 403.009V404.942C565.696 405.546 565.918 406.136 566.334 406.632L568.12 408.763C568.734 409.496 569.714 409.957 570.783 410.016L578.431 410.431L602.327 415.496V408.404Z" fill="#F9B1BD"/>
<path d="M633.474 386.326C633.474 386.326 626.904 382.713 620.14 388.162C613.378 393.612 601.853 406.748 601.853 406.748L597.758 406.34L597.222 416.083C597.222 416.083 603.179 418.003 609.03 415.524C614.879 413.045 633.904 394.43 633.904 394.43C633.904 394.43 636.394 388.964 633.474 386.326Z" fill="#4870C0"/>
<path d="M600.871 404.857V410.226L599.051 410.937L600.871 411.949V417.826L595.292 416.792V404.857H600.871Z" fill="#4870C0"/>
<path d="M600.871 417.826L595.292 416.792V404.857H600.871V410.226L599.051 410.937L600.871 411.949V416.728V417.826Z" fill="#A1BCE6"/>
<path d="M650.991 494.494C650.005 471.863 657.863 463.547 657.863 463.547C654.267 477.297 655.241 489.899 655.757 494.297C654.217 494.392 652.629 494.459 650.991 494.494Z" fill="#161C1E"/>
<path d="M637.582 348.452C637.582 348.452 650.763 344.621 653.137 355.817C655.512 367.012 667.465 369.86 660.842 377.324C654.217 384.788 635.165 379.191 634.815 372.904C634.467 366.618 634.579 356.113 631.792 354.737C631.792 354.737 633.466 359.058 631.792 359.058C630.119 359.058 628.988 357.47 629.208 355.228C629.208 355.228 629.121 357.977 625.27 356.996C621.419 356.015 627.542 352.381 627.542 352.381C627.542 352.381 624.634 353.362 623.555 354.345C622.477 355.328 622.175 353.853 623.555 351.987C624.628 350.539 629.296 347.175 637.582 348.452Z" fill="#1D2A30"/>
<path d="M633.861 362.482C632.619 363.422 631.875 364.737 631.794 366.136C631.706 367.992 633.825 368.51 635.658 367.65C637.319 366.874 639.346 364.973 638.562 363.268C637.781 361.567 635.396 361.349 633.861 362.482Z" fill="#F9B1BD"/>
<path d="M317.48 405.012L328.301 403.777L329.134 401.562C329.476 400.656 330.613 400.136 331.709 400.386L332.937 400.663L337.613 398.627C337.962 398.474 338.357 398.405 338.752 398.432C339.873 398.502 340.734 399.296 340.706 400.238L340.604 403.802L340.579 404.03L340.076 406.727C339.934 407.486 339.223 408.082 338.314 408.202L331.55 409.093L319.118 411.296L317.48 405.012" fill="#F8A461"/>
<path d="M325.053 402.514C325.053 402.514 316.657 403.099 308.259 402.514C305.303 402.307 302.714 400.484 300.366 397.949L291.007 409.378C293.674 411.578 296.267 413.201 298.584 413.814C310.364 416.932 326.917 411.281 326.917 411.281C329.016 405.826 325.053 402.514 325.053 402.514Z" fill="#1D2A30"/>
<path d="M305.816 364.297L295.385 459.05L402.896 459.399L406.235 457.119L416.738 364.725L305.816 364.297Z" fill="#4870C0"/>
<path d="M292.533 454.975L403.34 455.324L413.011 366.797L302.204 366.448L292.533 454.975Z" fill="#4870C0"/>
<path d="M403.747 451.597L299.932 451.27L299.262 447.011C305.702 446.807 313.084 446.248 321.308 445.111C321.308 445.111 320.842 440.037 320.669 432.46L405.809 432.728L406.257 428.616L403.747 451.597Z" fill="#DBE8F7"/>
<path d="M407.26 419.442L320.736 419.168C320.85 415.834 321.05 412.353 321.367 408.837C321.367 408.838 321.367 408.838 321.368 408.838L321.37 408.839C321.371 408.808 321.374 408.777 321.377 408.746L379.246 408.928C379.252 408.928 379.258 408.928 379.264 408.928C381.462 408.928 383.402 407.441 383.602 405.604L384.325 398.989C384.335 398.889 384.341 398.789 384.341 398.69C384.347 396.987 382.781 395.649 380.698 395.64L323.044 395.46C323.516 391.102 323.492 387.698 322.954 385.034L410.986 385.311L407.259 419.441L407.26 419.442ZM411.493 380.683L412.438 372.023L301.631 371.674L301.816 369.987C305.2 369.871 308.312 368.775 310.237 366.472L413.009 366.796L411.493 380.683Z" fill="#DBE8F7"/>
<path d="M295.002 432.378L405.809 432.728L407.26 419.442L296.453 419.092L295.002 432.378Z" fill="#4870C0"/>
<path d="M405.809 432.728L320.669 432.46C320.579 428.572 320.567 424.027 320.736 419.168L407.26 419.442L405.809 432.728" fill="#A1BCE6"/>
<path d="M380.699 395.641L299.044 395.385L297.592 408.671L379.248 408.929C381.451 408.935 383.401 407.447 383.604 405.605L384.327 398.99C384.527 397.147 382.905 395.649 380.699 395.641Z" fill="#4870C0"/>
<path d="M379.265 408.929C379.259 408.929 379.253 408.929 379.248 408.929L321.378 408.746C321.63 405.98 321.95 403.195 322.364 400.442C322.364 400.433 322.366 400.422 322.369 400.414C322.373 400.383 322.379 400.35 322.382 400.317C322.386 400.291 322.389 400.266 322.394 400.24C322.395 400.225 322.398 400.21 322.4 400.197C322.406 400.164 322.41 400.133 322.415 400.1C322.417 400.082 322.421 400.066 322.423 400.048C322.427 400.021 322.43 399.993 322.435 399.967C322.439 399.943 322.442 399.916 322.446 399.89C322.451 399.874 322.452 399.854 322.454 399.838C322.461 399.797 322.467 399.757 322.473 399.716C322.478 399.695 322.479 399.675 322.484 399.654C322.485 399.641 322.488 399.629 322.49 399.616C322.491 399.607 322.491 399.598 322.494 399.59C322.722 398.125 322.904 396.751 323.046 395.46L380.699 395.641C382.783 395.649 384.348 396.988 384.342 398.691C384.342 398.789 384.336 398.889 384.326 398.989L383.604 405.604C383.403 407.442 381.463 408.928 379.265 408.928" fill="#A1BCE6"/>
<path d="M300.181 384.962L410.988 385.312L412.439 372.024L301.632 371.675L300.181 384.962Z" fill="#4870C0"/>
<path d="M410.988 385.312L322.955 385.034C321.433 377.504 315.803 375.867 305.659 375.204C304.938 374.584 303.624 373.67 301.501 372.879L301.632 371.675L412.439 372.024L410.988 385.312" fill="#A1BCE6"/>
<path d="M292.94 451.249L292.087 459.04L402.896 459.39L403.747 451.597L292.94 451.249Z" fill="#4870C0"/>
<path d="M402.896 459.39L301.155 459.07L299.932 451.27L403.747 451.597L402.896 459.39Z" fill="#799BD7"/>
<path d="M285.549 375.698C285.549 375.698 291.476 375.186 291.382 366.075C291.382 366.075 296.856 363.985 300.403 366.677C303.95 369.368 297.204 375.66 301.611 378.305C301.611 378.305 297.742 380.48 285.549 375.698Z" fill="#F8A461"/>
<path d="M311.503 353.288C311.556 352.678 311.989 352.209 312.466 352.238C312.943 352.268 313.287 352.788 313.232 353.397C313.177 354.007 312.747 354.478 312.269 354.448C311.792 354.417 311.448 353.9 311.503 353.288Z" fill="#1D2A30"/>
<path d="M312.002 354.394L315.856 358.648C315.856 358.648 314.182 359.867 311.617 359.29L312.002 354.394Z" fill="#F5782F"/>
<path d="M286.26 352.335C286.702 360.051 286.69 363.334 291.29 367.342C298.35 371.45 309.473 371.233 311.798 363.555C313.892 356.647 312.815 345.216 303.82 342.004C297.408 339.715 289.99 342.204 287.252 347.561C286.48 349.065 286.142 350.701 286.26 352.335Z" fill="#F8A461"/>
<path d="M310.134 351.484L310.533 351.411C311.333 350.793 312.444 350.534 313.513 350.716C313.738 350.767 313.97 350.658 314.035 350.471C314.096 350.281 313.968 350.084 313.742 350.025C312.397 349.777 310.989 350.089 309.968 350.865C309.787 350.983 309.753 351.201 309.895 351.354L309.908 351.369L310.134 351.483" fill="#1D2A30"/>
<path d="M300.662 372.587C300.662 372.587 300.662 372.587 300.661 372.587C300.739 372.334 300.818 372.082 300.896 371.829C300.82 372.082 300.741 372.334 300.663 372.587" fill="#7A95D4"/>
<path d="M300.66 372.587C300.108 372.408 299.507 372.239 298.857 372.085C297.119 371.035 296.094 369.834 295.617 369.179C295.748 369.217 295.878 369.253 296.009 369.289C297.72 369.752 299.494 369.998 301.212 369.998C301.263 369.998 301.312 369.998 301.363 369.997C301.259 370.589 301.084 371.206 300.896 371.829C300.817 372.082 300.739 372.335 300.66 372.587" fill="#DE8546"/>
<path d="M301.212 369.998C299.494 369.998 297.72 369.752 296.009 369.289C297.718 369.749 299.49 369.985 301.206 369.985C301.259 369.985 301.312 369.984 301.365 369.984C301.365 369.989 301.364 369.994 301.364 369.997C301.313 369.998 301.264 369.998 301.213 369.998" fill="#DE8546"/>
<path d="M281.452 377.118C281.452 377.118 282.564 371.299 290.989 371.273C302.883 371.235 306.381 375.927 306.381 375.927L281.452 377.118Z" fill="#1D2A30"/>
<path d="M305.659 375.204C304.274 375.114 302.805 375.041 301.251 374.974C297.019 374.794 293.069 374.61 289.495 374.61C286.949 374.61 284.595 374.703 282.46 374.956C283.62 373.297 286.046 371.289 290.989 371.273C291.037 371.273 291.086 371.273 291.135 371.273C299.975 371.273 304.135 373.896 305.659 375.204" fill="#161C1E"/>
<path d="M278.828 571.059L279.881 585.769L289.75 585.469L290.314 571.354L278.828 571.059Z" fill="#F8A461"/>
<path d="M292.193 584.259C294.108 584.45 296.703 584.425 297.178 583.864C297.247 583.795 297.31 583.67 297.127 583.419C297.029 583.269 296.85 583.165 296.648 583.135L296.18 583.088C294.776 583.264 293.423 583.661 292.193 584.26L292.193 584.259ZM291.406 584.537L291.207 584.369L291.323 584.156C291.48 584.079 295.061 582.353 296.781 582.74C297.103 582.809 297.378 582.978 297.553 583.214C297.785 583.475 297.795 583.829 297.577 584.099C297.154 584.559 295.835 584.761 294.554 584.766C293.498 584.766 292.445 584.688 291.406 584.537" fill="#4870C0"/>
<path d="M293.939 581.042C293.631 581.04 293.332 581.131 293.099 581.3C292.335 582.045 291.863 582.967 291.748 583.941C293.02 583.307 294.631 581.841 294.566 581.26C294.546 581.206 294.517 581.06 294.079 581.031L293.939 581.042ZM291.276 584.524L291.166 584.342C291.178 584.231 291.439 581.913 292.745 581.008C293.12 580.74 293.609 580.612 294.1 580.653C294.772 580.709 294.984 580.991 295.01 581.224C295.234 582.189 292.773 584.064 291.545 584.524L291.443 584.534L291.276 584.524" fill="#4870C0"/>
<path d="M290.347 583.336L279.115 583.382C278.691 583.383 278.326 583.63 278.235 583.976L276.248 591.618C276.067 592.294 276.576 592.964 277.387 593.117L277.703 593.148C281.751 593.073 285.351 592.874 290.392 592.859C296.341 592.837 294.835 593.436 301.831 593.493C306.043 593.521 306.792 589.518 305.004 589.328C296.822 588.501 295.96 586.442 292.79 584.008C292.103 583.541 291.233 583.303 290.347 583.336Z" fill="#1D2A30"/>
<path d="M290.023 578.66H279.372L279.192 576.115L290.119 576.22L290.092 576.934L290.021 578.66" fill="#DE8546"/>
<path d="M271.554 442.837C271.554 442.837 269.466 455.173 274.663 475.829C276.856 484.547 280.36 502.248 280.26 511.156C280.193 517.062 278.705 519.73 276.218 534.535C273.73 549.344 277.461 576.099 277.461 576.099L291.755 576.237C291.755 576.237 300.67 526.773 302.339 509.599C303.188 500.857 303.583 474.531 303.583 474.531L298.608 442.837H271.554Z" fill="#4870C0"/>
<path d="M302.986 498.054C292.352 482.617 289.157 463.776 289.157 463.776L296.145 465.211L303.455 473.717L303.583 474.531C303.583 474.533 303.583 474.533 303.583 474.533V474.535C303.583 474.536 303.583 474.538 303.583 474.539V474.541V474.542C303.583 474.547 303.583 474.555 303.583 474.563C303.583 474.566 303.583 474.566 303.583 474.567V474.568C303.571 475.338 303.378 487.675 302.986 498.053" fill="#4168BB"/>
<path d="M321.211 571.382L322.997 586.043L332.842 585.398L332.701 571.279L321.211 571.382" fill="#F8A461"/>
<path d="M335.223 584.105C337.145 584.228 339.738 584.114 340.184 583.536C340.248 583.464 340.306 583.339 340.111 583.093C340.003 582.947 339.822 582.847 339.618 582.827L339.149 582.795C337.752 583.021 336.421 583.464 335.223 584.105L335.223 584.105ZM334.449 584.409L334.243 584.25L334.349 584.033C334.504 583.949 337.992 582.098 339.732 582.429C340.056 582.484 340.341 582.643 340.523 582.873C340.769 583.126 340.796 583.48 340.592 583.758C340.196 584.233 338.886 584.479 337.607 584.53C336.552 584.566 335.496 584.525 334.449 584.409" fill="#4870C0"/>
<path d="M336.806 580.829C336.497 580.839 336.205 580.94 335.981 581.118C335.254 581.887 334.83 582.825 334.761 583.802C336 583.123 337.538 581.605 337.444 581.024C337.422 580.973 337.385 580.827 336.945 580.812L336.806 580.829ZM334.319 584.402L334.199 584.222C334.207 584.113 334.353 581.787 335.612 580.837C335.973 580.557 336.456 580.412 336.947 580.437C337.621 580.466 337.847 580.742 337.886 580.973C338.157 581.931 335.792 583.888 334.588 584.392L334.486 584.403L334.319 584.402" fill="#4870C0"/>
<path d="M333.331 583.247L322.111 583.683C321.689 583.7 321.335 583.959 321.263 584.307L319.66 592.011C319.513 592.694 320.055 593.348 320.872 593.471L321.188 593.491C325.23 593.275 328.818 592.95 333.854 592.759C339.795 592.53 338.322 593.183 345.312 592.994C349.524 592.876 350.072 588.85 348.275 588.721C340.06 588.18 339.096 586.153 335.808 583.833C335.097 583.39 334.215 583.182 333.331 583.247" fill="#1D2A30"/>
<path d="M322.091 578.615L321.211 571.382L322.091 578.615ZM332.768 578.084L332.701 571.279L332.77 578.084H332.768" fill="#C5C4C2"/>
<path d="M322.091 578.615L321.211 571.382L332.701 571.279L332.768 578.084L322.091 578.615" fill="#DE8546"/>
<path d="M286.79 442.837C286.79 442.837 284.665 461.542 296.145 478.946C307.626 496.351 308.758 501.467 309.585 509.599C310.376 517.376 310.423 519.99 311.668 536.094C312.912 552.202 319.915 576.237 319.915 576.237L334.679 575.449C334.679 575.449 334.704 524.501 332.192 506.48C329.953 490.414 318.199 442.837 318.199 442.837H286.79Z" fill="#4870C0"/>
<path d="M281.452 375.095C281.452 375.095 262.769 377.118 260.435 386.079C258.104 395.042 263.493 412.187 270.945 414.328C278.394 416.472 281.452 375.095 281.452 375.095Z" fill="#1D2A30"/>
<path d="M268.918 413.353C266.675 411.831 264.701 408.988 263.171 405.598C266.021 387.034 270.56 381.935 270.668 381.817C270.012 383.313 269.625 385.105 269.533 387.249C269.122 396.663 268.951 405.526 268.918 413.353Z" fill="#16191B"/>
<path d="M269.533 445.111C269.533 445.111 288.89 449.593 321.308 445.111C321.308 445.111 319.114 421.238 322.474 399.717C325.972 377.312 319.442 375.754 301.251 374.974C283.059 374.197 270.136 373.376 269.533 387.249C268.132 419.394 269.533 445.111 269.533 445.111Z" fill="#1D2A30"/>
<path d="M321.37 408.841L321.369 408.839C321.368 408.839 321.368 408.839 321.368 408.838C321.372 408.808 321.373 408.777 321.375 408.747H321.379C321.375 408.779 321.373 408.81 321.372 408.841" fill="#7B869B"/>
<path d="M321.378 408.747H321.374C321.625 405.979 321.949 403.195 322.364 400.442C321.949 403.195 321.629 405.98 321.378 408.747H321.378ZM322.368 400.414C322.372 400.381 322.378 400.35 322.381 400.317C322.377 400.35 322.371 400.383 322.368 400.414ZM322.393 400.24C322.395 400.227 322.398 400.21 322.399 400.197C322.398 400.21 322.395 400.225 322.393 400.24ZM322.415 400.1C322.416 400.084 322.421 400.064 322.422 400.048C322.421 400.066 322.416 400.082 322.415 400.1ZM322.434 399.968C322.439 399.941 322.442 399.917 322.446 399.89C322.442 399.917 322.439 399.943 322.434 399.968ZM322.454 399.838C322.461 399.797 322.467 399.758 322.474 399.716C322.478 399.697 322.479 399.674 322.484 399.654C322.479 399.675 322.478 399.695 322.474 399.716C322.468 399.757 322.462 399.797 322.454 399.838ZM322.489 399.616C322.491 399.607 322.491 399.6 322.494 399.59C322.492 399.599 322.492 399.608 322.489 399.616Z" fill="#546CA1"/>
<path d="M321.367 408.837C315.441 400.552 314.051 387.886 314.051 387.886L316.877 379.066L323.234 386.97C323.562 390.191 323.313 394.302 322.494 399.59C322.492 399.6 322.492 399.607 322.49 399.616C322.488 399.63 322.485 399.641 322.484 399.654C322.479 399.674 322.478 399.697 322.473 399.717C322.467 399.757 322.462 399.797 322.454 399.838C322.452 399.856 322.449 399.872 322.446 399.891C322.442 399.917 322.439 399.941 322.435 399.968C322.43 399.994 322.427 400.022 322.423 400.048C322.421 400.064 322.417 400.084 322.415 400.101C322.41 400.133 322.405 400.165 322.4 400.197C322.398 400.211 322.395 400.227 322.394 400.24C322.389 400.265 322.386 400.291 322.382 400.317C322.378 400.35 322.372 400.381 322.369 400.414C322.367 400.424 322.364 400.432 322.364 400.442C321.95 403.195 321.626 405.979 321.374 408.747C321.373 408.776 321.37 408.808 321.367 408.837" fill="#16191B"/>
<path d="M360.381 406.5L371.203 405.265L372.036 403.052C372.378 402.146 373.513 401.626 374.609 401.876L375.836 402.154L380.512 400.115C380.864 399.964 381.259 399.897 381.652 399.92C382.775 399.992 383.635 400.786 383.608 401.728L383.506 405.291L383.48 405.519L382.977 408.217C382.836 408.976 382.125 409.572 381.216 409.69L374.452 410.581L362.02 412.786L360.382 406.5" fill="#F8A461"/>
<path d="M312.216 375.927C312.216 375.927 325.738 375.927 332.037 383.546C337.293 389.905 342.764 403.419 351.16 404.003C359.557 404.587 367.953 404.003 367.953 404.003C367.953 404.003 371.918 407.316 369.818 412.769C369.818 412.769 353.266 418.421 341.484 415.302C329.704 412.187 310.814 383.158 310.814 383.158L312.216 375.927Z" fill="#1D2A30"/>
<path d="M302.106 356.499C302.106 356.499 304.321 352.212 303.74 347.925C303.74 347.925 312.423 350.653 313.736 347.244C315.05 343.835 310.851 342.959 310.851 342.959C310.851 342.959 315.166 342.472 312.707 340.035C310.301 337.653 305.837 338.477 305.837 338.477C305.837 338.477 310.26 336.139 306.884 334.774C303.504 333.41 298.492 337.601 298.492 337.601C298.492 337.601 301.381 333.704 298.013 333.022C294.642 332.339 290.561 339.596 290.561 339.596C290.561 339.596 281.672 340.327 281.452 342.959C281.232 345.587 284.371 345.587 284.371 345.587C284.371 345.587 278.549 346.368 279.482 348.9C280.417 351.433 282.982 349.941 282.982 349.941C282.982 349.941 279.253 352.647 280.533 355.134C281.452 356.919 283.098 356.008 283.098 356.008C283.098 356.008 282.049 359.537 283.797 361.232C285.547 362.927 286.237 359.908 286.237 359.908C286.237 359.908 286.29 363.585 289.3 365.303C289.3 365.303 292.077 363.024 297.675 364.582L302.106 356.499Z" fill="#1D2A30"/>
<path d="M302.685 354.953C304.087 356.013 304.926 357.495 305.014 359.071C305.114 361.163 302.726 361.746 300.66 360.778C298.788 359.902 296.504 357.759 297.388 355.841C298.27 353.922 300.955 353.675 302.685 354.953Z" fill="#F8A461"/>
<path d="M99.7351 520.556H177.909L173.065 566.811H94.8911L99.7351 520.556ZM178.399 515.88H100.225L105.069 469.626H183.244L178.399 515.88ZM183.733 464.95H105.559L110.404 418.694H188.577L183.733 464.95ZM189.067 414.018H110.893L115.737 367.764H193.912L189.067 414.018ZM194.401 363.088H116.227L121.071 316.833H199.245L194.401 363.088ZM199.734 312.158H121.562L126.406 265.902H204.579L199.734 312.158ZM206.563 246.975L205.07 261.226H126.895L128.389 246.975H122.791L87.3114 585.737H92.9088L94.4009 571.487H172.576L171.083 585.737H176.68L212.16 246.975H206.563Z" fill="#1D2A30"/>
<path d="M176.68 585.737H171.083L172.576 571.487H94.4009L92.9088 585.737H87.3114L122.791 246.975H128.389L126.895 261.226H133.588C133.403 262.814 133.201 264.373 132.983 265.902H126.406L121.562 312.158H124.502C124.42 313.613 124.365 315.168 124.344 316.833H121.071L116.227 363.088H127.248C127.229 364.765 127.166 366.341 127.048 367.764H115.737L110.893 414.018H114.467C114.247 415.501 114.035 417.058 113.829 418.694H110.404L105.696 463.637L105.653 464.048L105.559 464.95H183.733L188.577 418.694H166.487C166.784 417.153 167.083 415.593 167.38 414.018H189.067L193.912 367.764H174.122C174.178 366.29 174.225 364.724 174.264 363.088H194.401L199.245 316.833H174.037C174.003 315.195 173.968 313.633 173.934 312.158H199.734L204.579 265.902H180.39C180.521 264.279 180.631 262.712 180.715 261.226H205.07L206.146 250.949L211.742 250.958L189.468 463.638L189.425 464.048L181.762 537.218L181.719 537.628L180.303 551.147L180.26 551.557L176.68 585.738L176.68 585.737ZM94.891 566.812H173.065L177.909 520.556H99.7351L97.9899 537.218L97.9469 537.628L94.8911 566.812H94.891ZM100.225 515.88H178.399L183.244 469.626H105.069L100.225 515.88ZM145.522 418.694H134.403C134.905 417.155 135.413 415.595 135.923 414.018H145.868C145.733 415.508 145.616 417.063 145.522 418.694ZM150.775 367.764H148.7C148.929 366.273 149.157 364.704 149.384 363.088H149.636C150.064 364.693 150.452 366.25 150.775 367.764Z" fill="#5D6C72"/>
<path d="M150.844 244.941L163.504 251.108L185.482 243.01L185.737 238.515C185.801 237.383 186.916 236.492 188.273 236.488L190.428 236.484L192.712 234.74C193.869 233.857 195.697 234.047 196.556 235.142L197.86 236.797C198.185 237.207 198.328 237.699 198.265 238.188L197.58 243.637C197.479 244.444 196.835 245.131 195.924 245.412L189.997 247.226C189.997 247.226 171.753 258.074 165.069 259.318C158.384 260.56 145.162 254.716 145.162 254.716L150.844 244.941Z" fill="#F46E75"/>
<path d="M316.608 155.464L215.45 155.866C210.008 155.858 204.312 158.934 203.827 163.489L196.823 247.994L302.823 251.121L306.424 248.874L316.608 155.464Z" fill="#4870C0"/>
<path d="M302.822 251.074L311.338 171.08L206.337 170.945L197.821 250.939L302.822 251.074Z" fill="#4870C0"/>
<path d="M302.823 251.074L211.742 250.957L206.147 250.949L201.405 250.943L208.224 186.901C208.545 183.887 211.72 181.449 215.32 181.449C215.325 181.449 215.328 181.449 215.331 181.449L310.221 181.57L302.823 251.074H302.823ZM231.097 216.77C231.097 218.473 232.665 219.812 234.748 219.815L306.14 219.907L307.556 206.608L236.164 206.516C236.163 206.516 236.158 206.516 236.157 206.516C233.957 206.516 232.015 208.007 231.818 209.85L231.115 216.471C231.104 216.571 231.098 216.671 231.098 216.77H231.097ZM311.205 172.327L311.339 171.08L311.205 172.327Z" fill="#DBE8F7"/>
<path d="M305.03 230.336L233.637 230.244C231.435 230.241 229.489 231.734 229.292 233.578L228.587 240.2C228.393 242.042 230.019 243.54 232.221 243.542L303.614 243.635L305.03 230.336" fill="#4870C0"/>
<path d="M307.556 206.608L236.164 206.516C233.961 206.512 232.016 208.006 231.818 209.85L231.115 216.471C230.918 218.314 232.545 219.812 234.748 219.815L306.14 219.907L307.556 206.608Z" fill="#4870C0"/>
<path d="M306.14 219.907L234.748 219.815C232.664 219.811 231.097 218.473 231.097 216.77C231.097 216.671 231.103 216.571 231.115 216.471L231.818 209.85C232.014 208.007 233.957 206.516 236.157 206.516C236.158 206.516 236.162 206.516 236.164 206.516L307.555 206.608L306.139 219.907" fill="#A1BCE6"/>
<path d="M208.224 186.901C208.545 183.885 211.726 181.444 215.33 181.449L310.221 181.57L312.688 158.403L211.805 158.273C206.363 158.265 201.559 161.952 201.074 166.506L192.086 250.931L201.405 250.944L208.224 186.901" fill="#4870C0"/>
<path d="M201.405 250.943L208.224 186.901C208.545 183.887 211.72 181.449 215.32 181.449C215.325 181.449 215.328 181.449 215.331 181.449L310.221 181.57L215.331 181.449C215.329 181.449 215.325 181.449 215.32 181.449C211.72 181.449 208.545 183.887 208.224 186.901L201.405 250.944" fill="#E6F0FA"/>
<path d="M201.405 250.944L192.086 250.931L201.074 166.506C201.559 161.956 206.353 158.273 211.789 158.273C211.795 158.273 211.801 158.273 211.805 158.273L312.688 158.403L310.221 181.57L215.33 181.449C215.329 181.449 215.324 181.449 215.32 181.449C211.72 181.449 208.544 183.887 208.224 186.9L201.405 250.944L201.405 250.944ZM259.887 169.935C259.887 172.67 262.403 174.817 265.748 174.822C265.749 174.822 265.754 174.822 265.755 174.822C269.288 174.822 272.407 172.428 272.723 169.47C272.739 169.308 272.749 169.149 272.749 168.99C272.749 166.255 270.233 164.107 266.888 164.102C266.884 164.102 266.882 164.102 266.878 164.102C263.347 164.102 260.226 166.496 259.914 169.454C259.896 169.616 259.886 169.776 259.886 169.935H259.887ZM212.304 169.872C212.304 172.609 214.82 174.757 218.165 174.761C218.169 174.761 218.171 174.761 218.175 174.761C221.708 174.761 224.825 172.366 225.141 169.41C225.157 169.247 225.167 169.088 225.167 168.929C225.167 166.194 222.651 164.046 219.306 164.042C219.302 164.042 219.299 164.042 219.294 164.042C215.763 164.042 212.646 166.435 212.332 169.393C212.314 169.554 212.305 169.715 212.305 169.872" fill="#799BD7"/>
<path d="M272.724 169.47C272.408 172.43 269.285 174.827 265.748 174.822C262.211 174.817 259.599 172.414 259.915 169.454C260.229 166.494 263.352 164.099 266.889 164.102C270.426 164.107 273.038 166.511 272.724 169.47Z" fill="#4870C0"/>
<path d="M265.756 174.822C265.754 174.822 265.75 174.822 265.749 174.822C262.404 174.817 259.888 172.67 259.888 169.935C259.888 169.776 259.898 169.616 259.916 169.454C260.228 166.496 263.349 164.102 266.88 164.102C266.884 164.102 266.886 164.102 266.89 164.102C270.235 164.107 272.751 166.255 272.751 168.99C272.751 169.149 272.74 169.308 272.725 169.47C272.409 172.429 269.29 174.822 265.757 174.822" fill="#A1BCE6"/>
<path d="M248.932 169.439C248.618 172.401 245.493 174.796 241.956 174.791C238.419 174.787 235.809 172.384 236.123 169.423C236.437 166.463 239.56 164.066 243.099 164.071C246.634 164.076 249.247 166.48 248.932 169.439Z" fill="#4870C0"/>
<path d="M225.142 169.41C224.826 172.369 221.703 174.766 218.166 174.762C214.629 174.757 212.017 172.353 212.333 169.393C212.647 166.432 215.77 164.037 219.307 164.042C222.845 164.047 225.457 166.45 225.142 169.41Z" fill="#4870C0"/>
<path d="M218.176 174.761C218.172 174.761 218.17 174.761 218.166 174.761C214.821 174.757 212.305 172.609 212.305 169.872C212.305 169.715 212.316 169.554 212.333 169.393C212.647 166.435 215.764 164.042 219.295 164.042C219.3 164.042 219.302 164.042 219.307 164.042C222.652 164.047 225.167 166.194 225.167 168.929C225.167 169.088 225.157 169.247 225.142 169.41C224.826 172.366 221.709 174.761 218.176 174.761" fill="#395EB4"/>
<path d="M222.027 171.098C221.35 170.529 220.674 169.959 219.999 169.392C220.678 168.826 221.36 168.263 222.041 167.697C222.872 167.008 221.591 165.928 220.759 166.619C220.077 167.183 219.398 167.748 218.716 168.312C218.041 167.745 217.365 167.175 216.689 166.608C215.862 165.912 214.572 166.983 215.399 167.677C216.075 168.247 216.75 168.816 217.426 169.384C216.744 169.948 216.065 170.512 215.383 171.077C214.551 171.767 215.833 172.847 216.666 172.156C217.345 171.59 218.027 171.027 218.708 170.461C219.384 171.031 220.06 171.6 220.735 172.168C221.562 172.863 222.852 171.792 222.027 171.098Z" fill="white"/>
<path d="M246.322 168.693C243.796 168.684 241.273 168.678 238.747 168.672C237.576 168.667 237.569 170.186 238.741 170.191C241.265 170.197 243.791 170.206 246.316 170.214C247.487 170.217 247.495 168.696 246.322 168.693" fill="white"/>
<path d="M263.101 172.141L266.995 172.152L263.114 168.886L263.101 172.141Z" fill="white"/>
<path d="M265.695 166.745L269.578 170.012L269.591 166.757L265.695 166.745Z" fill="white"/>
<path d="M113.588 440.253L112.099 454.935L121.917 455.824L124.903 441.925L113.588 440.253Z" fill="#F46E75"/>
<path d="M124.467 455.651C126.33 456.069 128.904 456.358 129.468 455.859C129.549 455.798 129.632 455.685 129.495 455.412C129.422 455.251 129.265 455.127 129.069 455.073L128.616 454.971C127.194 454.977 125.787 455.207 124.467 455.651V455.651ZM123.639 455.83L123.473 455.642L123.624 455.446C123.794 455.39 127.634 454.11 129.27 454.699C129.576 454.804 129.819 455.005 129.951 455.26C130.136 455.547 130.084 455.898 129.822 456.139C129.325 456.545 127.984 456.584 126.717 456.438C125.671 456.31 124.643 456.106 123.639 455.83Z" fill="#4870C0"/>
<path d="M126.749 452.678C126.444 452.637 126.132 452.693 125.872 452.832C124.989 453.477 124.363 454.331 124.08 455.283C125.448 454.807 127.296 453.552 127.331 452.966C127.322 452.912 127.317 452.763 126.888 452.681L126.749 452.678ZM123.514 455.803L123.436 455.61C123.468 455.503 124.126 453.239 125.573 452.499C125.99 452.28 126.496 452.212 126.974 452.314C127.63 452.447 127.79 452.752 127.777 452.985C127.833 453.969 125.075 455.528 123.78 455.834L123.678 455.83L123.514 455.803" fill="#4870C0"/>
<path d="M122.8 454.517L111.675 453.214C111.256 453.164 110.853 453.363 110.703 453.695L107.423 461.019C107.125 461.667 107.514 462.392 108.29 462.641L108.598 462.71C112.618 463.12 116.214 463.355 121.206 463.945C127.098 464.638 125.503 465.051 132.417 465.944C136.582 466.48 138.011 462.607 136.274 462.205C128.318 460.403 127.82 458.262 125.103 455.475C124.502 454.932 123.681 454.591 122.8 454.517" fill="#1D2A30"/>
<path d="M112.81 447.923H112.81L113.007 445.981H113.007L112.81 447.923Z" fill="#D6D8D8"/>
<path d="M123.335 449.224L112.81 447.923L113.007 445.981L123.756 447.264L123.335 449.224Z" fill="#EF6063"/>
<path d="M169.384 208.061C169.384 208.061 177.328 204.944 176.563 207.576C175.798 210.206 169.984 211.374 168.343 210.401C166.701 209.426 169.384 208.061 169.384 208.061Z" fill="#1D2A30"/>
<path d="M148.874 239.032C148.874 239.032 154.802 238.523 154.706 229.411C154.706 229.411 160.182 227.321 163.729 230.013C167.276 232.705 160.529 238.995 164.935 241.64C164.935 241.64 161.068 243.816 148.874 239.032Z" fill="#F46E75"/>
<path d="M174.829 216.625C174.883 216.015 175.315 215.544 175.792 215.574C176.27 215.603 176.612 216.122 176.558 216.732C176.502 217.342 176.072 217.813 175.595 217.784C175.117 217.754 174.775 217.234 174.829 216.625Z" fill="#1D2A30"/>
<path d="M175.328 217.73L179.183 221.984C179.183 221.984 177.509 223.203 174.943 222.625L175.328 217.73Z" fill="#F03C51"/>
<path d="M149.585 215.671C150.029 223.388 150.017 226.668 154.616 230.678C161.676 234.786 172.799 234.571 175.123 226.891C177.216 219.984 176.142 208.552 167.147 205.34C160.734 203.051 153.316 205.54 150.577 210.896C149.807 212.403 149.468 214.037 149.585 215.671Z" fill="#F46E75"/>
<path d="M173.46 214.819L173.858 214.749C174.66 214.129 175.769 213.868 176.838 214.053C177.064 214.104 177.296 213.994 177.361 213.807C177.424 213.617 177.294 213.421 177.069 213.362C175.722 213.113 174.315 213.426 173.295 214.201C173.113 214.319 173.079 214.539 173.22 214.69L173.233 214.704L173.46 214.819" fill="#1D2A30"/>
<path d="M164.097 235.571C164.097 235.57 164.096 235.57 164.095 235.57C164.147 235.406 164.197 235.244 164.247 235.081C164.198 235.244 164.147 235.408 164.097 235.572" fill="#CECDCC"/>
<path d="M164.095 235.57C163.079 234.858 161.771 234.211 160.094 233.824C159.558 233.309 159.182 232.843 158.943 232.515C160.774 233.048 162.688 233.334 164.539 233.334C164.588 233.334 164.638 233.334 164.688 233.334C164.589 233.898 164.426 234.485 164.247 235.081C164.197 235.243 164.147 235.406 164.095 235.57Z" fill="#E75656"/>
<path d="M164.539 233.334C162.688 233.334 160.774 233.048 158.943 232.515C160.771 233.047 162.678 233.321 164.525 233.321C164.58 233.321 164.636 233.321 164.691 233.319C164.69 233.324 164.689 233.329 164.688 233.334C164.638 233.334 164.588 233.334 164.539 233.334" fill="#E75656"/>
<path d="M154.572 231.842C154.572 231.842 155.217 231.194 157.811 232.146C157.811 232.146 163.86 226.474 164.935 222.381C164.935 222.381 168.119 220.889 168.343 217.495C168.568 214.102 168.684 211.861 170.317 211.082C171.95 210.302 176.416 206.893 173.133 203.386C169.851 199.88 170.084 203.971 170.084 203.971C170.084 203.971 160.43 194.717 161.817 200.854C161.817 200.854 150.881 198.752 156.438 203.776C156.438 203.776 144.079 206.406 148.161 216.148C148.161 216.148 143.884 225.629 154.572 231.842Z" fill="#1D2A30"/>
<path d="M166.011 218.289C167.413 219.349 168.25 220.83 168.341 222.407C168.441 224.499 166.052 225.081 163.987 224.113C162.114 223.237 159.831 221.096 160.713 219.177C161.595 217.257 164.282 217.009 166.011 218.289Z" fill="#F46E75"/>
<path d="M158.774 236.662C160.877 236.818 163.666 237.181 166.552 237.962C165.441 236.485 163.113 234.052 158.425 233.544C153.022 232.96 150.885 235.176 149.735 236.797C152.4 236.475 155.398 236.408 158.774 236.662Z" fill="#4870C0"/>
<path d="M166.552 237.962C166.519 237.953 166.486 237.944 166.452 237.936C166.449 237.934 166.446 237.934 166.443 237.932C166.437 237.931 166.43 237.928 166.423 237.927C166.416 237.926 166.41 237.923 166.403 237.922C166.402 237.921 166.4 237.921 166.398 237.921C165.448 237.668 164.509 237.461 163.603 237.291C161.81 236.955 160.146 236.764 158.774 236.662C158.684 236.654 158.595 236.649 158.506 236.643C157.159 236.548 155.872 236.5 154.639 236.5C152.895 236.5 151.265 236.594 149.75 236.774C150.774 235.338 152.576 233.448 156.731 233.448C157.256 233.448 157.82 233.478 158.425 233.544C163.112 234.052 165.441 236.485 166.552 237.962" fill="#A1BCE6"/>
<path d="M127.755 294.913C127.755 294.913 122.702 304.591 124.878 330.826C124.878 330.826 128.95 361.821 126.434 371.87C121.907 389.953 114.306 393.17 111.663 444.736L125.19 446.292C125.19 446.292 143.035 394.153 147.113 376.546C149.642 365.621 153.022 332.515 153.022 332.515L154.273 297.446L127.755 294.913Z" fill="#1D2A30"/>
<path d="M147.588 443.001L147.614 457.737L157.488 457.917L159.032 443.856L147.588 443.001" fill="#F46E75"/>
<path d="M160.01 456.829C161.91 457.112 164.502 457.213 165.015 456.676C165.088 456.609 165.159 456.49 164.995 456.229C164.906 456.074 164.736 455.96 164.536 455.923L164.073 455.852C162.657 455.96 161.279 456.292 160.01 456.829L160.01 456.829ZM159.204 457.065L159.019 456.891L159.15 456.684C159.313 456.615 163.006 455.065 164.697 455.535C165.012 455.619 165.277 455.801 165.433 456.044C165.647 456.317 165.632 456.671 165.395 456.93C164.943 457.37 163.61 457.506 162.333 457.45C161.278 457.398 160.232 457.268 159.204 457.065" fill="#4870C0"/>
<path d="M161.977 453.701C161.669 453.683 161.364 453.762 161.12 453.918C160.306 454.624 159.771 455.521 159.587 456.49C160.901 455.916 162.613 454.533 162.588 453.947C162.573 453.895 162.553 453.747 162.117 453.697L161.977 453.701ZM159.076 457.049L158.979 456.858C158.999 456.753 159.422 454.45 160.788 453.61C161.181 453.362 161.678 453.257 162.165 453.322C162.832 453.408 163.024 453.701 163.033 453.935C163.191 454.911 160.602 456.661 159.344 457.06L159.243 457.064L159.076 457.049" fill="#4870C0"/>
<path d="M158.232 455.818L147.015 455.318C146.592 455.298 146.21 455.528 146.096 455.867L143.581 463.401C143.352 464.067 143.815 464.763 144.613 464.953L144.926 464.998C148.974 465.12 152.581 465.095 157.614 465.325C163.555 465.593 162.01 466.119 168.989 466.513C173.194 466.747 174.219 462.786 172.448 462.51C164.336 461.288 163.62 459.189 160.625 456.607C159.97 456.106 159.119 455.826 158.232 455.818" fill="#1D2A30"/>
<path d="M158.181 451.605L158.444 449.206L158.181 451.605ZM147.603 451.459L147.599 449.219L147.603 451.459Z" fill="#D6D8D8"/>
<path d="M158.181 451.605L147.603 451.459L147.599 449.219L158.444 449.206L158.181 451.605" fill="#EF6063"/>
<path d="M148.036 371.847C140.135 352.184 142.448 327.448 142.448 327.448C142.758 341.138 146.811 352.663 149.47 362.468C148.996 365.882 148.511 369.111 148.036 371.847Z" fill="#16191B"/>
<path d="M144.314 297.446C144.314 297.446 141.982 306.8 142.448 327.448C142.915 348.101 151.902 363.824 151.767 376.155C151.571 394.117 142.387 403.821 146.179 447.851H160.64C160.64 447.851 172.087 393.303 173.701 374.987C175.369 356.038 173.586 299.007 173.586 299.007L144.314 297.446Z" fill="#1D2A30"/>
<path d="M145.36 237.627C145.36 237.627 134.868 238.318 132.535 244.357C130.204 250.396 134.219 254.698 134.219 254.698L139.883 256.047L145.36 237.627Z" fill="#4870C0"/>
<path d="M134.22 254.698H134.219C134.219 254.698 131.805 252.112 131.807 248.134C131.809 246.982 132.012 245.714 132.535 244.357C134.842 238.385 145.125 237.644 145.356 237.627C138.378 239.588 134.796 243.988 134.519 249.909C134.444 251.522 134.343 253.118 134.22 254.698Z" fill="#4168BB"/>
<path d="M158.774 236.663C165.511 237.166 179.298 239.778 180.697 251.468C182.097 263.157 175.567 304.462 175.567 304.462C175.567 304.462 149.445 305.239 125.19 299.395C125.19 299.395 133.274 276.535 134.519 249.909C134.938 240.954 142.917 235.475 158.774 236.663Z" fill="#4870C0"/>
<path d="M180.165 268.517C172.478 261.116 167.805 249.522 167.805 249.522L180.855 253.664C180.999 257.369 180.693 262.688 180.165 268.517Z" fill="#4168BB"/>
<path d="M188.472 251.362L199.665 259.261L222.988 254.455L224.168 250.065C224.467 248.959 225.749 248.242 227.085 248.434L229.208 248.741L231.82 247.353C233.142 246.649 234.901 247.1 235.524 248.303L236.467 250.121C236.699 250.572 236.738 251.077 236.577 251.55L234.776 256.818C234.509 257.597 233.733 258.183 232.778 258.327L226.564 259.261C226.564 259.261 206.353 267.314 199.51 267.574C192.669 267.834 180.855 260.171 180.855 260.171L188.472 251.362" fill="#F46E75"/>
<path d="M169.443 238.892C169.443 238.892 180.58 241.24 193.642 251.566C193.642 251.566 190.783 259.735 180.259 263.833C180.259 263.833 157.372 244.142 169.443 238.892Z" fill="#4870C0"/>
<path d="M111.118 441.551L110.73 445.708L125.423 447.462L126.832 443.763L111.118 441.551Z" fill="#1D2A30"/>
<path d="M125.423 447.462L123.756 447.264L113.007 445.981L110.73 445.708L111.118 441.551L126.832 443.763L125.423 447.462Z" fill="#5D6C72"/>
<path d="M145.449 445.072L145.931 449.221L160.873 449.203L161.729 445.146L145.449 445.072" fill="#1D2A30"/>
<path d="M145.931 449.221L145.449 445.072L161.729 445.146L160.873 449.203L158.444 449.207L147.598 449.22L145.931 449.221" fill="#5D6C72"/>
</svg>
