<svg width="14" height="17" viewBox="0 0 14 17" fill="none" xmlns="http://www.w3.org/2000/svg">
<path d="M5.04912 9.27679L4.50726 9.98103C3.89191 9.9145 3.46836 9.68541 3.19441 9.47186C3.03751 9.34954 2.92707 9.23009 2.85792 9.14468C2.85166 9.13694 2.84575 9.1295 2.84018 9.12237C2.86138 7.95877 3.11894 6.90153 3.37988 6.12072C3.51563 5.71454 3.65107 5.3868 3.75168 5.16231C3.79806 5.05882 3.83694 4.9775 3.86489 4.92081C4.33658 4.58014 4.78851 4.41137 5.12483 4.32759C5.25308 4.29564 5.36419 4.27614 5.45262 4.26425L5.59691 4.45223L5.77436 4.68339L6.06294 4.64294C6.0748 4.64128 6.08673 4.64021 6.09869 4.63975L6.12192 4.63884L6.14498 4.63579C6.68804 4.5638 7.23837 4.56618 7.78079 4.64286L8.05494 4.68161L8.23327 4.4698L8.40784 4.26245C8.49843 4.27414 8.61449 4.294 8.74954 4.32767C9.08596 4.41153 9.53789 4.58047 10.0093 4.92147C10.0372 4.97814 10.0762 5.05952 10.1227 5.16312C10.2234 5.38753 10.3589 5.71516 10.4947 6.12124C10.7557 6.9015 11.0133 7.95795 11.0347 9.1209C11.0292 9.1279 11.0233 9.13521 11.0171 9.14279C10.9472 9.22842 10.8356 9.34813 10.6774 9.47071C10.3979 9.68732 9.96534 9.91945 9.33766 9.98319L8.72914 9.29792L8.39421 8.92076C9.08518 8.90512 9.68667 8.37312 9.68667 7.65555C9.68667 6.92718 9.06692 6.39 8.36293 6.39C7.65939 6.39 7.03996 6.92747 7.03996 7.65555C7.03996 8.20042 7.39009 8.63615 7.85527 8.82272V9.22575C7.25519 9.33395 6.64007 9.32932 6.04148 9.21199L6.04091 9.21188C5.94028 9.19227 5.78672 9.15529 5.57434 9.0986L5.25235 9.01266L5.04912 9.27679ZM2.77198 9.02657L2.77233 9.02708C2.77152 9.02578 2.77112 9.02511 2.77112 9.02511L2.77118 9.02522L2.77198 9.02657ZM5.67745 4.2458H5.67743H5.67745ZM11.1052 9.0228C11.1054 9.02244 11.105 9.02311 11.104 9.02474L11.1044 9.02412L11.1052 9.0228ZM1.53111 12.7489H9.57711L9.72848 13.28H1.53111C1.25764 13.28 0.995376 13.1714 0.802005 12.978C0.608635 12.7846 0.5 12.5224 0.5 12.2489V1.53111C0.5 1.25764 0.608635 0.995376 0.802005 0.802005C0.995376 0.608635 1.25764 0.5 1.53111 0.5H12.2489C12.5224 0.5 12.7846 0.608635 12.978 0.802005C13.1714 0.995376 13.28 1.25764 13.28 1.53111V14.8678L11.1653 12.7489H12.2489H12.7489V12.2489V1.53111V1.03111H12.2489H1.53111H1.03111V1.53111V12.2489V12.7489H1.53111ZM5.41707 6.39C4.71308 6.39 4.09333 6.92718 4.09333 7.65555C4.09333 8.38685 4.72386 8.92111 5.41707 8.92111C6.11915 8.92111 6.73746 8.38588 6.74004 7.66011C6.75086 6.91965 6.11141 6.39 5.41707 6.39Z" fill="#4D4DFF" stroke="#4D4DFF"/>
</svg>
