<svg width="468" height="245" viewBox="0 0 468 245" fill="none" xmlns="http://www.w3.org/2000/svg">
<g clip-path="url(#clip0)">
<path d="M19.6552 244.493C19.6552 244.493 -13.1244 220.609 9.73248 163.514C23.2076 129.856 68.6643 135.024 66.3643 74.5687C64.0649 14.1144 105.963 -12.239 181.072 15.2004C200.101 22.1517 222.465 15.6213 246.388 9.09064C290.606 -2.98153 340.142 -15.0546 383.746 58.037C409.66 101.477 455.012 95.8484 467.086 175.29C470.385 197.004 465.436 219.737 440.982 244.493H19.6552Z" fill="#EBF3FA"/>
<path d="M237.545 74.7749C238.132 75.2055 238.701 75.7027 239.238 76.2747C240.26 77.3667 241.201 79.4515 241.303 80.8993C241.315 81.0553 241.322 81.2081 241.329 81.3608C241.645 90.6929 230.005 95.103 223.244 88.041C222.363 87.1164 221.557 85.5109 221.231 84.1232C221.16 83.7999 221.108 83.4895 221.092 83.21C221.007 81.8922 221.153 80.6702 221.496 79.5555C223.453 73.2019 231.644 70.5029 237.545 74.7749ZM217.614 100.418L221.536 97.7061C221.865 97.4835 222.301 97.451 222.661 97.6233C223.123 97.8443 223.598 98.0474 224.086 98.2342C224.991 98.5836 225.904 98.8631 226.822 99.0662C227.252 99.1621 227.576 99.4855 227.64 99.8901L228.414 104.594C228.492 105.098 228.976 105.46 229.526 105.426L234.18 105.139C234.708 105.106 235.119 104.71 235.145 104.221L235.343 99.8413C235.352 99.4156 235.671 99.0483 236.125 98.933C238.039 98.4439 239.868 97.6688 241.538 96.6385C241.941 96.3899 242.486 96.4338 242.843 96.7377L244.952 98.5365C245.356 98.8745 245.971 98.8859 246.385 98.5495L249.851 95.6847C249.921 95.6262 249.983 95.5628 250.034 95.4913C250.28 95.155 250.274 94.6967 250.003 94.362L247.834 91.6256L247.305 90.961C247.744 90.2639 248.141 89.5245 248.479 88.7576C248.935 87.7241 249.28 86.6679 249.513 85.6182C249.604 85.2184 249.943 84.9081 250.377 84.8479L254.439 84.2711C254.994 84.1882 255.393 83.7283 255.351 83.2084L255.118 79.8886L255.046 78.938C255.013 78.418 254.56 78.0037 254.007 77.9842L250.084 77.8249C249.63 77.8119 249.235 77.5308 249.113 77.1294C248.726 75.9335 248.205 74.7765 247.556 73.6894C247.509 73.5903 247.455 73.5042 247.397 73.4132C247.375 73.3823 247.361 73.3498 247.345 73.3173C247.166 72.9533 247.246 72.5276 247.538 72.2302L250.661 69.0291C250.699 68.9966 250.729 68.9543 250.757 68.917C251.025 68.5465 250.994 68.0395 250.675 67.6966L247.617 64.4695C247.247 64.0795 246.624 64.0178 246.171 64.3281L242.082 67.1571C241.739 67.4009 241.27 67.4155 240.903 67.2043C240.091 66.7477 239.229 66.3398 238.318 65.9904C237.836 65.8052 237.35 65.6394 236.86 65.4948C236.465 65.3746 236.171 65.0577 236.11 64.6742L235.364 60.1536C235.286 59.6564 234.805 59.294 234.26 59.3265L229.659 59.6158C229.102 59.6499 228.659 60.0659 228.635 60.5924L228.476 64.0567C228.455 64.5215 228.1 64.9066 227.614 65.0008C225.705 65.347 223.87 65.9726 222.165 66.8451C221.766 67.0564 221.261 67.0028 220.918 66.7087L217.826 64.0811C217.414 63.7285 216.78 63.7269 216.356 64.0697L212.91 66.9101C212.495 67.2498 212.433 67.8348 212.76 68.2394L212.885 68.4002L215.405 71.577C215.675 71.9166 215.688 72.3683 215.444 72.7258V72.7307C214.859 73.5871 214.345 74.5019 213.915 75.4753C213.685 75.9952 213.49 76.5152 213.314 77.0449C213.197 77.4138 212.864 77.6836 212.459 77.7421L208.336 78.3286C207.77 78.4083 207.366 78.8811 207.405 79.406L207.711 83.6828C207.72 83.8047 207.756 83.9217 207.802 84.0241C207.965 84.3621 208.326 84.6026 208.737 84.6204L211.87 84.7391C212.255 84.7569 212.6 84.9649 212.774 85.2737C212.819 85.3566 212.854 85.4443 212.877 85.5385C213.366 87.8232 214.34 89.9876 215.74 91.9165C215.984 92.2414 215.978 92.6688 215.757 92.9987C215.726 93.0458 215.688 93.0897 215.648 93.1336L213.115 95.7237C212.748 96.0974 212.743 96.6711 213.103 97.0562L213.173 97.1325L216.149 100.28C216.529 100.673 217.159 100.732 217.614 100.418Z" fill="#DFEBFD"/>
<path d="M267.398 37.4833C267.806 37.8795 268.187 38.3235 268.537 38.8241C269.201 39.7758 269.684 41.4934 269.593 42.629C269.586 42.751 269.573 42.8713 269.561 42.9916C268.7 50.2723 259.136 52.5011 254.72 46.3171C254.146 45.5087 253.71 44.1785 253.621 43.0659C253.602 42.8076 253.598 42.5618 253.621 42.3424C253.71 41.3094 253.968 40.3754 254.366 39.544C256.637 34.8123 263.32 33.5582 267.398 37.4833ZM248.881 55.3543L252.25 53.6509C252.53 53.5111 252.872 53.5306 253.133 53.7022C253.465 53.9197 253.81 54.1285 254.167 54.323C254.828 54.6874 255.505 54.9987 256.195 55.2517C256.519 55.3702 256.732 55.6532 256.732 55.9752L256.777 59.7093C256.777 60.109 257.111 60.4416 257.543 60.4699L261.193 60.7264C261.606 60.7547 261.972 60.4894 262.052 60.1126L262.723 56.7305C262.781 56.4015 263.072 56.1485 263.437 56.1061C264.983 55.9221 266.496 55.5082 267.916 54.8802C268.257 54.7299 268.676 54.8183 268.917 55.0907L270.34 56.7057C270.615 57.01 271.093 57.0825 271.455 56.8649L274.485 54.9952C274.547 54.9563 274.604 54.9156 274.65 54.8643C274.881 54.6291 274.932 54.2717 274.76 53.9834L273.4 51.6343L273.065 51.063C273.491 50.5677 273.886 50.0335 274.24 49.4728C274.716 48.7157 275.109 47.9321 275.414 47.1396C275.531 46.8389 275.831 46.6319 276.176 46.6319L279.401 46.6001C279.841 46.5948 280.205 46.2782 280.235 45.8696L280.445 43.2658L280.504 42.5211C280.538 42.1142 280.237 41.7445 279.807 41.672L276.779 41.1449C276.428 41.0883 276.153 40.83 276.108 40.5046C275.948 39.5352 275.679 38.5836 275.306 37.6708C275.279 37.5894 275.247 37.5169 275.213 37.4409C275.2 37.4143 275.192 37.3878 275.184 37.3613C275.09 37.0606 275.2 36.7368 275.461 36.537L278.269 34.3719C278.301 34.3489 278.33 34.3206 278.356 34.294C278.608 34.034 278.644 33.6378 278.436 33.3371L276.441 30.5157C276.202 30.1743 275.725 30.0629 275.336 30.2557L271.825 32.0334C271.529 32.1873 271.165 32.1501 270.903 31.9485C270.327 31.5098 269.705 31.1047 269.038 30.7386C268.685 30.5458 268.327 30.3671 267.965 30.2044C267.671 30.0699 267.481 29.794 267.479 29.4897L267.436 25.9007C267.432 25.5062 267.102 25.1754 266.676 25.1454L263.066 24.896C262.63 24.8641 262.235 25.1418 262.154 25.5487L261.621 28.2232C261.549 28.5823 261.229 28.8459 260.84 28.8671C259.318 28.9414 257.814 29.2386 256.389 29.7392C256.055 29.863 255.668 29.7692 255.435 29.5057L253.346 27.146C253.065 26.8294 252.574 26.7639 252.204 26.9868L249.192 28.837C248.828 29.0581 248.71 29.5057 248.917 29.8541L248.995 29.9921L250.578 32.7197C250.748 33.0116 250.705 33.3636 250.472 33.6165V33.6201C249.914 34.225 249.408 34.8831 248.959 35.5941C248.718 35.9745 248.505 36.3601 248.306 36.7528C248.172 37.0269 247.882 37.2021 247.559 37.2056L244.285 37.2374C243.838 37.241 243.468 37.5664 243.436 37.9786L243.167 41.3324C243.161 41.4279 243.174 41.5217 243.199 41.6066C243.284 41.8861 243.536 42.1089 243.855 42.1673L246.274 42.5812C246.57 42.6343 246.814 42.8324 246.913 43.0906C246.938 43.1579 246.957 43.2304 246.96 43.3065C247.07 45.1302 247.573 46.9132 248.432 48.5565C248.581 48.8324 248.526 49.165 248.318 49.3985C248.287 49.4303 248.251 49.4622 248.215 49.4905L245.942 51.2417C245.614 51.4964 245.54 51.9404 245.775 52.2765L245.821 52.3437L247.76 55.0943C248.009 55.4392 248.49 55.5506 248.881 55.3543Z" fill="#DFEBFD"/>
<path d="M422.656 172.957C423.158 173.444 423.631 173.994 424.061 174.612C424.881 175.788 425.478 177.909 425.366 179.31C425.357 179.46 425.34 179.608 425.326 179.757C424.265 188.749 412.454 191.498 407.004 183.863C406.293 182.864 405.754 181.223 405.642 179.849C405.622 179.531 405.616 179.227 405.642 178.956C405.754 177.681 406.072 176.528 406.565 175.502C409.369 169.658 417.621 168.109 422.656 172.957ZM399.795 195.02L403.95 192.918C404.3 192.746 404.721 192.77 405.042 192.981C405.453 193.251 405.88 193.508 406.318 193.749C407.136 194.198 407.973 194.584 408.824 194.894C409.223 195.04 409.487 195.392 409.487 195.789L409.541 200.4C409.544 200.892 409.954 201.302 410.487 201.339L414.995 201.656C415.505 201.691 415.958 201.364 416.053 200.897L416.884 196.723C416.956 196.314 417.315 196.004 417.768 195.95C419.674 195.724 421.541 195.212 423.293 194.438C423.717 194.25 424.233 194.361 424.529 194.698L426.292 196.691C426.627 197.067 427.218 197.156 427.665 196.887L431.407 194.579C431.485 194.532 431.554 194.479 431.611 194.416C431.895 194.126 431.958 193.686 431.746 193.33L430.065 190.43L429.655 189.725C430.177 189.111 430.665 188.452 431.1 187.759C431.691 186.826 432.176 185.858 432.554 184.881C432.698 184.507 433.067 184.252 433.495 184.252L437.474 184.214C438.019 184.206 438.469 183.816 438.507 183.31L438.765 180.097L438.839 179.176C438.879 178.674 438.51 178.217 437.979 178.128L434.24 177.478C433.804 177.408 433.466 177.088 433.409 176.687C433.211 175.49 432.881 174.314 432.417 173.189C432.388 173.088 432.348 172.998 432.305 172.903C432.29 172.871 432.279 172.839 432.27 172.806C432.153 172.433 432.29 172.035 432.614 171.788L436.078 169.114C436.118 169.086 436.153 169.051 436.187 169.017C436.497 168.696 436.543 168.207 436.285 167.837L433.822 164.353C433.526 163.932 432.936 163.793 432.457 164.033L428.121 166.227C427.757 166.418 427.307 166.372 426.983 166.123C426.272 165.581 425.504 165.081 424.681 164.629C424.245 164.39 423.803 164.17 423.356 163.969C422.995 163.803 422.76 163.463 422.757 163.086L422.702 158.654C422.699 158.167 422.289 157.759 421.762 157.722L417.306 157.414C416.767 157.374 416.282 157.717 416.182 158.221L415.522 161.524C415.434 161.966 415.041 162.29 414.559 162.318C412.678 162.409 410.823 162.776 409.062 163.395C408.65 163.547 408.171 163.431 407.887 163.107L405.306 160.193C404.956 159.801 404.351 159.719 403.896 159.994L400.174 162.281C399.726 162.555 399.58 163.107 399.835 163.537L399.933 163.707L401.888 167.074C402.098 167.436 402.043 167.87 401.757 168.182L401.754 168.187C401.068 168.932 400.443 169.745 399.887 170.624C399.592 171.093 399.328 171.569 399.081 172.053C398.915 172.393 398.56 172.61 398.161 172.614L394.118 172.653C393.568 172.656 393.109 173.058 393.069 173.567L392.739 177.709C392.73 177.827 392.747 177.942 392.776 178.048C392.882 178.391 393.192 178.668 393.588 178.738L396.575 179.25C396.939 179.318 397.241 179.561 397.364 179.879C397.395 179.963 397.413 180.052 397.421 180.146C397.556 182.399 398.175 184.598 399.236 186.628C399.423 186.969 399.357 187.379 399.096 187.667C399.058 187.708 399.015 187.747 398.97 187.782L396.162 189.946C395.758 190.258 395.669 190.806 395.956 191.223L396.013 191.304L398.408 194.702C398.714 195.128 399.311 195.265 399.795 195.02Z" fill="#DFEBFD"/>
<path d="M436.619 143.012C436.887 143.272 437.14 143.567 437.372 143.897C437.811 144.526 438.128 145.66 438.07 146.411C438.064 146.491 438.055 146.57 438.046 146.65C437.48 151.46 431.161 152.932 428.245 148.847C427.864 148.312 427.577 147.433 427.516 146.699C427.507 146.528 427.504 146.365 427.516 146.221C427.577 145.539 427.748 144.922 428.01 144.374C429.512 141.246 433.925 140.418 436.619 143.012ZM424.388 154.816L426.612 153.691C426.798 153.599 427.024 153.613 427.196 153.725C427.417 153.869 427.644 154.006 427.879 154.135C428.318 154.375 428.763 154.582 429.219 154.748C429.431 154.827 429.574 155.014 429.574 155.226L429.603 157.693C429.603 157.957 429.824 158.177 430.108 158.195L432.521 158.366C432.794 158.384 433.035 158.209 433.088 157.959L433.532 155.726C433.57 155.508 433.762 155.342 434.003 155.312C435.024 155.192 436.023 154.919 436.962 154.504C437.186 154.404 437.462 154.463 437.622 154.642L438.564 155.709C438.744 155.91 439.061 155.958 439.299 155.813L441.302 154.579C441.343 154.553 441.378 154.527 441.409 154.492C441.561 154.337 441.596 154.101 441.482 153.911L440.584 152.359L440.363 151.982C440.645 151.655 440.904 151.301 441.139 150.931C441.453 150.432 441.712 149.914 441.915 149.391C441.991 149.191 442.188 149.055 442.418 149.055L444.549 149.035C444.836 149.03 445.081 148.821 445.098 148.551L445.238 146.831L445.275 146.339C445.299 146.07 445.098 145.826 444.816 145.778L442.816 145.431C442.584 145.393 442.404 145.222 442.372 145.007C442.267 144.366 442.09 143.738 441.843 143.135C441.825 143.081 441.805 143.034 441.782 142.983C441.773 142.966 441.767 142.949 441.761 142.931C441.7 142.731 441.773 142.519 441.947 142.387L443.799 140.956C443.822 140.94 443.839 140.922 443.857 140.904C444.023 140.732 444.046 140.47 443.909 140.272L442.595 138.408C442.436 138.184 442.119 138.11 441.863 138.237L439.543 139.411C439.349 139.513 439.107 139.488 438.933 139.355C438.555 139.066 438.142 138.798 437.703 138.557C437.471 138.428 437.233 138.311 436.994 138.204C436.799 138.115 436.675 137.932 436.672 137.732L436.643 135.361C436.643 135.099 436.425 134.881 436.143 134.861L433.756 134.697C433.468 134.675 433.21 134.858 433.155 135.127L432.803 136.894C432.756 137.133 432.544 137.306 432.288 137.32C431.28 137.368 430.289 137.564 429.347 137.896C429.126 137.978 428.87 137.915 428.716 137.741L427.335 136.183C427.152 135.974 426.827 135.929 426.583 136.077L424.591 137.3C424.353 137.446 424.275 137.741 424.411 137.972L424.464 138.064L425.507 139.865C425.62 140.057 425.591 140.29 425.437 140.456V140.46C425.071 140.859 424.734 141.292 424.437 141.764C424.28 142.015 424.138 142.268 424.007 142.528C423.92 142.709 423.728 142.826 423.513 142.828L421.351 142.849C421.057 142.851 420.813 143.066 420.79 143.338L420.615 145.554C420.609 145.617 420.618 145.678 420.633 145.735C420.691 145.92 420.856 146.067 421.066 146.104L422.667 146.379C422.859 146.415 423.022 146.545 423.089 146.714C423.103 146.76 423.115 146.808 423.118 146.857C423.19 148.063 423.522 149.239 424.092 150.326C424.19 150.508 424.153 150.728 424.016 150.882C423.996 150.903 423.972 150.923 423.946 150.943L422.446 152.101C422.228 152.268 422.179 152.562 422.336 152.783L422.365 152.827L423.647 154.645C423.81 154.873 424.129 154.945 424.388 154.816Z" fill="#AEC3FF"/>
<path d="M67.563 142.294C67.8569 142.58 68.1344 142.903 68.3874 143.264C68.8689 143.956 69.2187 145.199 69.1531 146.021C69.1467 146.109 69.1377 146.196 69.1286 146.282C68.5065 151.556 61.5793 153.17 58.3809 148.692C57.9638 148.106 57.6476 147.143 57.5832 146.338C57.571 146.15 57.5677 145.972 57.5835 145.813C57.6478 145.065 57.8355 144.389 58.1238 143.787C59.7694 140.36 64.6085 139.451 67.563 142.294ZM54.1521 155.237L56.5908 154.003C56.7949 153.903 57.0421 153.917 57.2312 154.04C57.472 154.198 57.7214 154.349 57.9796 154.49C58.4598 154.754 58.9493 154.98 59.4487 155.163C59.6826 155.248 59.8371 155.455 59.8377 155.687L59.8705 158.392C59.871 158.681 60.1126 158.92 60.4257 158.942L63.0686 159.128C63.3682 159.149 63.6333 158.957 63.6899 158.684L64.177 156.234C64.219 155.996 64.4291 155.813 64.6945 155.781C65.814 155.649 66.9092 155.349 67.9368 154.894C68.185 154.785 68.4882 154.85 68.6623 155.046L69.6947 156.216C69.893 156.437 70.2392 156.489 70.5003 156.331L72.6955 154.977C72.7408 154.949 72.7812 154.919 72.8151 154.882C72.9821 154.711 73.0187 154.453 72.8943 154.244L71.909 152.543L71.6679 152.13C71.9751 151.77 72.261 151.384 72.5173 150.977C72.8627 150.43 73.1472 149.861 73.3682 149.288C73.4534 149.07 73.6704 148.921 73.9201 148.919L76.2552 148.898C76.5744 148.893 76.8381 148.664 76.8597 148.368L77.0127 146.482L77.0549 145.943C77.0791 145.648 76.8613 145.38 76.5504 145.328L74.3573 144.947C74.1026 144.905 73.9047 144.718 73.8702 144.483C73.7548 143.78 73.5611 143.09 73.2893 142.43C73.2705 142.371 73.2471 142.319 73.2228 142.262C73.2132 142.244 73.2079 142.225 73.2025 142.205C73.133 141.987 73.214 141.753 73.4036 141.609L75.4353 140.04C75.4595 140.025 75.4801 140.003 75.4992 139.983C75.6812 139.796 75.7076 139.508 75.5567 139.292L74.1133 137.248C73.9387 137 73.5934 136.919 73.3117 137.059L70.7688 138.346C70.5543 138.459 70.2905 138.431 70.1017 138.285C69.684 137.968 69.2334 137.675 68.7508 137.409C68.4951 137.269 68.2359 137.14 67.9732 137.022C67.7605 136.925 67.6232 136.725 67.6217 136.504L67.5894 133.905C67.5871 133.619 67.3483 133.38 67.0393 133.358L64.4245 133.177C64.1088 133.154 63.824 133.355 63.7644 133.65L63.3785 135.588C63.3269 135.848 63.0947 136.038 62.8138 136.054C61.7098 136.106 60.6222 136.323 59.589 136.685C59.3464 136.774 59.0664 136.707 58.8986 136.516L57.3847 134.807C57.1818 134.578 56.8257 134.529 56.5589 134.69L54.3755 136.032C54.1128 136.192 54.0281 136.516 54.1778 136.768L54.2343 136.868L55.38 138.844C55.5029 139.055 55.4719 139.31 55.3039 139.493L55.3023 139.496C54.9001 139.934 54.5328 140.41 54.2073 140.927C54.0339 141.202 53.8792 141.48 53.7349 141.764C53.6378 141.964 53.4276 142.09 53.194 142.093L50.8235 142.116C50.4991 142.118 50.2309 142.354 50.2077 142.652L50.0137 145.082C50.0086 145.151 50.0186 145.219 50.0357 145.28C50.0983 145.482 50.2805 145.644 50.5109 145.686L52.2634 145.986C52.4777 146.026 52.6544 146.168 52.7263 146.354C52.7444 146.404 52.7567 146.456 52.7608 146.511C52.8406 147.833 53.2034 149.124 53.8259 150.313C53.9346 150.514 53.8954 150.754 53.7433 150.923C53.7211 150.948 53.6964 150.969 53.669 150.991L52.023 152.259C51.7843 152.443 51.7322 152.764 51.9016 153.009L51.9348 153.056L53.3396 155.049C53.5195 155.298 53.869 155.38 54.1521 155.237Z" fill="#DFEBFD"/>
<path d="M308.796 77.1377C309.712 77.8311 310.597 78.6316 311.429 79.5474C313.01 81.2953 314.435 84.6119 314.559 86.9005C314.572 87.1459 314.581 87.388 314.588 87.6303C314.823 102.373 296.32 109.051 285.846 97.7326C284.479 96.2511 283.251 93.6971 282.774 91.4971C282.673 90.986 282.599 90.4945 282.581 90.0523C282.482 87.9698 282.751 86.0436 283.323 84.2914C286.592 74.3097 299.598 70.2476 308.796 77.1377ZM276.605 117.138L282.872 112.953C283.401 112.609 284.087 112.569 284.654 112.849C285.375 113.208 286.119 113.541 286.883 113.849C288.304 114.421 289.737 114.887 291.183 115.229C291.857 115.39 292.361 115.909 292.449 116.551L293.54 123.998C293.65 124.792 294.402 125.38 295.274 125.337L302.63 124.998C303.463 124.958 304.124 124.344 304.178 123.571L304.617 116.663C304.642 115.99 305.155 115.418 305.874 115.247C308.912 114.521 311.821 113.342 314.485 111.757C315.13 111.375 315.99 111.456 316.544 111.944L319.822 114.836C320.449 115.38 321.426 115.413 322.085 114.893L327.637 110.453C327.753 110.363 327.852 110.266 327.933 110.153C328.329 109.63 328.334 108.905 327.915 108.369L324.57 103.997L323.752 102.932C324.466 101.844 325.112 100.685 325.667 99.4823C326.418 97.8614 326.989 96.2038 327.388 94.5519C327.543 93.9216 328.085 93.44 328.775 93.3578L335.203 92.5448C336.082 92.4284 336.725 91.7128 336.675 90.8896L336.398 85.6424L336.317 84.139C336.274 83.3189 335.575 82.6526 334.697 82.6075L328.511 82.2617C327.792 82.2291 327.178 81.7765 326.996 81.1393C326.418 79.2401 325.629 77.4013 324.635 75.6681C324.561 75.5103 324.478 75.3742 324.39 75.2276C324.357 75.1802 324.334 75.1285 324.312 75.0771C324.041 74.4974 324.177 73.826 324.646 73.3654L329.669 68.3879C329.73 68.3355 329.777 68.2698 329.824 68.2111C330.254 67.6329 330.223 66.8335 329.725 66.2832L324.991 61.1118C324.417 60.4888 323.436 60.3759 322.712 60.8526L316.176 65.2217C315.625 65.5982 314.888 65.6087 314.312 65.2656C313.044 64.5256 311.693 63.8608 310.263 63.2859C309.508 62.9807 308.747 62.7089 307.978 62.4685C307.355 62.2699 306.903 61.7619 306.817 61.1557L305.767 53.9978C305.657 53.2097 304.908 52.6265 304.046 52.6641L296.771 53.009C295.892 53.0488 295.182 53.6947 295.126 54.5267L294.779 59.9934C294.732 60.7251 294.163 61.325 293.394 61.4609C290.369 61.9605 287.45 62.9054 284.737 64.2392C284.1 64.5653 283.303 64.4649 282.769 63.9946L277.965 59.7697C277.32 59.2032 276.321 59.1844 275.644 59.7153L270.119 64.1158C269.453 64.6426 269.341 65.5627 269.848 66.2107L270.041 66.4676L273.93 71.5456C274.347 72.0896 274.356 72.8027 273.962 73.3612L273.955 73.3683C273.009 74.7046 272.171 76.1368 271.468 77.6643C271.089 78.4783 270.766 79.297 270.473 80.1277C270.28 80.7072 269.747 81.1253 269.104 81.2087L262.577 82.0336C261.683 82.1438 261.031 82.8811 261.078 83.7115L261.439 90.4723C261.452 90.6651 261.504 90.8484 261.576 91.0138C261.822 91.5489 262.384 91.9376 263.034 91.9773L267.979 92.2407C268.584 92.2793 269.124 92.6163 269.391 93.1082C269.458 93.2382 269.512 93.3798 269.543 93.5291C270.251 97.1471 271.73 100.588 273.888 103.669C274.26 104.187 274.242 104.863 273.883 105.377C273.832 105.45 273.771 105.52 273.704 105.587L269.635 109.615C269.043 110.198 269.019 111.102 269.577 111.72L269.687 111.84L274.298 116.884C274.885 117.514 275.877 117.623 276.605 117.138Z" fill="#DFEBFD"/>
<path d="M82.081 104.728C84.0426 95.4433 100.736 97.2152 100.736 97.2152C100.736 97.2152 113.122 112.431 116.406 112.597C119.689 112.764 108.538 97.6593 108.538 97.6593C114.803 96.6789 131.416 102.843 131.416 102.843C131.416 102.843 131.794 121.511 135.021 120.92C138.248 120.328 133.783 104.404 133.783 104.404C140.015 105.715 146.21 111.986 146.21 111.986C154.142 122.341 139.48 131.311 139.48 131.311C139.48 131.311 139.762 137.778 144.589 144.902C144.589 144.902 145.657 146.207 146.811 148.466L145.146 148.574C144.98 148.166 144.8 147.774 144.604 147.398L144.601 147.392L144.592 147.376C144.461 147.143 144.271 146.812 144.036 146.41L144.034 146.408L144.032 146.407C143.456 145.511 143.061 144.847 142.805 144.367L142.804 144.363C141.063 141.547 138.582 137.893 137.059 137.191C137.059 137.191 137.225 136.937 137.362 136.456C137.266 136.69 137.166 136.936 137.059 137.191C134.638 143.072 120.468 144.951 112.419 143.951C104.37 142.951 107.673 140.636 111.691 136.968C115.709 133.3 124.728 133.609 127.274 132.107C129.819 130.606 125.853 129.53 120.592 130.255C115.331 130.979 113.056 136.087 104.568 137.406C96.0799 138.723 88.4446 124.151 88.4446 124.151C94.473 125.475 104.825 121.746 105.089 119.821C105.264 118.553 98.5235 118.647 93.1968 118.742C90.4417 118.79 88.0647 118.839 87.2179 118.699C84.7338 118.289 80.1196 114.012 82.081 104.728Z" fill="#DFEBFD"/>
<path d="M216.535 140.048L207.705 237.999C207.705 237.999 206.78 243.937 211.514 243.947C219.297 243.964 250.254 243.947 250.254 243.947C250.254 243.947 244.395 242.712 244.465 239.93C244.55 236.653 254.786 139.121 254.786 139.121L216.535 140.048Z" fill="#759BE0"/>
<path d="M252.768 242.169C251.235 242.174 221.668 242.26 214.089 242.169C210.786 242.131 210.206 239.429 210.18 237.68C210.166 236.843 210.28 236.222 210.28 236.222L210.509 233.677L211.093 227.187L211.611 221.455L212.275 214.088L212.835 207.87L219.109 138.269L257.361 137.343C257.361 137.343 253.048 178.159 250.001 207.87C249.659 211.181 249.334 214.356 249.036 217.318C248.94 218.264 248.845 219.189 248.755 220.089C248.471 222.9 248.214 225.482 247.989 227.761C247.87 228.962 247.759 230.078 247.661 231.102C247.272 235.108 247.046 237.667 247.042 238.154C247.04 238.437 247.067 238.701 247.116 238.947C247.744 242.068 252.193 242.169 252.768 242.169Z" fill="#AEC3FF"/>
<path d="M123.64 86.7457L145.148 167.348L148.091 178.386L158.109 215.929H344.207L307.285 86.7457H123.64Z" fill="#AEC3FF"/>
<path d="M123.64 86.7453L120.659 87.6735L154.146 218.732L158.108 215.929L123.64 86.7453Z" fill="#759BE0"/>
<path d="M154.146 218.732H339.099L344.207 215.929H158.109L154.146 218.732Z" fill="#759BE0"/>
<path d="M219.095 243.984H259.141V242.209H219.095V243.984Z" fill="#AEC3FF"/>
<path d="M248.754 220.089C248.798 219.644 248.844 219.19 248.89 218.732H248.96L248.754 220.089Z" fill="#99B6E8"/>
<path d="M211.094 227.188L211.611 221.456L211.856 218.732H248.89C248.844 219.19 248.799 219.644 248.754 220.089L211.094 227.188Z" fill="#86A7E9"/>
<path d="M252.767 242.169C251.235 242.174 221.668 242.26 214.088 242.169C210.786 242.131 210.206 239.429 210.18 237.68L247.661 231.102C247.273 235.108 247.045 237.667 247.042 238.154C247.04 238.436 247.066 238.701 247.116 238.947C247.744 242.068 252.193 242.169 252.767 242.169Z" fill="#94B0ED"/>
<path d="M239.858 189.777L158.108 215.929L148.091 178.387L239.858 189.777Z" fill="#94B0ED"/>
<path d="M123.64 86.746H307.286L336.856 190.569H151.352L123.64 86.746Z" fill="#D2E0FF"/>
<path d="M327.962 185.01H157.421L131.041 90.4348L301.291 91.5235L327.962 185.01Z" fill="#C0D1FF"/>
<path d="M257.28 147.033V185.007H192.773V147.033H257.28Z" fill="#ED7D2B"/>
<path d="M289.535 147.034V185.007H225.029V147.034H289.535Z" fill="#F99746"/>
<path d="M225.028 152.643L211.431 165.329H192.813V147.032H225.028V152.643Z" fill="#E06D20"/>
<path d="M192.775 147.032L178.272 160.09H210.545L225.028 147.032H192.775Z" fill="#F99746"/>
<path d="M289.535 148.378L225.029 147.033V151.843V152.63L237.022 164.9H289.535V152.686L289.201 152.322H289.535V148.378Z" fill="#ED7D2B"/>
<path d="M225.027 147.032L237.791 160.09H301.444L289.534 147.032H225.027Z" fill="#F99746"/>
<path d="M112.623 142.227C112.623 142.227 113.072 137.667 107.611 137.667C107.611 137.667 109.265 138.085 110.121 138.923C110.121 138.923 106.638 137.016 102.848 139.946C99.057 142.878 101.412 150.232 100.26 151.627C99.1069 153.024 94.6179 153.302 95.1666 157.817C95.7152 162.33 109.413 167.984 108.533 171.718C108.533 171.718 113.901 164.356 110.063 160.997C110.063 160.997 111.934 162.641 112.125 164.596C112.125 164.596 112.632 160.78 110.03 159.558C107.727 158.478 105.84 154.528 106.04 153.823C106.239 153.116 112.623 142.227 112.623 142.227Z" fill="#2C3A64"/>
<path d="M107.247 164.124C107.247 164.124 111.327 179.871 115.332 183.02C117.739 184.912 124.897 189.254 124.897 189.254L121.92 190.262C121.92 190.262 111.992 187.135 109.769 184.696C107.546 182.258 101.461 170.04 101.461 170.04L107.247 164.124Z" fill="#FFB27D"/>
<path d="M130.731 195.011L129.772 192.795C128.744 190.419 126.273 188.864 123.528 188.864H105.84V199.335V244.041H179.007V199.335H137.604C134.582 199.335 131.863 197.625 130.731 195.011Z" fill="#F99746"/>
<path d="M116.877 222.418V218.44L131.828 212.33V216.393L121.387 220.4L131.828 224.406V228.528L116.877 222.418Z" fill="white"/>
<path d="M147.366 207.574H151.352L137.666 234.264H133.682L147.366 207.574Z" fill="white"/>
<path d="M167.971 218.44V222.418L153.019 228.528V224.464L163.461 220.458L153.019 216.452V212.33L167.971 218.44Z" fill="white"/>
<path d="M68.9011 191.79C68.937 191.851 68.9752 191.913 69.0134 191.976C69.9063 193.424 71.9545 196.97 74.2103 200.854C75.2773 202.695 76.3945 204.613 77.4544 206.417C79.2807 209.53 80.942 212.304 81.9113 213.769C82.8972 215.259 83.6229 216.306 83.9166 216.725L83.9189 216.727C84.0072 216.856 84.0263 217.008 84.0144 217.159C83.9117 218.473 83.9403 219.779 84.0788 221.064C85.4395 233.694 94.568 240.464 94.568 240.464L97.2822 240.837C97.2822 240.837 93.4414 227.561 92.3098 220.054C92.1188 218.783 92.0353 217.752 92.1021 217.079C92.3026 215.123 91.9302 212.252 91.226 208.956C89.9728 203.099 87.6739 195.909 85.6759 190.153C85.5494 189.786 81.7322 176.904 81.7322 176.904C78.5287 179.516 66.8434 180.595 66.8434 180.595C66.8434 180.595 64.8621 185.088 68.9011 191.79Z" fill="#2F539B"/>
<path d="M102.979 244.041H91.6508C91.6508 244.041 91.3792 242.431 91.971 241.209C92.538 240.036 93.346 239.998 92.0741 238.16C92.7939 238.852 95.1079 239.137 96.7456 238.933C96.9462 239.236 98.0394 241.272 98.7096 241.721C99.45 242.217 102.751 242.04 102.979 244.041Z" fill="#233862"/>
<path d="M68.9011 191.79C68.937 191.852 68.9752 191.913 69.0134 191.976C69.9063 193.424 74.7346 201.744 76.9905 205.625C74.3765 195.592 76.1946 185.559 76.1946 185.559L68.9011 191.79Z" fill="#233862"/>
<path d="M111.078 141.586C111.152 141.308 104.608 144.346 104.277 144.689C101.208 147.865 102.083 152.01 103.839 152.05C104.965 152.076 104.747 153.823 104.747 153.823L117.294 148.87C117.294 148.87 115.783 140.652 111.078 141.586Z" fill="#2C3A64"/>
<path d="M106.862 161.759C106.862 161.759 108.771 165.316 108.533 168.206C108.533 168.206 106.231 171.596 100.26 172.455C100.26 172.455 105.393 161.756 106.862 161.759Z" fill="#F99746"/>
<path d="M77.7323 181.382L77.7705 179.404C73.5494 179.902 63.2157 174.698 63.2157 174.698C63.2157 174.698 58.7995 177.438 58.1949 185.265C57.8999 189.085 56.0331 205.24 55.8267 210.064C55.7515 211.812 55.7264 213.06 55.7178 213.558L55.7185 213.563C55.7159 213.715 55.6393 213.85 55.539 213.97C54.6655 215.006 53.9079 216.103 53.2517 217.242C46.8104 228.423 50.1789 243.617 50.1789 243.617L51.6746 243.262C51.6746 243.262 57.121 227.512 60.6807 220.698C61.2848 219.542 61.8336 218.645 62.2927 218.124C63.6311 216.607 65.0425 214.031 66.4336 210.932C69.063 205.071 77.7323 181.382 77.7323 181.382Z" fill="#2F539B"/>
<path d="M59.1869 244.041H47.8591C47.8591 244.041 47.5875 242.431 48.1791 241.209C48.7462 240.036 49.6342 239.503 49.4215 238.083C50.1413 238.775 51.3145 239.549 52.9522 239.345C53.1528 239.648 54.2475 241.272 54.9179 241.721C55.6581 242.217 58.9592 242.04 59.1869 244.041Z" fill="#233862"/>
<path d="M99.4948 174.724C97.9732 174.966 99.7431 176.095 97.6504 176.307C94.6718 176.61 91.5963 176.817 89.9853 177.417C89.3978 177.637 89.0048 177.906 88.8821 178.251C88.1837 180.211 83.7613 183.578 83.7613 183.578C64.036 182.739 62.7656 174.537 62.7656 174.537C75.5675 162.936 86.4586 156.614 95.4597 155.83C97.6504 155.64 100.603 155.896 101.989 156.471C105.137 157.779 106.862 161.759 106.862 161.759C106.862 161.759 105.276 173.804 99.4948 174.724Z" fill="#F99746"/>
<path d="M97.6504 176.307C94.6718 176.61 91.5963 176.817 89.9853 177.417C89.327 168.239 93.9695 161.335 93.9695 161.335C93.9695 161.335 96.998 172.834 97.6504 176.307Z" fill="#ED7D2B"/>
<path d="M100.22 159.781C100.22 159.781 92.7297 159.398 91.3987 163.787C90.0677 168.175 93.8957 185.689 94.7207 187.496C96.2227 190.788 103.534 200.181 103.534 200.181L106.223 199.417C106.223 199.417 101.348 185.067 100.26 183.647C98.5508 181.418 102.462 161.69 100.22 159.781Z" fill="#FFB27D"/>
<path d="M106.223 199.417C106.223 199.417 106.362 200.53 106.866 201.103C107.37 201.677 108.836 203.068 108.861 203.881C108.861 203.881 108.787 204.242 108.473 204.176C108.159 204.11 107.067 203.102 106.506 203.174C106.506 203.174 106.805 204.805 107.102 205.264C107.398 205.724 107.162 207.671 106.985 208.067C106.807 208.464 104.621 205.939 103.723 204.812C102.824 203.684 103.708 199.111 103.708 199.111L106.223 199.417Z" fill="#FFB27D"/>
<path d="M89.9214 169.655C89.941 169.758 97.0098 170.867 101.431 168.774C101.431 168.774 105.125 157.978 99.8464 158.495C94.568 159.011 91.4423 160.562 91.3094 162.921C91.1765 165.278 89.9214 169.655 89.9214 169.655Z" fill="#F99746"/>
<path d="M101.82 157.228C102.383 158.874 104.26 163.563 106.862 161.759C106.774 161.408 107.32 160.391 107.965 159.357C108.788 158.037 109.769 156.686 109.769 156.686L105.53 153.221L105.277 153.015C104.168 154.82 103.078 155.69 102.123 156.354C101.833 156.557 101.71 156.906 101.82 157.228Z" fill="#FFB27D"/>
<path d="M109.769 156.688C109.769 156.688 108.789 158.035 107.965 159.357C105.33 157.842 105.327 154.797 105.53 153.221L109.769 156.688Z" fill="#ED985F"/>
<path d="M109.887 158.424C109.887 158.424 103.488 155.103 105.767 151.416C108.045 147.731 108.754 144.821 112.935 146.785C117.117 148.75 117.034 150.58 116.594 151.984C116.155 153.385 111.61 159.194 109.887 158.424Z" fill="#FFB27D"/>
<path d="M117.675 149.834C117.382 148.197 116.491 148.04 115.87 148.149C113.507 144.504 109.647 145.927 109.647 145.927C107.585 148.341 104.604 148.753 104.604 148.753C104.604 148.753 105.346 150.041 108.405 150.84C109.34 151.083 110.4 150.935 111.423 150.614C109.301 151.719 107.081 152.142 107.081 152.142C111.113 152.486 114.948 149.047 115.346 148.68C115.532 149.213 115.858 150.328 115.663 151.143C115.398 152.252 114.343 154.259 114.987 154.519C114.987 154.519 118.115 152.288 117.675 149.834Z" fill="#2C3A64"/>
<path d="M126.068 189.262C126.068 189.262 124.283 190.511 125.628 191.329C126.974 192.145 129.376 192.366 129.386 191.83C129.419 190.032 128.458 188.752 126.068 189.262Z" fill="#FFB27D"/>
<path d="M459.327 245H0.492202C0.221416 245 0 244.793 0 244.54V244.444C0 244.192 0.221416 243.984 0.492202 243.984H459.327C459.596 243.984 459.818 244.192 459.818 244.444V244.54C459.818 244.793 459.596 245 459.327 245Z" fill="#2E3552"/>
<path d="M153.894 120.678C153.763 120.177 153.399 119.799 153.007 119.799C152.614 119.801 152.452 120.168 152.586 120.68C152.718 121.185 153.075 121.559 153.472 121.557C153.869 121.557 154.025 121.187 153.894 120.678ZM151.912 120.681C151.703 119.881 152.078 119.254 152.874 119.252C153.663 119.251 154.358 119.868 154.567 120.677C154.775 121.477 154.404 122.104 153.605 122.106C152.807 122.108 152.121 121.49 151.912 120.681Z" fill="#F99746"/>
<path d="M140.429 99.9476L139.938 100.066L139.673 99.5695L140.47 99.3313H140.919L141.639 102.11L140.99 102.111L140.429 99.9476Z" fill="#94B0ED"/>
<path d="M144.741 100.725C144.611 100.224 144.248 99.8462 143.855 99.8462C143.463 99.8477 143.301 100.215 143.435 100.727C143.565 101.231 143.922 101.606 144.321 101.604C144.718 101.604 144.873 101.234 144.741 100.725ZM142.759 100.728C142.552 99.9276 142.927 99.3006 143.721 99.2991C144.512 99.2975 145.207 99.9153 145.416 100.724C145.624 101.524 145.253 102.151 144.454 102.153C143.655 102.154 142.968 101.537 142.759 100.728Z" fill="#94B0ED"/>
<path d="M195.094 99.8538L194.603 99.9737L194.338 99.4773L195.135 99.2391L195.583 99.2376L196.304 102.018H195.655L195.094 99.8538Z" fill="#94B0ED"/>
<path d="M199.406 100.631C199.276 100.132 198.912 99.754 198.52 99.754C198.126 99.7555 197.966 100.121 198.098 100.635C198.23 101.139 198.587 101.512 198.984 101.512C199.381 101.512 199.538 101.14 199.406 100.631ZM197.424 100.635C197.217 99.8354 197.592 99.2069 198.386 99.2069C199.177 99.2053 199.87 99.8231 200.08 100.631C200.289 101.431 199.916 102.059 199.118 102.061C198.319 102.061 197.634 101.443 197.424 100.635Z" fill="#94B0ED"/>
<path d="M203.377 100.625C203.247 100.126 202.885 99.7478 202.491 99.7478C202.099 99.7478 201.937 100.115 202.071 100.628C202.201 101.132 202.558 101.506 202.957 101.506C203.354 101.506 203.509 101.134 203.377 100.625ZM201.396 100.628C201.188 99.8292 201.564 99.2007 202.357 99.2007C203.148 99.1992 203.843 99.8169 204.052 100.625C204.26 101.424 203.889 102.053 203.09 102.053C202.292 102.054 201.605 101.437 201.396 100.628Z" fill="#94B0ED"/>
<path d="M223.692 100.631C223.562 100.132 223.198 99.754 222.806 99.754C222.412 99.7555 222.251 100.121 222.384 100.635C222.516 101.139 222.874 101.512 223.27 101.512C223.667 101.512 223.824 101.14 223.692 100.631ZM221.709 100.635C221.502 99.8354 221.877 99.2069 222.673 99.2069C223.462 99.2053 224.157 99.8231 224.366 100.631C224.573 101.431 224.203 102.059 223.404 102.061C222.605 102.061 221.92 101.443 221.709 100.635Z" fill="#94B0ED"/>
<path d="M227.663 100.625C227.533 100.126 227.171 99.7478 226.777 99.7478C226.385 99.7478 226.224 100.115 226.357 100.628C226.487 101.132 226.845 101.506 227.242 101.506C227.64 101.506 227.795 101.134 227.663 100.625ZM225.682 100.628C225.474 99.8292 225.85 99.2007 226.644 99.2007C227.434 99.1992 228.128 99.8169 228.339 100.625C228.546 101.424 228.174 102.053 227.375 102.053C226.578 102.054 225.891 101.437 225.682 100.628Z" fill="#94B0ED"/>
<path d="M231.636 100.619C231.506 100.12 231.142 99.7417 230.75 99.7417C230.356 99.7417 230.195 100.109 230.328 100.622C230.46 101.126 230.817 101.5 231.214 101.5C231.611 101.498 231.768 101.128 231.636 100.619ZM229.653 100.622C229.445 99.8231 229.821 99.1946 230.616 99.1931C231.405 99.1931 232.101 99.8108 232.31 100.619C232.517 101.418 232.147 102.047 231.348 102.047C230.549 102.048 229.864 101.431 229.653 100.622Z" fill="#94B0ED"/>
<path d="M259.25 100.555C259.12 100.056 258.756 99.678 258.364 99.678C257.971 99.678 257.808 100.046 257.943 100.559C258.074 101.062 258.432 101.436 258.828 101.436C259.225 101.436 259.382 101.064 259.25 100.555ZM257.268 100.559C257.061 99.759 257.435 99.1312 258.231 99.1295C259.019 99.1295 259.715 99.7474 259.924 100.555C260.131 101.355 259.761 101.983 258.963 101.984C258.162 101.986 257.477 101.366 257.268 100.559Z" fill="#94B0ED"/>
<path d="M263.052 100.55C262.921 100.049 262.557 99.6709 262.166 99.6726C261.771 99.6726 261.61 100.039 261.744 100.553C261.875 101.057 262.232 101.43 262.631 101.43C263.027 101.43 263.183 101.059 263.052 100.55ZM261.068 100.553C260.862 99.7529 261.237 99.1252 262.031 99.1236C262.821 99.1236 263.517 99.7412 263.725 100.55C263.933 101.35 263.562 101.976 262.763 101.977C261.965 101.979 261.28 101.361 261.068 100.553Z" fill="#94B0ED"/>
<path d="M267.187 100.544C267.056 100.043 266.692 99.6647 266.301 99.6647C265.906 99.6664 265.746 100.033 265.879 100.546C266.01 101.05 266.368 101.423 266.765 101.423C267.161 101.423 267.318 101.052 267.187 100.544ZM265.206 100.546C264.996 99.7461 265.371 99.1181 266.166 99.1181C266.956 99.1164 267.651 99.7343 267.86 100.542C268.067 101.342 267.696 101.97 266.898 101.972C266.099 101.973 265.415 101.354 265.206 100.546Z" fill="#94B0ED"/>
<path d="M273.938 100.534C273.807 100.032 273.445 99.6552 273.05 99.6552C272.659 99.6552 272.497 100.023 272.631 100.535C272.762 101.04 273.121 101.414 273.517 101.413C273.914 101.413 274.068 101.042 273.938 100.534ZM271.956 100.537C271.748 99.7368 272.123 99.1083 272.918 99.1083C273.709 99.1066 274.403 99.7247 274.611 100.532C274.82 101.333 274.449 101.96 273.651 101.961C272.851 101.962 272.164 101.344 271.956 100.537Z" fill="#94B0ED"/>
<path d="M276.232 99.7455L275.74 99.8646L275.476 99.3681L276.273 99.1307L276.722 99.1289L277.443 101.908L276.793 101.909L276.232 99.7455Z" fill="#94B0ED"/>
<path d="M280.547 100.523C280.415 100.022 280.052 99.6441 279.659 99.6446C279.265 99.6451 279.105 100.012 279.238 100.524C279.37 101.029 279.727 101.403 280.124 101.403C280.522 101.402 280.678 101.031 280.547 100.523ZM278.563 100.526C278.356 99.7255 278.731 99.0979 279.526 99.0968C280.315 99.0954 281.01 99.7134 281.22 100.521C281.427 101.322 281.056 101.949 280.258 101.95C279.459 101.952 278.773 101.334 278.563 100.526Z" fill="#94B0ED"/>
<path d="M287.161 100.507C287.031 100.006 286.67 99.6283 286.276 99.629C285.883 99.6295 285.722 99.9964 285.856 100.509C285.986 101.013 286.344 101.387 286.742 101.387C287.14 101.386 287.293 101.015 287.161 100.507ZM285.18 100.51C284.973 99.7098 285.349 99.0824 286.142 99.0811C286.932 99.0798 287.627 99.6978 287.837 100.506C288.045 101.306 287.674 101.933 286.876 101.935C286.076 101.936 285.39 101.318 285.18 100.51Z" fill="#94B0ED"/>
<path d="M172.618 106.689C172.488 106.188 172.125 105.81 171.732 105.812C171.34 105.812 171.178 106.179 171.312 106.691C171.442 107.196 171.799 107.57 172.196 107.57C172.595 107.568 172.749 107.198 172.618 106.689ZM170.636 106.692C170.429 105.892 170.804 105.265 171.598 105.263C172.389 105.262 173.082 105.881 173.293 106.688C173.501 107.488 173.128 108.115 172.331 108.117C171.532 108.118 170.845 107.501 170.636 106.692Z" fill="#94B0ED"/>
<path d="M176.59 106.683C176.46 106.182 176.096 105.804 175.704 105.806C175.311 105.806 175.149 106.173 175.283 106.685C175.414 107.19 175.772 107.564 176.169 107.564C176.566 107.562 176.722 107.192 176.59 106.683ZM174.607 106.686C174.4 105.886 174.775 105.259 175.571 105.257C176.36 105.256 177.055 105.875 177.264 106.682C177.472 107.482 177.101 108.109 176.302 108.111C175.503 108.112 174.818 107.495 174.607 106.686Z" fill="#94B0ED"/>
<path d="M275.496 106.54C275.365 106.039 275.002 105.661 274.609 105.662C274.217 105.662 274.054 106.029 274.189 106.542C274.319 107.046 274.677 107.42 275.073 107.42C275.472 107.419 275.627 107.048 275.496 106.54ZM273.513 106.543C273.306 105.743 273.68 105.115 274.477 105.114C275.266 105.113 275.96 105.731 276.169 106.539C276.377 107.339 276.007 107.966 275.208 107.968C274.409 107.969 273.723 107.351 273.513 106.543Z" fill="#94B0ED"/>
<path d="M277.791 105.75L277.301 105.87L277.035 105.373L277.833 105.135L278.282 105.135L279.003 107.913L278.354 107.914L277.791 105.75Z" fill="#94B0ED"/>
<path d="M282.104 106.528C281.974 106.028 281.611 105.65 281.217 105.651C280.826 105.651 280.665 106.018 280.797 106.531C280.929 107.035 281.286 107.409 281.682 107.408C282.081 107.408 282.236 107.037 282.104 106.528ZM280.122 106.532C279.916 105.731 280.29 105.104 281.083 105.103C281.875 105.102 282.568 105.719 282.778 106.527C282.987 107.327 282.614 107.955 281.815 107.956C281.018 107.958 280.332 107.339 280.122 106.532Z" fill="#94B0ED"/>
<path d="M296.664 106.501C296.534 106 296.17 105.622 295.778 105.623C295.386 105.624 295.224 105.99 295.358 106.503C295.49 107.007 295.846 107.381 296.244 107.381C296.64 107.38 296.796 107.009 296.664 106.501ZM294.684 106.504C294.474 105.704 294.85 105.076 295.646 105.075C296.434 105.074 297.13 105.692 297.338 106.5C297.546 107.3 297.176 107.927 296.376 107.928C295.578 107.93 294.892 107.312 294.684 106.504Z" fill="#94B0ED"/>
<path d="M298.962 105.711L298.47 105.831L298.206 105.334L299.002 105.096L299.45 105.096L300.172 107.874L299.523 107.875L298.962 105.711Z" fill="#94B0ED"/>
<path d="M169.276 139.115C169.146 138.615 168.783 138.237 168.39 138.237C167.998 138.237 167.836 138.605 167.97 139.118C168.1 139.622 168.459 139.995 168.856 139.995C169.253 139.994 169.407 139.623 169.276 139.115ZM167.294 139.118C167.087 138.319 167.462 137.69 168.256 137.689C169.047 137.689 169.742 138.306 169.951 139.115C170.159 139.914 169.788 140.542 168.989 140.542C168.19 140.544 167.503 139.926 167.294 139.118Z" fill="#94B0ED"/>
<path d="M173.248 139.109C173.118 138.608 172.756 138.231 172.362 138.231C171.969 138.231 171.809 138.598 171.941 139.112C172.072 139.616 172.43 139.989 172.827 139.989C173.224 139.988 173.38 139.617 173.248 139.109ZM171.267 139.112C171.06 138.313 171.435 137.684 172.229 137.683C173.02 137.683 173.713 138.3 173.924 139.109C174.131 139.908 173.759 140.536 172.96 140.536C172.161 140.538 171.476 139.92 171.267 139.112Z" fill="#94B0ED"/>
<path d="M175.543 138.32L175.052 138.44L174.787 137.944L175.584 137.706H176.032L176.753 140.484H176.105L175.543 138.32Z" fill="#94B0ED"/>
<path d="M183.828 139.092C183.698 138.592 183.335 138.214 182.942 138.214C182.548 138.216 182.388 138.582 182.52 139.095C182.652 139.599 183.009 139.972 183.406 139.972C183.803 139.972 183.959 139.6 183.828 139.092ZM181.846 139.095C181.639 138.296 182.014 137.667 182.808 137.667C183.599 137.666 184.292 138.283 184.503 139.092C184.711 139.891 184.338 140.519 183.539 140.521C182.741 140.521 182.055 139.903 181.846 139.095Z" fill="#94B0ED"/>
<path d="M187.799 139.086C187.67 138.586 187.306 138.208 186.914 138.208C186.521 138.208 186.359 138.575 186.493 139.089C186.623 139.593 186.982 139.966 187.379 139.966C187.776 139.966 187.931 139.594 187.799 139.086ZM185.817 139.089C185.61 138.29 185.985 137.661 186.779 137.661C187.57 137.659 188.265 138.277 188.474 139.086C188.682 139.885 188.311 140.513 187.512 140.513C186.713 140.515 186.027 139.897 185.817 139.089Z" fill="#94B0ED"/>
<path d="M191.772 139.079C191.641 138.58 191.279 138.202 190.885 138.202C190.492 138.202 190.332 138.569 190.464 139.083C190.596 139.587 190.953 139.96 191.35 139.96C191.747 139.96 191.903 139.588 191.772 139.079ZM189.79 139.083C189.583 138.283 189.958 137.655 190.752 137.655C191.543 137.653 192.236 138.271 192.447 139.079C192.654 139.879 192.282 140.507 191.483 140.507C190.685 140.509 189.999 139.891 189.79 139.083Z" fill="#94B0ED"/>
<path d="M241.358 139.115C241.229 138.615 240.865 138.237 240.473 138.237C240.079 138.237 239.918 138.604 240.051 139.118C240.182 139.622 240.541 139.995 240.938 139.995C241.335 139.994 241.491 139.623 241.358 139.115ZM239.379 139.118C239.169 138.319 239.545 137.69 240.34 137.688C241.129 137.688 241.823 138.306 242.033 139.115C242.24 139.914 241.87 140.542 241.071 140.542C240.272 140.544 239.586 139.926 239.379 139.118Z" fill="#94B0ED"/>
<path d="M245.331 139.108C245.201 138.607 244.839 138.231 244.444 138.231C244.053 138.231 243.891 138.598 244.025 139.111C244.154 139.615 244.512 139.989 244.911 139.989C245.307 139.987 245.462 139.617 245.331 139.108ZM243.349 139.111C243.141 138.312 243.517 137.683 244.311 137.682C245.101 137.682 245.797 138.3 246.006 139.108C246.214 139.907 245.843 140.536 245.044 140.536C244.245 140.537 243.559 139.92 243.349 139.111Z" fill="#94B0ED"/>
<path d="M247.625 138.32L247.135 138.44L246.87 137.944L247.666 137.705H248.115L248.837 140.484H248.187L247.625 138.32Z" fill="#94B0ED"/>
<path d="M267.987 139.115C267.858 138.615 267.495 138.237 267.101 138.237C266.709 138.237 266.548 138.604 266.681 139.118C266.811 139.622 267.168 139.995 267.568 139.995C267.964 139.994 268.119 139.623 267.987 139.115ZM266.006 139.118C265.798 138.319 266.174 137.69 266.968 137.688C267.759 137.688 268.454 138.306 268.662 139.115C268.87 139.914 268.5 140.542 267.701 140.542C266.902 140.544 266.216 139.926 266.006 139.118Z" fill="#94B0ED"/>
<path d="M271.959 139.109C271.83 138.608 271.466 138.231 271.074 138.231C270.68 138.231 270.519 138.599 270.652 139.112C270.783 139.616 271.142 139.989 271.538 139.989C271.935 139.988 272.092 139.617 271.959 139.109ZM269.979 139.112C269.769 138.313 270.146 137.684 270.941 137.683C271.73 137.683 272.425 138.3 272.634 139.109C272.841 139.908 272.471 140.536 271.671 140.536C270.872 140.538 270.188 139.92 269.979 139.112Z" fill="#94B0ED"/>
<path d="M274.254 138.321L273.763 138.441L273.497 137.944L274.295 137.706H274.742L275.464 140.485H274.815L274.254 138.321Z" fill="#94B0ED"/>
<path d="M255.909 139.092C255.778 138.593 255.416 138.215 255.022 138.215C254.63 138.216 254.469 138.582 254.602 139.095C254.733 139.599 255.09 139.972 255.489 139.972C255.885 139.972 256.041 139.601 255.909 139.092ZM253.927 139.095C253.72 138.296 254.095 137.667 254.889 137.667C255.68 137.666 256.375 138.284 256.583 139.092C256.792 139.891 256.421 140.52 255.622 140.521C254.823 140.521 254.137 139.903 253.927 139.095Z" fill="#94B0ED"/>
<path d="M259.881 139.086C259.752 138.586 259.388 138.208 258.996 138.208C258.602 138.208 258.44 138.575 258.575 139.089C258.707 139.592 259.063 139.966 259.461 139.966C259.858 139.966 260.014 139.594 259.881 139.086ZM257.901 139.089C257.691 138.289 258.068 137.661 258.863 137.661C259.652 137.659 260.346 138.277 260.556 139.086C260.765 139.885 260.392 140.513 259.594 140.513C258.795 140.515 258.11 139.897 257.901 139.089Z" fill="#94B0ED"/>
<path d="M263.853 139.079C263.723 138.58 263.361 138.202 262.967 138.202C262.575 138.202 262.413 138.569 262.546 139.082C262.678 139.587 263.034 139.96 263.433 139.96C263.829 139.96 263.986 139.588 263.853 139.079ZM261.872 139.082C261.663 138.283 262.039 137.655 262.833 137.655C263.624 137.653 264.318 138.271 264.529 139.079C264.736 139.878 264.365 140.507 263.566 140.507C262.768 140.509 262.081 139.891 261.872 139.082Z" fill="#94B0ED"/>
<path d="M205.355 139.018C205.225 138.517 204.863 138.139 204.469 138.139C204.077 138.14 203.916 138.508 204.049 139.019C204.179 139.524 204.537 139.899 204.935 139.897C205.332 139.897 205.487 139.525 205.355 139.018ZM203.374 139.021C203.166 138.22 203.542 137.593 204.336 137.592C205.126 137.59 205.821 138.208 206.03 139.016C206.238 139.817 205.867 140.444 205.069 140.446C204.27 140.447 203.583 139.828 203.374 139.021Z" fill="#94B0ED"/>
<path d="M207.651 138.23L207.16 138.348L206.895 137.852L207.692 137.613H208.14L208.862 140.392L208.213 140.393L207.651 138.23Z" fill="#94B0ED"/>
<path d="M211.963 139.007C211.833 138.506 211.469 138.128 211.077 138.13C210.683 138.13 210.524 138.497 210.655 139.009C210.787 139.514 211.145 139.888 211.542 139.888C211.939 139.886 212.095 139.516 211.963 139.007ZM209.982 139.01C209.774 138.21 210.148 137.583 210.944 137.581C211.734 137.58 212.428 138.197 212.637 139.006C212.846 139.806 212.474 140.433 211.675 140.435C210.876 140.436 210.191 139.819 209.982 139.01Z" fill="#94B0ED"/>
<path d="M290.523 138.931C290.393 138.43 290.03 138.052 289.638 138.053C289.245 138.053 289.084 138.421 289.218 138.932C289.347 139.436 289.706 139.811 290.103 139.81C290.499 139.81 290.654 139.439 290.523 138.931ZM288.543 138.934C288.335 138.133 288.71 137.506 289.504 137.505C290.295 137.503 290.99 138.121 291.198 138.929C291.406 139.73 291.035 140.357 290.236 140.358C289.438 140.36 288.751 139.742 288.543 138.934Z" fill="#94B0ED"/>
<path d="M292.821 138.142L292.33 138.26L292.065 137.764L292.862 137.527L293.31 137.525L294.032 140.304L293.383 140.305L292.821 138.142Z" fill="#94B0ED"/>
<path d="M297.132 138.92C297.002 138.419 296.637 138.041 296.247 138.042C295.852 138.042 295.692 138.409 295.824 138.921C295.956 139.427 296.313 139.8 296.711 139.8C297.108 139.799 297.264 139.428 297.132 138.92ZM295.151 138.923C294.943 138.122 295.317 137.495 296.112 137.494C296.902 137.494 297.597 138.111 297.805 138.918C298.013 139.719 297.643 140.346 296.843 140.347C296.044 140.349 295.359 139.731 295.151 138.923Z" fill="#94B0ED"/>
<path d="M143.799 112.93L143.308 113.048L143.043 112.552L143.84 112.314H144.288L145.009 115.092L144.36 115.094L143.799 112.93Z" fill="#94B0ED"/>
<path d="M148.111 113.708C147.981 113.207 147.618 112.829 147.224 112.83C146.832 112.83 146.671 113.197 146.803 113.709C146.935 114.215 147.292 114.588 147.689 114.588C148.086 114.587 148.242 114.216 148.111 113.708ZM146.129 113.711C145.922 112.91 146.297 112.283 147.091 112.282C147.882 112.28 148.575 112.898 148.786 113.706C148.993 114.507 148.621 115.134 147.822 115.135C147.024 115.137 146.338 114.519 146.129 113.711Z" fill="#94B0ED"/>
<path d="M170.607 113.672C170.476 113.171 170.112 112.793 169.72 112.795C169.327 112.795 169.165 113.162 169.299 113.674C169.431 114.179 169.788 114.553 170.185 114.551C170.582 114.551 170.738 114.181 170.607 113.672ZM168.623 113.675C168.416 112.875 168.791 112.248 169.587 112.246C170.376 112.245 171.071 112.862 171.28 113.671C171.488 114.471 171.117 115.098 170.318 115.1C169.519 115.101 168.834 114.484 168.623 113.675Z" fill="#94B0ED"/>
<path d="M174.578 113.666C174.448 113.165 174.085 112.787 173.692 112.789C173.3 112.789 173.138 113.156 173.272 113.668C173.402 114.173 173.759 114.547 174.156 114.547C174.555 114.545 174.709 114.175 174.578 113.666ZM172.596 113.669C172.389 112.869 172.764 112.242 173.558 112.24C174.349 112.239 175.042 112.856 175.253 113.665C175.46 114.465 175.088 115.092 174.289 115.094C173.492 115.095 172.805 114.478 172.596 113.669Z" fill="#94B0ED"/>
<path d="M178.55 113.66C178.42 113.159 178.056 112.781 177.664 112.783C177.271 112.783 177.109 113.15 177.243 113.662C177.374 114.166 177.732 114.541 178.129 114.539C178.526 114.539 178.682 114.169 178.55 113.66ZM176.567 113.663C176.36 112.862 176.735 112.235 177.531 112.234C178.32 112.232 179.015 112.85 179.224 113.658C179.432 114.459 179.061 115.086 178.262 115.088C177.463 115.089 176.778 114.471 176.567 113.663Z" fill="#94B0ED"/>
<path d="M180.845 112.872L180.354 112.99L180.089 112.494L180.886 112.257L181.334 112.255L182.055 115.034L181.406 115.035L180.845 112.872Z" fill="#94B0ED"/>
<path d="M183.502 112.867L183.011 112.987L182.746 112.491L183.543 112.252L183.991 112.251L184.712 115.029L184.063 115.031L183.502 112.867Z" fill="#94B0ED"/>
<path d="M187.814 113.645C187.684 113.145 187.321 112.767 186.928 112.767C186.536 112.767 186.374 113.134 186.506 113.648C186.638 114.152 186.995 114.525 187.392 114.525C187.789 114.524 187.945 114.153 187.814 113.645ZM185.832 113.648C185.625 112.849 186 112.22 186.794 112.219C187.585 112.219 188.278 112.836 188.489 113.645C188.697 114.444 188.324 115.072 187.525 115.072C186.728 115.074 186.041 114.456 185.832 113.648Z" fill="#94B0ED"/>
<path d="M290.531 113.49C290.402 112.989 290.038 112.611 289.646 112.612C289.253 112.612 289.092 112.979 289.224 113.492C289.355 113.996 289.713 114.37 290.109 114.37C290.508 114.369 290.663 113.998 290.531 113.49ZM288.551 113.493C288.343 112.693 288.718 112.065 289.512 112.064C290.303 112.063 290.996 112.681 291.206 113.489C291.414 114.289 291.041 114.916 290.243 114.918C289.444 114.919 288.759 114.301 288.551 113.493Z" fill="#F99746"/>
<path d="M294.505 113.482C294.376 112.982 294.013 112.604 293.621 112.605C293.226 112.605 293.065 112.972 293.198 113.485C293.329 113.989 293.689 114.363 294.084 114.363C294.481 114.362 294.636 113.991 294.505 113.482ZM292.522 113.485C292.316 112.686 292.691 112.058 293.486 112.057C294.275 112.055 294.97 112.673 295.181 113.481C295.387 114.282 295.016 114.909 294.217 114.91C293.418 114.912 292.735 114.294 292.522 113.485Z" fill="#F99746"/>
<path d="M298.475 113.477C298.345 112.977 297.983 112.599 297.59 112.599C297.198 112.6 297.035 112.967 297.168 113.479C297.299 113.984 297.657 114.358 298.053 114.357C298.451 114.357 298.608 113.986 298.475 113.477ZM296.494 113.48C296.287 112.68 296.661 112.053 297.456 112.052C298.246 112.05 298.94 112.668 299.151 113.476C299.358 114.276 298.986 114.904 298.188 114.905C297.389 114.906 296.703 114.288 296.494 113.48Z" fill="#94B0ED"/>
<path d="M300.771 112.688L300.282 112.808L300.015 112.311L300.811 112.073L301.262 112.073L301.981 114.851L301.333 114.852L300.771 112.688Z" fill="#94B0ED"/>
<path d="M145.609 119.907L145.118 120.025L144.853 119.529L145.65 119.291H146.098L146.819 122.069L146.17 122.071L145.609 119.907Z" fill="#94B0ED"/>
<path d="M149.921 120.684C149.791 120.183 149.428 119.805 149.035 119.807C148.643 119.807 148.481 120.174 148.615 120.686C148.745 121.192 149.102 121.565 149.499 121.564C149.898 121.564 150.053 121.193 149.921 120.684ZM147.939 120.688C147.732 119.887 148.107 119.26 148.901 119.258C149.692 119.257 150.387 119.875 150.596 120.683C150.804 121.484 150.431 122.111 149.634 122.112C148.835 122.114 148.149 121.496 147.939 120.688Z" fill="#94B0ED"/>
<path d="M168.444 120.655C168.314 120.154 167.951 119.776 167.558 119.778C167.166 119.778 167.004 120.145 167.138 120.657C167.268 121.162 167.625 121.536 168.024 121.536C168.421 121.534 168.576 121.164 168.444 120.655ZM166.462 120.658C166.255 119.858 166.63 119.231 167.424 119.229C168.215 119.228 168.91 119.845 169.119 120.654C169.327 121.454 168.956 122.081 168.157 122.083C167.358 122.085 166.672 121.467 166.462 120.658Z" fill="#94B0ED"/>
<path d="M172.417 120.649C172.287 120.148 171.923 119.77 171.531 119.772C171.137 119.772 170.977 120.139 171.109 120.651C171.241 121.156 171.598 121.53 171.995 121.53C172.392 121.528 172.548 121.158 172.417 120.649ZM170.435 120.652C170.228 119.852 170.602 119.225 171.397 119.223C172.188 119.222 172.881 119.839 173.09 120.648C173.299 121.448 172.927 122.075 172.128 122.077C171.33 122.078 170.644 121.461 170.435 120.652Z" fill="#94B0ED"/>
<path d="M157.352 134.156C157.222 133.655 156.86 133.277 156.466 133.277C156.074 133.278 155.913 133.644 156.045 134.157C156.176 134.661 156.534 135.036 156.931 135.035C157.328 135.035 157.484 134.663 157.352 134.156ZM155.371 134.159C155.163 133.358 155.539 132.731 156.333 132.73C157.123 132.728 157.817 133.346 158.028 134.154C158.235 134.953 157.863 135.582 157.064 135.583C156.265 135.583 155.58 134.966 155.371 134.159Z" fill="#F99746"/>
<path d="M159.647 133.367L159.158 133.486L158.891 132.989L159.688 132.751H160.138L160.857 135.53L160.209 135.531L159.647 133.367Z" fill="#F99746"/>
<path d="M147.257 126.406L146.767 126.526L146.501 126.029L147.299 125.791H147.747L148.468 128.57H147.819L147.257 126.406Z" fill="#94B0ED"/>
<path d="M151.569 127.185C151.439 126.684 151.077 126.306 150.683 126.306C150.291 126.307 150.13 126.675 150.263 127.186C150.393 127.691 150.751 128.065 151.148 128.064C151.546 128.064 151.701 127.692 151.569 127.185ZM149.588 127.188C149.381 126.387 149.756 125.76 150.55 125.759C151.341 125.757 152.034 126.375 152.245 127.183C152.452 127.984 152.08 128.611 151.283 128.613C150.484 128.614 149.797 127.995 149.588 127.188Z" fill="#94B0ED"/>
<path d="M155.542 127.179C155.412 126.678 155.048 126.3 154.656 126.3C154.262 126.301 154.101 126.667 154.235 127.18C154.366 127.684 154.724 128.059 155.121 128.058C155.518 128.058 155.674 127.686 155.542 127.179ZM153.559 127.182C153.352 126.381 153.727 125.754 154.523 125.753C155.312 125.751 156.007 126.369 156.216 127.177C156.423 127.978 156.053 128.605 155.254 128.606C154.455 128.606 153.77 127.989 153.559 127.182Z" fill="#94B0ED"/>
<path d="M157.837 126.39L157.346 126.509L157.081 126.012L157.878 125.774H158.326L159.047 128.553L158.398 128.554L157.837 126.39Z" fill="#94B0ED"/>
<path d="M162.149 127.168C162.019 126.667 161.656 126.289 161.263 126.291C160.871 126.291 160.709 126.658 160.843 127.17C160.973 127.674 161.33 128.049 161.729 128.047C162.126 128.047 162.281 127.677 162.149 127.168ZM160.167 127.171C159.96 126.37 160.335 125.743 161.129 125.742C161.92 125.74 162.615 126.358 162.824 127.167C163.032 127.967 162.661 128.594 161.862 128.596C161.063 128.597 160.376 127.979 160.167 127.171Z" fill="#94B0ED"/>
<path d="M166.122 127.162C165.991 126.661 165.627 126.283 165.235 126.283C164.842 126.284 164.68 126.652 164.814 127.163C164.945 127.667 165.303 128.042 165.7 128.041C166.097 128.041 166.253 127.671 166.122 127.162ZM164.138 127.165C163.931 126.364 164.306 125.737 165.102 125.736C165.891 125.734 166.586 126.352 166.795 127.16C167.003 127.961 166.632 128.588 165.833 128.59C165.034 128.591 164.349 127.973 164.138 127.165Z" fill="#94B0ED"/>
<path d="M170.093 127.156C169.963 126.655 169.6 126.277 169.207 126.277C168.815 126.278 168.653 126.646 168.786 127.157C168.917 127.661 169.274 128.036 169.673 128.035C170.07 128.035 170.224 127.664 170.093 127.156ZM168.111 127.159C167.904 126.358 168.279 125.731 169.073 125.73C169.864 125.728 170.559 126.346 170.768 127.154C170.975 127.955 170.605 128.582 169.806 128.583C169.007 128.585 168.32 127.967 168.111 127.159Z" fill="#94B0ED"/>
<path d="M174.065 127.15C173.935 126.649 173.571 126.271 173.179 126.271C172.786 126.272 172.626 126.639 172.758 127.151C172.889 127.655 173.247 128.03 173.644 128.029C174.041 128.029 174.197 127.657 174.065 127.15ZM172.084 127.153C171.876 126.352 172.25 125.725 173.046 125.724C173.835 125.722 174.53 126.34 174.739 127.148C174.948 127.949 174.576 128.576 173.777 128.577C172.978 128.579 172.293 127.959 172.084 127.153Z" fill="#94B0ED"/>
<path d="M178.037 127.143C177.906 126.643 177.544 126.264 177.15 126.264C176.758 126.266 176.597 126.632 176.73 127.145C176.861 127.649 177.218 128.024 177.617 128.022C178.013 128.022 178.168 127.651 178.037 127.143ZM176.055 127.147C175.848 126.346 176.223 125.719 177.017 125.717C177.808 125.716 178.503 126.334 178.712 127.142C178.919 127.941 178.549 128.57 177.75 128.571C176.951 128.573 176.264 127.953 176.055 127.147Z" fill="#94B0ED"/>
<path d="M182.009 127.137C181.879 126.636 181.515 126.258 181.123 126.258C180.73 126.26 180.57 126.626 180.702 127.139C180.833 127.643 181.191 128.018 181.588 128.016C181.985 128.016 182.141 127.644 182.009 127.137ZM180.028 127.14C179.82 126.34 180.196 125.713 180.99 125.711C181.78 125.71 182.474 126.327 182.683 127.136C182.892 127.935 182.52 128.563 181.721 128.565C180.922 128.565 180.237 127.947 180.028 127.14Z" fill="#94B0ED"/>
<path d="M184.304 126.349L183.813 126.467L183.548 125.971L184.345 125.733H184.793L185.514 128.511L184.865 128.513L184.304 126.349Z" fill="#94B0ED"/>
<path d="M186.96 126.344L186.47 126.463L186.204 125.966L187.002 125.73L187.45 125.728L188.171 128.507L187.522 128.508L186.96 126.344Z" fill="#94B0ED"/>
<path d="M191.273 127.122C191.142 126.621 190.78 126.243 190.386 126.244C189.994 126.244 189.833 126.612 189.966 127.124C190.097 127.629 190.454 128.003 190.853 128.003C191.249 128.001 191.404 127.631 191.273 127.122ZM189.291 127.125C189.084 126.324 189.459 125.697 190.253 125.696C191.044 125.694 191.739 126.314 191.948 127.12C192.155 127.921 191.785 128.548 190.986 128.55C190.187 128.551 189.5 127.933 189.291 127.125Z" fill="#94B0ED"/>
<path d="M149.068 133.383L148.578 133.503L148.312 133.006L149.109 132.768H149.558L150.278 135.546H149.629L149.068 133.383Z" fill="#94B0ED"/>
<path d="M153.38 134.162C153.25 133.661 152.887 133.283 152.495 133.283C152.102 133.284 151.94 133.652 152.074 134.163C152.204 134.667 152.563 135.042 152.96 135.041C153.357 135.041 153.511 134.669 153.38 134.162ZM151.398 134.165C151.191 133.364 151.566 132.737 152.36 132.736C153.151 132.734 153.846 133.352 154.055 134.16C154.263 134.961 153.892 135.588 153.093 135.589C152.294 135.591 151.609 134.972 151.398 134.165Z" fill="#94B0ED"/>
<path d="M163.959 134.145C163.83 133.644 163.466 133.266 163.074 133.266C162.681 133.267 162.519 133.635 162.653 134.146C162.783 134.65 163.142 135.025 163.539 135.024C163.936 135.024 164.092 134.654 163.959 134.145ZM161.977 134.148C161.77 133.347 162.145 132.72 162.939 132.719C163.73 132.717 164.425 133.335 164.634 134.143C164.842 134.944 164.471 135.571 163.672 135.573C162.874 135.574 162.188 134.956 161.977 134.148Z" fill="#94B0ED"/>
<path d="M167.932 134.139C167.802 133.638 167.439 133.26 167.046 133.26C166.654 133.261 166.492 133.629 166.624 134.14C166.756 134.644 167.113 135.019 167.51 135.018C167.907 135.018 168.063 134.647 167.932 134.139ZM165.95 134.142C165.743 133.341 166.118 132.714 166.912 132.713C167.703 132.711 168.396 133.329 168.607 134.137C168.815 134.938 168.442 135.565 167.643 135.566C166.845 135.568 166.159 134.949 165.95 134.142Z" fill="#94B0ED"/>
<path d="M160.864 149.625C160.736 149.124 160.372 148.746 159.98 148.747C159.586 148.747 159.424 149.114 159.558 149.626C159.688 150.132 160.047 150.505 160.444 150.505C160.841 150.504 160.997 150.133 160.864 149.625ZM158.883 149.628C158.675 148.827 159.051 148.2 159.845 148.199C160.635 148.197 161.33 148.815 161.539 149.623C161.747 150.424 161.376 151.051 160.577 151.052C159.779 151.054 159.093 150.436 158.883 149.628Z" fill="#94B0ED"/>
<path d="M163.16 148.836L162.669 148.955L162.404 148.458L163.201 148.222L163.649 148.22L164.371 150.999L163.722 151L163.16 148.836Z" fill="#94B0ED"/>
<path d="M152.581 148.853L152.09 148.971L151.825 148.475L152.622 148.237H153.07L153.791 151.015L153.142 151.017L152.581 148.853Z" fill="#94B0ED"/>
<path d="M156.893 149.631C156.763 149.13 156.4 148.752 156.007 148.753C155.613 148.753 155.453 149.121 155.585 149.632C155.717 150.138 156.074 150.511 156.471 150.511C156.868 150.51 157.025 150.139 156.893 149.631ZM154.911 149.634C154.704 148.833 155.079 148.206 155.873 148.205C156.664 148.203 157.357 148.822 157.568 149.629C157.776 150.43 157.403 151.057 156.605 151.058C155.806 151.06 155.121 150.442 154.911 149.634Z" fill="#94B0ED"/>
<path d="M167.472 149.614C167.342 149.113 166.98 148.735 166.586 148.736C166.192 148.736 166.033 149.104 166.164 149.615C166.296 150.121 166.654 150.494 167.051 150.494C167.447 150.493 167.604 150.123 167.472 149.614ZM165.491 149.617C165.283 148.816 165.659 148.189 166.453 148.188C167.243 148.188 167.937 148.806 168.148 149.612C168.355 150.413 167.983 151.04 167.184 151.041C166.385 151.043 165.7 150.425 165.491 149.617Z" fill="#F99746"/>
<path d="M171.443 149.608C171.315 149.107 170.951 148.729 170.559 148.73C170.165 148.73 170.004 149.098 170.137 149.609C170.267 150.115 170.626 150.488 171.023 150.488C171.42 150.487 171.577 150.116 171.443 149.608ZM169.462 149.611C169.254 148.81 169.63 148.183 170.424 148.182C171.214 148.182 171.909 148.799 172.119 149.606C172.326 150.407 171.956 151.034 171.157 151.035C170.358 151.037 169.673 150.419 169.462 149.611Z" fill="#F99746"/>
<path d="M155.957 154.601C155.827 154.1 155.463 153.722 155.071 153.723C154.678 153.723 154.516 154.09 154.65 154.602C154.781 155.108 155.139 155.481 155.536 155.481C155.933 155.48 156.089 155.109 155.957 154.601ZM153.976 154.604C153.767 153.803 154.142 153.176 154.938 153.175C155.727 153.173 156.422 153.791 156.631 154.599C156.839 155.4 156.468 156.027 155.669 156.028C154.87 156.03 154.185 155.412 153.976 154.604Z" fill="#94B0ED"/>
<path d="M158.252 153.812L157.761 153.932L157.496 153.434L158.293 153.198L158.741 153.196L159.462 155.975L158.813 155.976L158.252 153.812Z" fill="#94B0ED"/>
<path d="M162.564 154.59C162.434 154.089 162.071 153.712 161.678 153.712C161.286 153.712 161.124 154.08 161.258 154.593C161.388 155.097 161.745 155.47 162.144 155.47C162.541 155.469 162.696 155.099 162.564 154.59ZM160.582 154.593C160.375 153.794 160.75 153.165 161.544 153.164C162.335 153.164 163.03 153.782 163.239 154.59C163.447 155.389 163.076 156.017 162.277 156.017C161.478 156.019 160.792 155.401 160.582 154.593Z" fill="#94B0ED"/>
<path d="M166.537 154.584C166.406 154.083 166.042 153.705 165.65 153.706C165.257 153.706 165.095 154.074 165.229 154.585C165.361 155.091 165.718 155.464 166.115 155.464C166.512 155.463 166.668 155.092 166.537 154.584ZM164.555 154.587C164.346 153.786 164.722 153.159 165.517 153.158C166.306 153.156 167.001 153.775 167.21 154.582C167.418 155.383 167.047 156.01 166.248 156.011C165.45 156.013 164.764 155.395 164.555 154.587Z" fill="#94B0ED"/>
<path d="M171.903 134.133C171.774 133.632 171.41 133.254 171.018 133.254C170.625 133.255 170.463 133.622 170.597 134.134C170.727 134.638 171.086 135.013 171.483 135.012C171.88 135.012 172.036 134.64 171.903 134.133ZM169.921 134.136C169.714 133.335 170.089 132.708 170.885 132.707C171.674 132.705 172.369 133.323 172.578 134.131C172.786 134.932 172.415 135.559 171.616 135.56C170.817 135.562 170.132 134.942 169.921 134.136Z" fill="#94B0ED"/>
<path d="M175.876 134.126C175.745 133.625 175.383 133.247 174.989 133.247C174.597 133.249 174.436 133.615 174.569 134.128C174.7 134.632 175.057 135.007 175.454 135.005C175.851 135.005 176.007 134.634 175.876 134.126ZM173.894 134.13C173.687 133.329 174.062 132.702 174.856 132.7C175.647 132.699 176.34 133.317 176.551 134.125C176.758 134.926 176.386 135.553 175.587 135.554C174.79 135.554 174.103 134.936 173.894 134.13Z" fill="#94B0ED"/>
<path d="M165.909 167.625C165.779 167.124 165.417 166.746 165.023 166.747C164.631 166.747 164.47 167.114 164.603 167.626C164.733 168.132 165.09 168.505 165.487 168.505C165.886 168.504 166.041 168.133 165.909 167.625ZM163.928 167.628C163.72 166.827 164.096 166.2 164.89 166.198C165.68 166.197 166.374 166.815 166.584 167.623C166.792 168.424 166.42 169.051 165.622 169.052C164.824 169.054 164.137 168.436 163.928 167.628Z" fill="#F99746"/>
<path d="M168.205 166.836L167.714 166.955L167.449 166.458L168.245 166.222L168.694 166.22L169.416 168.998L168.765 169L168.205 166.836Z" fill="#F99746"/>
<path d="M155.814 159.876L155.325 159.995L155.058 159.498L155.855 159.26H156.305L157.025 162.039L156.376 162.04L155.814 159.876Z" fill="#94B0ED"/>
<path d="M160.126 160.654C159.996 160.153 159.634 159.775 159.24 159.776C158.848 159.776 158.687 160.144 158.82 160.655C158.95 161.161 159.308 161.534 159.706 161.534C160.103 161.533 160.258 161.163 160.126 160.654ZM158.145 160.657C157.937 159.856 158.313 159.229 159.107 159.228C159.897 159.226 160.592 159.846 160.801 160.652C161.009 161.453 160.638 162.08 159.84 162.082C159.041 162.083 158.354 161.465 158.145 160.657Z" fill="#94B0ED"/>
<path d="M164.099 160.648C163.969 160.147 163.606 159.769 163.213 159.77C162.819 159.77 162.659 160.138 162.791 160.649C162.923 161.155 163.28 161.528 163.677 161.528C164.074 161.527 164.231 161.156 164.099 160.648ZM162.117 160.651C161.91 159.85 162.285 159.223 163.079 159.222C163.87 159.22 164.563 159.838 164.774 160.646C164.982 161.447 164.61 162.074 163.811 162.075C163.012 162.077 162.327 161.459 162.117 160.651Z" fill="#94B0ED"/>
<path d="M166.393 159.859L165.904 159.978L165.637 159.481L166.434 159.245L166.884 159.243L167.604 162.022L166.955 162.023L166.393 159.859Z" fill="#94B0ED"/>
<path d="M157.626 166.853L157.135 166.972L156.87 166.475L157.665 166.237H158.115L158.836 169.015L158.186 169.017L157.626 166.853Z" fill="#94B0ED"/>
<path d="M161.938 167.631C161.808 167.13 161.444 166.752 161.052 166.753C160.658 166.753 160.497 167.121 160.63 167.632C160.762 168.138 161.119 168.511 161.516 168.511C161.913 168.51 162.07 168.139 161.938 167.631ZM159.955 167.634C159.747 166.833 160.123 166.206 160.918 166.205C161.707 166.203 162.402 166.821 162.612 167.629C162.819 168.43 162.449 169.057 161.65 169.058C160.851 169.06 160.166 168.442 159.955 167.634Z" fill="#94B0ED"/>
<path d="M172.517 167.614C172.387 167.113 172.023 166.735 171.631 166.736C171.237 166.736 171.076 167.104 171.209 167.615C171.341 168.121 171.699 168.494 172.095 168.494C172.492 168.493 172.649 168.123 172.517 167.614ZM170.534 167.617C170.327 166.816 170.702 166.189 171.498 166.188C172.287 166.188 172.982 166.805 173.191 167.612C173.398 168.413 173.028 169.04 172.229 169.042C171.43 169.043 170.745 168.425 170.534 167.617Z" fill="#94B0ED"/>
<path d="M176.488 167.608C176.358 167.107 175.996 166.729 175.602 166.73C175.21 166.73 175.049 167.097 175.182 167.609C175.312 168.115 175.67 168.488 176.067 168.488C176.465 168.487 176.62 168.116 176.488 167.608ZM174.507 167.611C174.299 166.81 174.675 166.183 175.469 166.182C176.259 166.18 176.953 166.799 177.164 167.606C177.371 168.407 176.999 169.034 176.202 169.035C175.403 169.037 174.716 168.419 174.507 167.611Z" fill="#94B0ED"/>
<path d="M167.441 172.55C167.311 172.05 166.948 171.672 166.555 171.672C166.163 171.672 166.001 172.04 166.135 172.553C166.265 173.057 166.622 173.43 167.019 173.43C167.418 173.429 167.573 173.059 167.441 172.55ZM165.459 172.553C165.252 171.754 165.627 171.125 166.421 171.124C167.212 171.124 167.905 171.742 168.116 172.55C168.324 173.349 167.951 173.978 167.153 173.978C166.355 173.979 165.669 173.361 165.459 172.553Z" fill="#F99746"/>
<path d="M169.735 171.762L169.246 171.881L168.979 171.385L169.776 171.147H170.226L170.946 173.925H170.297L169.735 171.762Z" fill="#F99746"/>
<path d="M163.468 172.556C163.34 172.057 162.976 171.679 162.584 171.679C162.19 171.679 162.029 172.046 162.162 172.559C162.292 173.063 162.651 173.437 163.048 173.437C163.445 173.435 163.602 173.065 163.468 172.556ZM161.487 172.559C161.279 171.76 161.655 171.131 162.449 171.13C163.239 171.13 163.934 171.748 164.143 172.556C164.351 173.355 163.98 173.984 163.181 173.984C162.383 173.985 161.697 173.367 161.487 172.559Z" fill="#94B0ED"/>
<path d="M174.049 172.539C173.919 172.04 173.555 171.662 173.163 171.662C172.769 171.663 172.608 172.029 172.741 172.542C172.873 173.046 173.23 173.421 173.627 173.42C174.024 173.42 174.181 173.048 174.049 172.539ZM172.066 172.544C171.858 171.743 172.234 171.116 173.029 171.115C173.818 171.113 174.513 171.731 174.723 172.539C174.93 173.338 174.56 173.967 173.761 173.968C172.962 173.968 172.277 173.351 172.066 172.544Z" fill="#94B0ED"/>
<path d="M178.02 172.533C177.89 172.034 177.528 171.656 177.134 171.656C176.742 171.657 176.581 172.023 176.712 172.536C176.844 173.04 177.201 173.414 177.598 173.414C177.997 173.414 178.152 173.042 178.02 172.533ZM176.039 172.536C175.831 171.737 176.207 171.108 177.001 171.108C177.791 171.107 178.485 171.725 178.695 172.533C178.903 173.332 178.531 173.961 177.732 173.961C176.935 173.962 176.248 173.344 176.039 172.536Z" fill="#94B0ED"/>
<path d="M180.461 167.602C180.331 167.101 179.967 166.723 179.575 166.724C179.181 166.724 179.02 167.091 179.153 167.603C179.285 168.109 179.642 168.482 180.039 168.482C180.436 168.481 180.593 168.11 180.461 167.602ZM178.48 167.605C178.27 166.804 178.646 166.177 179.442 166.175C180.23 166.174 180.926 166.793 181.135 167.6C181.342 168.401 180.972 169.028 180.173 169.029C179.374 169.031 178.689 168.413 178.48 167.605Z" fill="#94B0ED"/>
<path d="M184.432 167.595C184.302 167.094 183.94 166.716 183.546 166.718C183.154 166.718 182.993 167.085 183.126 167.597C183.256 168.103 183.614 168.476 184.012 168.476C184.409 168.474 184.564 168.104 184.432 167.595ZM182.451 167.598C182.243 166.798 182.619 166.171 183.413 166.169C184.203 166.168 184.898 166.786 185.107 167.594C185.315 168.395 184.944 169.022 184.146 169.023C183.347 169.025 182.66 168.407 182.451 167.598Z" fill="#94B0ED"/>
<path d="M288.032 119.688L287.54 119.807L287.275 119.31L288.073 119.072L288.521 119.072L289.242 121.85L288.593 121.852L288.032 119.688Z" fill="#94B0ED"/>
<path d="M292.344 120.466C292.214 119.965 291.851 119.587 291.458 119.588C291.065 119.588 290.903 119.955 291.037 120.468C291.168 120.971 291.525 121.347 291.922 121.345C292.32 121.345 292.474 120.975 292.344 120.466ZM290.362 120.469C290.155 119.669 290.53 119.041 291.324 119.04C292.115 119.039 292.81 119.657 293.019 120.465C293.226 121.265 292.853 121.892 292.056 121.894C291.259 121.895 290.572 121.277 290.362 120.469Z" fill="#94B0ED"/>
<path d="M296.316 120.46C296.186 119.959 295.822 119.581 295.429 119.582C295.035 119.582 294.875 119.949 295.007 120.462C295.139 120.966 295.497 121.34 295.894 121.339C296.292 121.339 296.448 120.969 296.316 120.46ZM294.332 120.463C294.126 119.662 294.502 119.035 295.297 119.034C296.086 119.033 296.779 119.651 296.989 120.458C297.197 121.259 296.827 121.886 296.028 121.888C295.229 121.889 294.544 121.271 294.332 120.463Z" fill="#94B0ED"/>
<path d="M300.289 120.453C300.157 119.952 299.795 119.574 299.401 119.575C299.011 119.576 298.849 119.943 298.982 120.455C299.112 120.959 299.47 121.334 299.868 121.332C300.264 121.332 300.42 120.961 300.289 120.453ZM298.307 120.456C298.098 119.656 298.475 119.028 299.267 119.027C300.058 119.026 300.754 119.644 300.962 120.452C301.171 121.253 300.8 121.879 300.002 121.881C299.203 121.883 298.515 121.263 298.307 120.456Z" fill="#94B0ED"/>
<path d="M302.583 119.665L302.091 119.784L301.826 119.288L302.623 119.05L303.072 119.049L303.793 121.828L303.145 121.829L302.583 119.665Z" fill="#94B0ED"/>
<path d="M285.735 127.13C285.605 126.631 285.242 126.252 284.85 126.252C284.455 126.254 284.295 126.62 284.428 127.133C284.56 127.637 284.917 128.012 285.314 128.011C285.71 128.011 285.866 127.639 285.735 127.13ZM283.753 127.135C283.545 126.334 283.92 125.707 284.716 125.705C285.505 125.704 286.199 126.322 286.41 127.13C286.616 127.929 286.245 128.558 285.447 128.559C284.649 128.559 283.962 127.941 283.753 127.135Z" fill="#94B0ED"/>
<path d="M288.032 126.341L287.54 126.461L287.275 125.964L288.073 125.726H288.521L289.242 128.505L288.593 128.506L288.032 126.341Z" fill="#94B0ED"/>
<path d="M292.344 127.12C292.214 126.619 291.851 126.241 291.458 126.241C291.065 126.243 290.903 126.61 291.037 127.122C291.168 127.626 291.525 128.001 291.922 127.999C292.32 127.999 292.474 127.627 292.344 127.12ZM290.362 127.123C290.155 126.322 290.53 125.695 291.324 125.694C292.115 125.692 292.81 126.31 293.019 127.119C293.226 127.919 292.853 128.546 292.056 128.548C291.259 128.549 290.572 127.93 290.362 127.123Z" fill="#F99746"/>
<path d="M296.316 127.114C296.186 126.613 295.822 126.235 295.429 126.235C295.035 126.237 294.875 126.602 295.007 127.116C295.139 127.62 295.497 127.995 295.894 127.993C296.292 127.993 296.448 127.621 296.316 127.114ZM294.332 127.117C294.126 126.316 294.502 125.69 295.297 125.688C296.086 125.686 296.779 126.304 296.989 127.112C297.197 127.913 296.827 128.54 296.028 128.542C295.229 128.543 294.544 127.924 294.332 127.117Z" fill="#F99746"/>
<path d="M300.289 127.108C300.157 126.607 299.795 126.229 299.401 126.229C299.011 126.23 298.849 126.596 298.982 127.109C299.112 127.613 299.47 127.988 299.868 127.987C300.264 127.987 300.42 127.615 300.289 127.108ZM298.307 127.111C298.098 126.31 298.475 125.683 299.267 125.682C300.058 125.68 300.754 126.298 300.962 127.106C301.171 127.907 300.8 128.534 300.002 128.535C299.203 128.537 298.515 127.917 298.307 127.111Z" fill="#F99746"/>
<path d="M302.583 126.32L302.091 126.438L301.826 125.942L302.623 125.703H303.072L303.793 128.482L303.145 128.483L302.583 126.32Z" fill="#F99746"/>
<path d="M301.775 164.766L301.285 164.884L301.019 164.388L301.816 164.15H302.266L302.985 166.928L302.337 166.93L301.775 164.766Z" fill="#94B0ED"/>
<path d="M306.087 165.544C305.959 165.043 305.595 164.665 305.202 164.666C304.809 164.666 304.648 165.033 304.78 165.545C304.912 166.051 305.27 166.424 305.667 166.424C306.064 166.423 306.22 166.052 306.087 165.544ZM304.105 165.547C303.897 164.746 304.274 164.119 305.068 164.117C305.858 164.116 306.554 164.734 306.762 165.542C306.97 166.343 306.599 166.97 305.801 166.971C305.002 166.973 304.317 166.355 304.105 165.547Z" fill="#94B0ED"/>
<path d="M310.057 165.538C309.928 165.037 309.566 164.659 309.172 164.661C308.779 164.661 308.618 165.028 308.75 165.54C308.881 166.044 309.239 166.419 309.637 166.417C310.032 166.417 310.189 166.047 310.057 165.538ZM308.077 165.541C307.869 164.74 308.244 164.113 309.037 164.112C309.828 164.11 310.522 164.728 310.732 165.537C310.94 166.337 310.568 166.964 309.77 166.966C308.97 166.967 308.285 166.35 308.077 165.541Z" fill="#94B0ED"/>
<path d="M297.872 169.289L297.38 169.408L297.114 168.911L297.912 168.674L298.36 168.673L299.082 171.451L298.433 171.453L297.872 169.289Z" fill="#94B0ED"/>
<path d="M302.183 170.067C302.053 169.566 301.691 169.188 301.296 169.189C300.906 169.189 300.743 169.557 300.877 170.068C301.007 170.574 301.365 170.947 301.762 170.947C302.161 170.946 302.315 170.575 302.183 170.067ZM300.202 170.07C299.995 169.269 300.369 168.642 301.164 168.641C301.953 168.639 302.647 169.258 302.859 170.065C303.066 170.866 302.694 171.493 301.894 171.494C301.097 171.496 300.411 170.878 300.202 170.07Z" fill="#94B0ED"/>
<path d="M306.156 170.061C306.026 169.56 305.662 169.182 305.269 169.183C304.875 169.183 304.715 169.551 304.849 170.062C304.98 170.568 305.336 170.941 305.734 170.941C306.131 170.94 306.287 170.569 306.156 170.061ZM304.173 170.064C303.966 169.263 304.34 168.636 305.137 168.635C305.925 168.633 306.621 169.253 306.829 170.059C307.037 170.86 306.666 171.487 305.868 171.488C305.069 171.49 304.383 170.872 304.173 170.064Z" fill="#94B0ED"/>
<path d="M314.031 165.531C313.903 165.03 313.538 164.652 313.146 164.652C312.752 164.654 312.592 165.021 312.725 165.533C312.858 166.037 313.214 166.412 313.612 166.41C314.008 166.41 314.164 166.04 314.031 165.531ZM312.049 165.534C311.842 164.734 312.217 164.107 313.013 164.105C313.801 164.104 314.497 164.721 314.705 165.53C314.914 166.33 314.543 166.957 313.745 166.959C312.946 166.96 312.259 166.343 312.049 165.534Z" fill="#94B0ED"/>
<path d="M316.327 164.743L315.836 164.861L315.571 164.365L316.367 164.127H316.815L317.537 166.905L316.887 166.907L316.327 164.743Z" fill="#94B0ED"/>
<path d="M369.887 133.449C371.361 133.319 374.755 133.69 376.972 136.511C379.186 139.333 377.653 142.66 383.192 145.223C388.731 147.786 387.935 151.02 386.827 155.075C385.721 159.131 381.075 164.033 375.536 163.793C369.997 163.555 360.524 152.915 360.867 149.346C361.207 145.779 362.853 145.352 361.548 142.993C359.502 139.297 363.293 134.032 369.887 133.449Z" fill="#163560"/>
<path d="M372.049 150.373C372.076 150.336 372.091 150.314 372.088 150.313C371.474 150.108 371.422 149.272 371.99 145.793L371.695 145.805L366.751 146.027C366.751 146.027 366.635 147.451 366.426 148.781C366.384 149.045 366.34 149.306 366.291 149.551C362.57 153.008 370.579 154.571 372.049 150.373Z" fill="#FFB27D"/>
<path d="M361.94 243.984H372.624C372.624 243.984 372.88 242.466 372.321 241.313C371.787 240.207 370.955 239.525 370.878 238.678C370.201 239.329 369.366 239.749 367.82 239.556C367.63 239.841 366.599 241.373 365.968 241.798C365.269 242.265 362.157 242.099 361.94 243.984Z" fill="#143D7A"/>
<path d="M374.48 203.24C373.486 205.532 372.719 207.614 372.962 209.45V209.461C372.989 209.664 373.03 209.862 373.083 210.06C376.587 223.138 371.617 240.168 371.617 240.168C371.617 240.168 370.305 240.453 369.354 240.531C367.669 240.671 367.424 240.204 367.424 240.204C367.424 240.204 365.752 226.316 360.34 199.767C359.561 195.933 359.251 193.811 358.97 190.402C358.885 189.382 358.804 188.246 358.713 186.915C358.468 183.338 359.049 177.315 361.927 175.734C363.236 175.011 365.017 175.21 367.414 176.971C367.603 177.111 367.782 177.277 367.994 177.418C382.714 187.304 377.523 196.248 374.48 203.24Z" fill="#2F539B"/>
<path d="M372.96 209.45C372.794 208.913 367.499 191.653 367.41 190.342C367.219 187.522 374.216 195.309 374.48 203.24C373.487 205.532 372.72 207.614 372.96 209.45Z" fill="#233862"/>
<path d="M410.421 223.008L405.973 213.944C405.973 213.944 404.387 214.359 403.495 215.311C402.642 216.226 402.023 216.063 400.073 214.801C400.808 215.859 400.905 216.481 401.36 217.873C401.718 217.913 403.757 219.753 405.843 220.26C406.673 220.461 408.493 223.61 410.421 223.008Z" fill="#143D7A"/>
<path d="M363.803 179.711C363.803 179.711 373.376 210.761 376.884 212.761C380.389 214.758 397.735 218.734 402.855 219.688C402.855 219.688 403.038 218.396 402.771 217.091C402.71 216.801 402.18 215.759 402.18 215.759C402.18 215.759 393.076 207.258 384.175 206.067C382.314 205.818 384.924 178.666 372.283 177.603C360.735 176.63 363.803 179.711 363.803 179.711Z" fill="#2F539B"/>
<path d="M349.61 130.847C349.61 130.847 349.824 129.853 350.068 129.092C350.173 128.758 349.429 126.549 348.916 126.277C348.402 126.007 347.062 127.493 347.441 128.634C347.636 129.22 347.956 131.129 347.956 131.129L349.61 130.847Z" fill="#FFB27D"/>
<path d="M393.817 132.692C393.882 132.818 393.974 133.044 394.055 133.256C394.055 133.198 394.055 133.141 394.058 133.086C394.06 132.663 395.751 130.367 396.445 130.223C397.141 130.08 398.12 132.231 397.251 133.419C396.806 134.031 395.46 136.208 395.46 136.208L393.971 135.368C393.971 135.368 393.961 134.782 393.558 134.308C393.356 134.068 393.348 132.941 393.278 132.451C393.278 132.451 393.576 132.228 393.817 132.692Z" fill="#FFB27D"/>
<path d="M366.749 146.027C366.749 146.027 366.634 147.452 366.425 148.781C369.123 149.084 370.91 146.994 371.694 145.806L366.749 146.027Z" fill="#ED975D"/>
<path d="M372.622 145.223C372.622 145.223 374.514 143.179 375.188 141.302C375.669 139.961 375.731 134.752 370.114 134.724C370.114 134.724 368.495 134.649 366.843 135.387C365.529 135.974 363.548 137.358 364.763 142.081L365.023 143.654L372.622 145.223Z" fill="#163560"/>
<path d="M365.433 147.15C365.433 147.15 372.326 148.215 372.972 144.2C373.615 140.186 374.939 137.619 370.566 136.77C366.193 135.92 365.089 137.332 364.527 138.623C363.963 139.914 363.656 146.769 365.433 147.15Z" fill="#FFB27D"/>
<path d="M366.746 136.209C366.746 136.209 368.575 141.208 371.369 142.307C374.16 143.407 375.535 142.855 375.535 142.855C375.535 142.855 373.57 140.896 373.57 137.951C373.57 137.951 368.528 134.165 366.746 136.209Z" fill="#163560"/>
<path d="M367.844 136.682C367.844 136.682 366.574 136.994 365.446 138.267C364.705 139.101 364.444 140.261 364.111 141.408C364.111 141.408 363.197 138.008 365.086 136.419C367.09 134.733 367.844 136.682 367.844 136.682Z" fill="#163560"/>
<path d="M395.735 136.227C395.735 136.227 394.221 147.76 391.03 150.518C388.815 152.431 380.973 155.518 379.102 158.363C378.878 158.702 378.605 159.664 378.389 161.092C377.757 165.273 377.6 173.438 380.518 181.637C380.653 182.016 380.794 182.396 380.945 182.775C381.34 183.788 380.807 184.91 379.716 185.271C378.345 185.727 376.328 186.299 373.944 186.68C373.491 186.754 373.02 186.819 372.544 186.876C365.967 187.654 361.516 186.215 359.255 185.15C358.188 184.647 357.542 183.601 357.61 182.486C357.743 180.211 358.966 177.959 359.515 172.487C359.934 168.334 356.897 162.479 357.058 160.27C357.123 159.397 357.586 155.518 357.115 154.917C353.987 150.909 348.727 147.071 347.918 143.411C346.986 139.192 347.587 130.773 347.587 130.773C347.847 130.689 348.55 130.429 349.05 130.429C349.935 130.427 350.559 131.19 350.559 131.19C350.559 131.19 352.907 139.391 353.024 139.943C353.649 142.884 359.645 147.147 361.462 148.002C363.45 148.941 365.04 149.443 366.292 149.552C366.292 149.552 364.814 151.936 367 152.266C369.634 152.664 371.669 149.84 371.669 149.84C371.669 149.84 373.267 150.259 376.148 149.863C378.537 149.535 387.045 146.852 388.274 144.816C389.169 143.335 393.893 135.122 393.893 135.122C393.893 135.122 394.33 134.884 395.035 135.227C395.733 135.565 395.735 136.227 395.735 136.227Z" fill="#AEC3FF"/>
<path d="M367.436 144.97C367.436 144.97 367.142 145.524 366.743 145.535C366.347 145.544 365.339 145.455 365.271 145.36C365.203 145.265 365.036 144.684 365.036 144.684C365.036 144.684 366.702 144.622 367.436 144.97Z" fill="white"/>
<path d="M380.518 181.637C380.518 181.637 374.602 180.69 374.21 176.762C373.791 172.576 378.385 161.084 378.385 161.084L378.39 161.092C377.756 165.273 377.6 173.438 380.518 181.637Z" fill="#94B0ED"/>
<path d="M366.098 84.9711L365.482 82.8613C364.819 80.599 362.753 78.9378 360.256 78.6628L344.18 76.8909L342.974 86.4094L337.831 127.047L404.341 134.376L409.484 93.7392L371.848 89.5915C369.102 89.2889 366.826 87.4605 366.098 84.9711Z" fill="#F99746"/>
<path d="M350.351 108.496L350.81 104.88L365.105 100.823L364.637 104.518L354.683 107.114L363.714 111.801L363.241 115.548L350.351 108.496Z" fill="white"/>
<path d="M379.775 98.0573L383.399 98.4564L367.886 121.347L364.265 120.947L379.775 98.0573Z" fill="white"/>
<path d="M397.255 109.998L396.798 113.614L382.503 117.67L382.97 113.976L392.924 111.38L383.895 106.693L384.368 102.946L397.255 109.998Z" fill="white"/>
<path d="M393.442 134.001C393.442 134.001 393.247 132.402 393.075 132.104C392.906 131.806 393.33 131.72 393.692 132.402C394.056 133.086 394.779 132.88 395.143 133.556C395.505 134.231 395.185 134.411 394.737 134.371C394.29 134.331 393.442 134.001 393.442 134.001Z" fill="#FFB27D"/>
<path d="M349.731 130.329C349.731 130.329 350.708 129.344 350.701 128.905C350.696 128.464 351.383 127.374 351.192 127.176C350.999 126.976 350.661 127.294 350.479 127.593C350.297 127.891 349.552 127.872 349.382 128.687C349.211 129.501 349.731 130.329 349.731 130.329Z" fill="#FFB27D"/>
<path d="M195.321 125.276L220.576 135.597V126.413L207.417 121.365L220.576 116.317V107.219L195.321 117.54V125.276Z" fill="#2C3A64"/>
<path d="M243.795 100.858L221.974 143.419H231.197L253.02 100.858H243.795Z" fill="#2C3A64"/>
<path d="M254.708 107.218V116.402L267.868 121.451L254.708 126.499V135.597L279.964 125.276V117.54L254.708 107.218Z" fill="#2C3A64"/>
<path d="M221.973 143.419V140.988H231.196V143.419H221.973Z" fill="#2C3A64"/>
<path d="M253.02 98.4269V100.858H248.711V98.4285L253.02 98.4269Z" fill="#2C3A64"/>
<path d="M195.321 122.847L220.576 133.168V123.984L207.417 118.936L220.576 113.886V104.788L195.321 115.109V122.847Z" fill="#2B478B"/>
<path d="M243.795 98.4269L221.974 140.988H231.197L253.02 98.4269H243.795Z" fill="#2B478B"/>
<path d="M254.708 104.788V113.972L267.868 119.021L254.708 124.07V133.167L279.964 122.846V115.11L254.708 104.788Z" fill="#2B478B"/>
<path d="M336.958 190.569H335.42L322.831 145.751L306.649 88.1376H125.924L153.3 190.569L151.347 190.587L123.64 86.7469L307.92 86.5982L308.081 87.171L324.26 145.095L336.958 190.569Z" fill="#94B0ED"/>
<path d="M337.237 191.567L335.754 191.753L322.833 145.75L324.26 145.094L337.237 191.567Z" fill="#AEC3FF"/>
<path d="M151.749 112.268C151.413 112.629 151.369 113.031 151.537 113.463L151.54 113.469C151.848 114.265 152.869 115.154 154.055 116.042C154.205 116.157 154.34 116.26 154.459 116.357C154.488 116.382 154.519 116.406 154.549 116.432C154.572 116.452 154.595 116.472 154.618 116.491C155.723 117.442 155.307 117.659 157.293 119.589C159.558 121.786 161.116 121.826 161.559 121.625C161.935 121.454 161.172 120.29 160.329 118.979C160.288 118.916 160.246 118.851 160.205 118.788C160.093 118.615 159.981 118.436 159.869 118.261C158.879 116.684 159.133 115.945 159.368 113.599C159.558 111.691 162.547 102.944 162.547 102.944L158.209 102.247C158.209 102.247 156.903 109.211 155.463 110.285C154.692 110.857 153.831 110.863 153.091 111.287C153.039 111.316 152.988 111.347 152.937 111.378C152.517 111.638 152.088 111.907 151.749 112.268Z" fill="#FFB27D"/>
<path d="M151.749 112.268C151.413 112.629 151.369 113.031 151.537 113.463L151.54 113.469C151.917 114.264 152.912 115.149 154.058 116.034C154.208 116.15 154.34 116.257 154.459 116.357C154.488 116.382 154.519 116.406 154.549 116.432C154.572 116.452 154.595 116.472 154.618 116.491C155.723 117.442 155.307 117.659 157.293 119.589C159.558 121.786 161.116 121.826 161.559 121.625C161.935 121.454 161.172 120.29 160.329 118.979C159.887 118.828 157.84 118.052 156.292 116.205C154.928 114.581 154.019 112.495 153.091 111.287C153.039 111.316 152.988 111.347 152.937 111.378C152.517 111.638 152.088 111.907 151.749 112.268Z" fill="#233862"/>
<path d="M186.736 109.74C187.005 110.989 188.914 110.782 191.047 110.295C193.18 109.809 192.673 110.387 195.708 110.073C198.744 109.76 199.664 108.704 199.757 108.283C199.839 107.908 198.34 107.777 196.731 107.604C196.528 107.582 196.326 107.559 196.122 107.536C194.305 107.324 192.976 106.23 191.325 105.331C189.762 104.481 187.43 101.014 187.43 101.014L183.266 101.323C183.266 101.323 185.452 104.418 186.297 105.764C186.794 106.556 186.768 107.602 186.705 108.41C186.672 108.85 186.643 109.3 186.736 109.74Z" fill="#FFB27D"/>
<path d="M191.047 110.295C193.18 109.809 192.673 110.387 195.708 110.073C198.744 109.76 199.664 108.704 199.757 108.283C199.839 107.908 198.34 107.777 196.731 107.604L196.716 107.633C196.716 107.633 194.894 108.838 192.368 108.893C190.309 108.941 188.127 108.389 186.705 108.41C186.672 108.85 186.643 109.3 186.736 109.74C187.005 110.989 188.914 110.782 191.047 110.295Z" fill="#233862"/>
<path d="M170.783 84.9028L166.891 94.6735L161.809 107.432C161.809 107.432 160.431 107.556 159.112 107.201C157.896 106.874 156.501 106.016 156.501 106.016C156.501 106.016 157.911 92.3176 160.543 84.4541C161.218 82.4363 161.974 80.8027 162.808 79.8837C166.887 75.3857 170.783 84.9028 170.783 84.9028Z" fill="#2C3A64"/>
<path d="M166.826 69.3862C164.277 68.6178 157.005 69.6028 149.7 70.9383L148.17 68.584L132.392 67.4345C132.392 67.4345 127.185 78.2071 130.036 85.0718C130.455 86.0799 131.287 86.7269 132.706 86.7484H132.936C132.936 86.7484 142.328 86.7438 145.376 86.7438C153.223 86.7438 161.982 81.7109 163.116 81.4989C164.972 81.1531 165.713 84.6138 167.568 88.2483C169.422 91.8827 185.002 104.343 185.002 104.343C185.002 104.343 187.397 104.364 188.387 104.018C189.451 103.647 189.84 103.162 189.84 103.162C189.84 103.162 172.576 71.1166 166.826 69.3862Z" fill="#2F539B"/>
<path d="M142.942 23.7688C140.731 23.2374 137.704 23.7658 137.203 23.812C131.199 24.3634 129.182 30.6127 130.091 35.4602C130.929 39.9334 128.497 41.1719 125.679 44.7055C120.027 51.7912 123.721 57.7647 128.181 59.305C130.856 60.2293 134.571 57.8987 134.571 57.8987C134.638 57.9233 146.244 50.8038 151 46.7911C158.925 43.8983 148.577 25.1213 142.942 23.7688Z" fill="#2B478B"/>
<path d="M143.828 44.2618C143.986 44.7797 141.361 45.7325 139.356 45.3821C137.47 45.0548 135.356 42.994 135.792 42.8004C136.514 42.4807 136.999 41.6847 136.604 37.3833L136.963 37.4202L142.998 38.0641C142.998 38.0641 143.016 39.8175 143.156 41.4603C143.273 42.8388 143.571 43.4166 143.828 44.2618Z" fill="#FFB27D"/>
<path d="M142.998 38.0641C142.998 38.0641 143.016 39.8175 143.156 41.4603C139.826 41.6263 137.821 38.9339 136.963 37.4202L142.998 38.0641Z" fill="#ED975D"/>
<path d="M144.243 39.5332C144.243 39.5332 136.393 40.2555 135.986 35.6883C135.579 31.1195 134.292 28.1367 139.287 27.482C144.283 26.8274 145.413 28.4947 145.946 29.9885C146.48 31.4822 146.276 39.2274 144.243 39.5332Z" fill="#FFB27D"/>
<path d="M143.403 26.7613C143.403 26.7613 142.413 32.3412 137.943 33.6659C134.681 34.6325 133.204 33.9948 133.204 33.9948C133.204 33.9948 134.774 32.0523 135.332 29.3522C135.497 28.5562 136.103 27.9 136.929 27.648C139.246 26.9364 142.054 24.9909 143.403 26.7613Z" fill="#2B478B"/>
<path d="M141.923 27.9507C141.923 27.9507 143.403 28.2581 144.714 30.0392C145.431 31.0135 146.259 33.4661 146.118 34.5542C146.118 34.5542 147.493 29.3876 145.488 27.4667C143.364 25.4289 141.923 27.9507 141.923 27.9507Z" fill="#2B478B"/>
<path d="M129.693 59.2682C129.833 59.823 129.953 60.3332 130.05 60.805C130.21 61.5641 130.32 62.2188 130.397 62.7966C130.637 64.5992 130.565 65.6657 130.727 66.8336C130.817 67.4868 130.982 68.1722 131.314 69.0312C131.639 69.8687 140.17 70.614 145.024 70.3144C146.564 70.2206 147.738 70.0178 148.155 69.6828C149.886 68.2797 149.715 71.3655 149.952 56.6004C150.067 49.3976 143.402 42.9832 143.402 42.9832C143.402 42.9832 142.87 46.0598 136.26 42.3993C136.025 42.2702 133.422 45.8662 130.917 50.2951C128.157 55.1866 128.913 56.2224 129.693 59.2682Z" fill="#F99746"/>
<path d="M166.891 94.6735L161.809 107.432C161.809 107.432 160.431 107.556 159.112 107.201C157.896 106.874 156.501 106.016 156.501 106.016C156.501 106.016 157.911 92.3176 160.543 84.454L166.891 94.6735Z" fill="#2B478B"/>
<path d="M143.403 42.9832C143.403 42.9832 150.204 44.059 151.001 46.7898C151.8 49.5221 157.318 64.802 157.318 64.802C157.318 64.802 153.044 66.1636 151.446 64.673C149.848 63.1823 145.889 50.8468 145.889 50.8468L143.403 42.9832Z" fill="#F99746"/>
<path d="M171.127 61.2906L172.738 60.6943C172.738 60.6943 173.706 60.4945 174.23 60.6482C174.754 60.8019 176.063 60.785 176.07 60.9863C176.077 61.1861 174.578 61.81 174.578 61.81L174.53 61.7931C175.1 62.9964 177.948 63.6833 178.086 64.1243C178.252 64.6591 176.926 64.9357 176.205 65.1032C175.484 65.2707 173.715 65.2538 172.842 64.3963C172.206 63.7678 171.127 62.9057 171.127 62.9057V61.2906Z" fill="#FFB27D"/>
<path d="M142.431 36.8393C142.431 36.8393 142.761 37.5908 143.631 37.5908C144.499 37.5908 144.734 37.4694 144.899 37.2973C145.063 37.1267 145.227 36.7948 145.227 36.7948C145.227 36.7948 143.785 36.5304 142.431 36.8393Z" fill="white"/>
<path d="M155.422 59.5218L171.888 60.6943C171.888 60.6943 172.232 62.1849 171.17 63.8738C171.17 63.8738 156.316 66.5831 152.439 65.2001C148.564 63.8154 149 57.2904 149 57.2904L155.422 59.5218Z" fill="#F99746"/>
<path d="M130.397 62.7966C130.637 64.5992 130.565 65.6657 130.727 66.8336C136.902 66.8521 145.157 62.3847 145.157 62.3847L130.397 62.7966Z" fill="#ED7D2B"/>
<path d="M145.157 58.6059C145.157 58.6059 135.538 58.3385 133.917 53.2365C132.135 47.6319 130.14 55.5416 130.14 55.5416L131.202 60.5898H141.756L145.157 58.6059Z" fill="#ED7D2B"/>
<path d="M161.928 44.7628L161.409 43.5611C160.851 42.2733 159.512 41.4311 158.023 41.4311H148.433V47.1079V71.3471H188.104V47.1079H165.655C164.017 47.1079 162.542 46.1797 161.928 44.7628Z" fill="#AEC3FF"/>
<path d="M154.417 59.6232V57.4656L162.524 54.1523V56.356L156.862 58.529L162.524 60.7004V62.9364L154.417 59.6232Z" fill="white"/>
<path d="M170.947 51.5752H173.108L165.688 66.0453H163.529L170.947 51.5752Z" fill="white"/>
<path d="M182.12 57.4656V59.6232L174.013 62.9364V60.7327L179.674 58.5597L174.013 56.3883V54.1523L182.12 57.4656Z" fill="white"/>
<path d="M145.157 59.7891L145.852 58.7687C145.852 58.7687 146.404 58.6012 147.177 58.0956C148.096 57.4932 147.974 56.5912 148.433 56.688L148.438 58.6688L148.389 58.6765C150.361 59.1668 152.667 58.6335 152.713 59.0915C152.839 60.3516 151.795 60.9186 150.919 61.3136C150.25 61.6148 149.489 62.0682 148.279 61.7162C147.394 61.4596 146.002 61.1983 146.002 61.1983L145.157 59.7891Z" fill="#FFB27D"/>
<path d="M136.26 42.3993C136.26 42.3993 130.015 42.7804 128.454 45.0532C126.892 47.3261 124.957 58.8625 125.768 62.8258C126.58 66.7875 146.577 62.0682 146.577 62.0682L145.94 58.6304C145.94 58.6304 134.399 58.6919 133.741 57.2904C132.867 55.4248 136.26 42.3993 136.26 42.3993Z" fill="#F99746"/>
<path d="M166.403 47.0956C166.35 47.2462 167.342 48.7722 168.76 48.5079C169.645 48.3419 170.794 46.5654 169.785 46.1736C168.1 45.5204 166.546 46.6914 166.403 47.0956Z" fill="#FFB27D"/>
</g>
<defs>
<clipPath id="clip0">
<rect width="468" height="245" fill="white"/>
</clipPath>
</defs>
</svg>
